<svg width="580" height="362" viewBox="0 0 580 362" fill="none" xmlns="http://www.w3.org/2000/svg">
<g clip-path="url(#clip0)">
<path d="M440.921 322.085C513.449 322.085 572.245 263.198 572.245 190.558C572.245 117.918 513.449 59.0312 440.921 59.0312C368.392 59.0312 309.597 117.918 309.597 190.558C309.597 263.198 368.392 322.085 440.921 322.085Z" fill="#F2F2F2"/>
<path d="M71.249 100.458C98.9467 100.458 121.4 77.9693 121.4 50.2288C121.4 22.4882 98.9467 0 71.249 0C43.5512 0 21.0977 22.4882 21.0977 50.2288C21.0977 77.9693 43.5512 100.458 71.249 100.458Z" fill="#FF6584"/>
<path d="M161.211 269.784C233.739 269.784 292.535 210.897 292.535 138.257C292.535 65.617 233.739 6.73047 161.211 6.73047C88.6824 6.73047 29.8867 65.617 29.8867 138.257C29.8867 210.897 88.6824 269.784 161.211 269.784Z" fill="#F2F2F2"/>
<path d="M155.006 277.035C234.673 277.035 299.256 273.557 299.256 269.267C299.256 264.978 234.673 261.5 155.006 261.5C75.3396 261.5 10.7568 264.978 10.7568 269.267C10.7568 273.557 75.3396 277.035 155.006 277.035Z" fill="#3F3D56"/>
<path opacity="0.1" d="M126.054 274.893C185.733 274.893 234.112 272.495 234.112 269.536C234.112 266.578 185.733 264.18 126.054 264.18C66.3753 264.18 17.9961 266.578 17.9961 269.536C17.9961 272.495 66.3753 274.893 126.054 274.893Z" fill="black"/>
<path d="M435.751 331.924C515.417 331.924 580 328.099 580 323.38C580 318.661 515.417 314.836 435.751 314.836C356.084 314.836 291.501 318.661 291.501 323.38C291.501 328.099 356.084 331.924 435.751 331.924Z" fill="#3F3D56"/>
<path opacity="0.1" d="M406.797 329.566C466.476 329.566 514.855 326.928 514.855 323.674C514.855 320.419 466.476 317.781 406.797 317.781C347.118 317.781 298.739 320.419 298.739 323.674C298.739 326.928 347.118 329.566 406.797 329.566Z" fill="black"/>
<path d="M207.276 308.104C258.116 308.104 299.329 306.017 299.329 303.444C299.329 300.87 258.116 298.783 207.276 298.783C156.437 298.783 115.224 300.87 115.224 303.444C115.224 306.017 156.437 308.104 207.276 308.104Z" fill="#3F3D56"/>
<path d="M44.4139 290.157C68.9429 290.157 88.8277 289.151 88.8277 287.909C88.8277 286.667 68.9429 285.66 44.4139 285.66C19.8848 285.66 0 286.667 0 287.909C0 289.151 19.8848 290.157 44.4139 290.157Z" fill="#3F3D56"/>
<path d="M492.686 362.001C538.338 362.001 575.347 360.127 575.347 357.816C575.347 355.505 538.338 353.631 492.686 353.631C447.033 353.631 410.024 355.505 410.024 357.816C410.024 360.127 447.033 362.001 492.686 362.001Z" fill="#3F3D56"/>
<path d="M483.834 224.217H318.387V322.603H483.834V224.217Z" fill="#3F3D56"/>
<path d="M371.64 311.728C392.199 311.728 408.865 295.036 408.865 274.445C408.865 253.854 392.199 237.162 371.64 237.162C351.081 237.162 334.414 253.854 334.414 274.445C334.414 295.036 351.081 311.728 371.64 311.728Z" fill="#39B6FB"/>
<path d="M432.649 239.752H420.24V252.18H432.649V239.752Z" fill="#39B6FB"/>
<path opacity="0.5" d="M448.16 239.752H435.751V252.18H448.16V239.752Z" fill="#39B6FB"/>
<path opacity="0.2" d="M463.67 239.752H451.262V252.18H463.67V239.752Z" fill="#39B6FB"/>
<path d="M432.649 255.287H420.24V267.715H432.649V255.287Z" fill="#2F2E41"/>
<path opacity="0.5" d="M448.16 255.287H435.751V267.715H448.16V255.287Z" fill="#2F2E41"/>
<path opacity="0.2" d="M463.67 255.287H451.262V267.715H463.67V255.287Z" fill="#2F2E41"/>
<path d="M432.649 270.82H420.24V283.248H432.649V270.82Z" fill="#FF6584"/>
<path opacity="0.5" d="M448.16 270.82H435.751V283.248H448.16V270.82Z" fill="#FF6584"/>
<path opacity="0.2" d="M463.67 270.82H451.262V283.248H463.67V270.82Z" fill="#FF6584"/>
<path opacity="0.5" d="M371.64 237.162V311.728C392.199 311.728 409.899 295.036 409.899 274.445C409.899 253.854 392.199 237.162 371.64 237.162Z" fill="#3F3D56"/>
<path d="M519.25 231.207C519.25 231.207 540.965 241.046 533.21 252.438C525.454 263.83 502.188 285.578 501.671 290.239C501.154 294.899 498.052 299.042 498.052 299.042C498.052 299.042 487.711 288.167 488.746 287.132C489.78 286.096 500.12 276.258 500.637 273.668C501.154 271.079 516.665 250.884 516.665 250.884L502.705 238.457L519.25 231.207Z" fill="#FFB9B9"/>
<path opacity="0.1" d="M519.25 231.207C519.25 231.207 540.965 241.046 533.21 252.438C525.454 263.83 502.188 285.578 501.671 290.239C501.154 294.899 498.052 299.042 498.052 299.042C498.052 299.042 487.711 288.167 488.746 287.132C489.78 286.096 500.12 276.258 500.637 273.668C501.154 271.079 516.665 250.884 516.665 250.884L502.705 238.457L519.25 231.207Z" fill="black"/>
<path d="M491.848 252.957C491.848 252.957 506.841 259.171 505.807 269.009C504.773 278.848 523.903 306.81 523.903 306.81C523.903 306.81 525.971 313.542 525.454 315.613C524.937 317.685 538.897 317.167 538.897 317.167V312.506C538.897 312.506 528.039 293.865 527.005 288.687C525.971 283.508 519.767 263.313 519.767 263.313C519.767 263.313 517.699 245.189 507.358 245.189C504.348 245.189 501.38 245.891 498.688 247.24C495.995 248.588 493.654 250.545 491.848 252.957Z" fill="#FFB9B9"/>
<path d="M492.623 206.094C492.623 206.094 523.644 231.467 522.61 233.538C521.576 235.61 506.583 243.377 503.997 243.895C501.412 244.413 483.121 206.094 483.121 206.094H492.623Z" fill="#2F2E41"/>
<path opacity="0.1" d="M492.623 206.094C492.623 206.094 523.644 231.467 522.61 233.538C521.576 235.61 506.583 243.377 503.997 243.895C501.412 244.413 483.121 206.094 483.121 206.094H492.623Z" fill="black"/>
<path d="M459.016 211.271C459.016 211.271 455.914 225.252 464.186 230.948C472.459 236.644 486.418 258.911 487.969 258.911C489.52 258.911 511.752 247.001 510.718 244.929C509.684 242.858 498.31 224.734 498.31 224.734L494.691 205.575C494.691 205.575 463.152 204.539 459.016 211.271Z" fill="#2F2E41"/>
<path d="M492.623 165.703L497.276 195.737L505.549 216.968C505.549 216.968 517.957 229.913 510.719 230.949C503.481 231.984 499.344 216.968 499.344 216.968L492.623 204.54V165.703Z" fill="#FFB9B9"/>
<path opacity="0.1" d="M492.623 165.703L497.276 195.737L505.549 216.968C505.549 216.968 517.957 229.913 510.719 230.949C503.481 231.984 499.344 216.968 499.344 216.968L492.623 204.54V165.703Z" fill="black"/>
<path d="M475.303 132.303C475.303 132.303 475.303 143.177 471.684 144.213C468.064 145.248 486.16 159.23 486.16 159.23C486.16 159.23 484.092 141.106 491.331 136.445L475.303 132.303Z" fill="#FFB9B9"/>
<path opacity="0.1" d="M475.303 132.303C475.303 132.303 475.303 143.177 471.684 144.213C468.064 145.248 486.16 159.23 486.16 159.23C486.16 159.23 484.092 141.106 491.331 136.445L475.303 132.303Z" fill="black"/>
<path d="M483.575 141.107C490.143 141.107 495.467 135.775 495.467 129.197C495.467 122.619 490.143 117.287 483.575 117.287C477.008 117.287 471.684 122.619 471.684 129.197C471.684 135.775 477.008 141.107 483.575 141.107Z" fill="#FFB9B9"/>
<path d="M484.092 154.052C484.092 154.052 473.234 140.589 471.683 141.106C470.132 141.624 458.758 153.016 457.723 156.641C456.689 160.266 454.621 186.157 456.172 191.335C457.723 196.513 457.723 209.977 457.206 211.012C456.689 212.048 453.587 214.637 456.689 214.637C459.792 214.637 470.649 206.87 477.887 208.423C485.126 209.977 494.949 207.905 495.466 206.87C495.983 205.834 494.949 178.907 495.466 176.836C495.983 174.765 494.432 164.408 493.915 162.337C493.398 160.266 493.398 151.981 488.228 149.909L486.023 149.691L485.9 154.813L484.092 154.052Z" fill="#39B6FB"/>
<path d="M461.344 180.979C461.344 180.979 462.378 197.031 470.133 203.763C477.889 210.494 494.433 221.886 495.467 223.958C496.501 226.029 506.325 236.903 508.393 232.243C508.993 230.79 509.138 229.189 508.808 227.652C508.507 226.124 507.898 224.673 507.018 223.39C506.137 222.106 505.004 221.017 503.687 220.188L499.086 217.226L476.337 193.406L475.303 180.979H461.344Z" fill="#FFB9B9"/>
<path d="M491.072 285.32C491.072 285.32 485.127 284.026 483.059 287.651C480.99 291.275 485.127 301.114 485.127 301.114C485.127 301.114 497.018 325.97 499.086 322.863C501.154 319.756 497.535 308.364 497.535 308.364C497.535 308.364 502.705 296.971 500.637 296.454C498.569 295.936 491.072 291.534 491.072 285.32Z" fill="#2F2E41"/>
<path d="M527.522 315.094C527.522 315.094 524.42 313.54 523.903 315.094C523.386 316.647 520.283 324.415 523.903 325.45C527.522 326.486 563.196 327.522 562.162 325.45C561.128 323.379 555.441 320.79 551.822 319.754C548.203 318.719 538.896 310.951 538.896 310.951C538.896 310.951 533.726 317.683 527.522 315.094Z" fill="#2F2E41"/>
<path d="M495.554 119.744C495.331 118.993 494.839 118.35 494.173 117.938C494.208 117.134 494.109 116.328 493.882 115.556C493.122 113.306 491.322 113.435 489.624 112.44C488.887 112.009 488.932 111.627 488.549 110.919C488.046 109.989 487.293 109.22 486.376 108.698C485.286 108.003 484.136 107.287 482.847 107.199C480.139 107.014 478.062 109.566 475.473 110.385C474.332 110.746 473.106 110.76 471.959 111.102C470.812 111.443 469.667 112.258 469.496 113.444C469.417 113.992 469.556 114.553 469.476 115.101C469.317 116.189 468.364 116.951 467.726 117.846C466.315 119.825 466.476 122.621 467.605 124.775C467.842 125.22 468.114 125.647 468.418 126.05C468.512 127.068 468.804 128.058 469.277 128.963C470.406 131.117 472.348 132.726 474.376 134.063C474.21 133.349 474.109 132.621 474.075 131.888C474.047 131.644 474.078 131.397 474.168 131.168C474.393 130.695 474.99 130.569 475.445 130.31C476.388 129.774 476.758 128.586 476.785 127.501C476.812 126.415 476.583 125.328 476.696 124.248C476.701 124 476.757 123.755 476.862 123.53C476.966 123.305 477.117 123.104 477.304 122.941C477.651 122.742 478.049 122.647 478.449 122.667C480.38 122.588 482.398 122.553 484.102 121.638C484.651 121.272 485.242 120.973 485.861 120.746C487.309 120.368 488.789 121.385 489.623 122.628C490.458 123.872 490.874 125.353 491.643 126.638C492.413 127.922 493.743 129.068 495.232 128.916C495.316 128.916 495.398 128.899 495.475 128.865C495.552 128.831 495.62 128.781 495.676 128.718C495.74 128.603 495.769 128.471 495.758 128.339L495.841 122.64C495.91 121.666 495.813 120.686 495.554 119.744Z" fill="#2F2E41"/>
<path d="M465.997 154.57C465.997 154.57 477.371 159.749 476.854 170.623C476.337 181.497 479.956 182.533 471.167 183.568C462.377 184.604 460.309 183.568 459.792 184.604C459.275 185.64 456.173 160.784 458.241 158.195C460.309 155.606 465.997 154.57 465.997 154.57Z" fill="#39B6FB"/>
<path d="M237.214 66.7988C246.351 66.7988 253.758 59.38 253.758 50.2285C253.758 41.077 246.351 33.6582 237.214 33.6582C228.076 33.6582 220.669 41.077 220.669 50.2285C220.669 59.38 228.076 66.7988 237.214 66.7988Z" fill="#2F2E41"/>
<path d="M248.329 231.725L239.023 257.098C239.023 257.098 231.267 263.312 235.92 265.383C240.574 267.454 249.88 263.312 249.88 263.312L257.118 244.67L256.084 231.725H248.329Z" fill="#2F2E41"/>
<path opacity="0.1" d="M248.329 231.725L239.023 257.098C239.023 257.098 231.267 263.312 235.92 265.383C240.574 267.454 249.88 263.312 249.88 263.312L257.118 244.67L256.084 231.725H248.329Z" fill="black"/>
<path d="M249.105 81.2988L256.86 82.3345C256.86 82.3345 260.479 110.815 258.928 112.886C257.377 114.957 249.622 123.242 246.52 121.171C243.418 119.1 249.105 81.2988 249.105 81.2988Z" fill="#575A89"/>
<path d="M174.912 133.34C174.912 133.34 164.055 138 161.987 138.518C159.918 139.036 156.816 144.214 160.435 145.25C164.055 146.285 178.014 135.929 178.014 135.929L174.912 133.34Z" fill="#A0616A"/>
<path d="M251.949 242.083L257.636 263.314C257.636 263.314 258.153 271.081 260.739 271.599C263.324 272.117 271.079 269.01 271.079 267.974C271.079 266.938 267.977 258.653 267.977 258.653C267.977 258.653 267.977 252.439 264.875 249.85C261.773 247.261 258.978 238.588 258.978 238.588L251.949 242.083Z" fill="#2F2E41"/>
<path d="M259.187 193.407C260.231 195.846 260.102 213.54 258.96 225.316C258.406 231.038 257.615 235.361 256.602 235.869L249.193 234.015L246.262 233.28L246.184 226.838L245.744 191.336L236.955 154.571V145.25L259.187 147.321L262.713 152.867L262.806 153.017C262.806 153.017 257.636 189.783 259.187 193.407Z" fill="#2F2E41"/>
<path opacity="0.1" d="M254.534 204.8C255.64 206.462 257.486 216.414 258.96 225.316C258.406 231.038 257.615 235.361 256.602 235.869L249.193 234.015C249.079 233.777 248.966 233.528 248.847 233.28C247.9 231.291 247.011 229.096 246.184 226.838L245.744 191.336L236.955 154.571V145.25L259.187 147.321L262.713 152.867L242.125 151.464L246.779 171.659L252.466 192.89C252.466 192.89 252.466 201.693 254.534 204.8Z" fill="black"/>
<path d="M217.825 124.536C217.825 124.536 210.587 140.589 220.927 162.855C227.326 176.712 233.021 190.884 237.989 205.317C237.989 205.317 241.608 222.405 246.779 233.279C251.949 244.153 250.915 244.671 250.915 244.671L259.187 240.011C259.187 240.011 254.534 207.906 252.466 204.799C250.398 201.692 250.398 192.889 250.398 192.889L244.711 171.658L240.057 151.463L262.806 153.017C262.806 153.017 262.806 123.501 252.466 117.805L217.825 124.536Z" fill="#2F2E41"/>
<path d="M226.356 57.9961C226.356 57.9961 226.356 66.2812 223.771 66.7991C221.186 67.3169 216.016 67.3169 214.464 69.906C212.913 72.4951 226.356 106.671 226.356 106.671L240.316 97.8684L244.969 74.5664C244.969 74.5664 238.248 70.4238 238.248 68.3525V59.0317L226.356 57.9961Z" fill="#A0616A"/>
<path opacity="0.1" d="M226.356 57.9961C226.356 57.9961 226.356 66.2812 223.771 66.7991C221.186 67.3169 216.016 67.3169 214.464 69.906C212.913 72.4951 226.356 106.671 226.356 106.671L240.316 97.8684L244.969 74.5664C244.969 74.5664 238.248 70.4238 238.248 68.3525V59.0317L226.356 57.9961Z" fill="black"/>
<path d="M234.37 67.0586C241.223 67.0586 246.778 61.4945 246.778 54.6309C246.778 47.7672 241.223 42.2031 234.37 42.2031C227.516 42.2031 221.961 47.7672 221.961 54.6309C221.961 61.4945 227.516 67.0586 234.37 67.0586Z" fill="#A0616A"/>
<path d="M227.908 96.3147C227.908 96.3147 223.254 66.7988 222.22 66.7988C221.186 66.7988 206.71 69.9058 205.676 70.4236C204.642 70.9414 201.022 75.6018 201.022 75.6018L208.261 96.3147C208.261 96.3147 211.363 110.814 213.431 113.403C215.499 115.992 219.635 123.241 217.567 124.277C215.499 125.313 213.431 126.866 215.499 126.866C217.567 126.866 234.629 123.759 235.663 125.313C236.697 126.866 253.759 119.617 253.759 119.099C253.759 118.581 251.691 94.2434 251.691 94.2434L256.861 82.3335L241.35 71.4592L227.908 96.3147Z" fill="#575A89"/>
<path d="M206.192 73.0137L201.022 75.6028C201.022 75.6028 186.545 108.743 185.511 109.261C184.477 109.779 179.307 119.618 178.79 121.689C178.273 123.76 177.239 130.492 175.688 131.528C174.856 132.093 173.993 132.612 173.103 133.081C173.103 133.081 176.205 138.259 177.756 138.259C179.307 138.259 184.477 131.01 184.477 131.01C184.477 131.01 195.852 138.259 198.954 132.563C202.056 126.867 209.811 90.6196 209.811 90.6196L206.192 73.0137Z" fill="#575A89"/>
<path d="M246.779 88.8076C246.779 88.8076 239.54 71.2016 235.404 73.2729C231.268 75.3442 238.506 87.7719 243.159 89.8432L246.779 88.8076Z" fill="#A0616A"/>
<path opacity="0.1" d="M239.54 89.324L246.794 87.6816L248.33 95.5379C248.33 95.5379 255.051 107.448 253.5 112.626C251.949 117.804 242.642 126.089 239.54 121.429C236.438 116.769 233.853 109.519 235.921 105.377C237.989 101.234 241.091 91.3953 239.54 89.324Z" fill="black"/>
<path d="M241.092 88.2889L248.346 86.6465L249.881 94.5028C249.881 94.5028 256.603 106.413 255.052 111.591C253.5 116.769 244.194 125.054 241.092 120.394C237.99 115.733 235.405 108.484 237.473 104.341C239.541 100.199 242.643 90.3602 241.092 88.2889Z" fill="#575A89"/>
<path d="M248.966 52.136C250.359 49.1578 246.458 44.383 240.252 41.4713C234.046 38.5596 227.886 38.6136 226.493 41.5918C225.1 44.57 229.002 49.3448 235.207 52.2565C241.413 55.1682 247.573 55.1142 248.966 52.136Z" fill="#2F2E41"/>
<path d="M247.037 43.4971C251.035 43.4971 254.275 40.2514 254.275 36.2476C254.275 32.2438 251.035 28.998 247.037 28.998C243.04 28.998 239.799 32.2438 239.799 36.2476C239.799 40.2514 243.04 43.4971 247.037 43.4971Z" fill="#2F2E41"/>
<path d="M240.315 33.6577C240.316 31.8697 240.976 30.1448 242.168 28.8146C243.361 27.4844 245.003 26.6426 246.778 26.4511C245.767 26.3405 244.745 26.4445 243.776 26.7562C242.808 27.068 241.917 27.5805 241.16 28.2604C240.403 28.9403 239.797 29.7724 239.383 30.7023C238.968 31.6323 238.754 32.6393 238.754 33.6577C238.754 34.6761 238.968 35.6831 239.383 36.6131C239.797 37.543 240.403 38.3751 241.16 39.055C241.917 39.7349 242.808 40.2475 243.776 40.5592C244.745 40.871 245.767 40.9749 246.778 40.8644C245.003 40.6728 243.361 39.8311 242.168 38.5008C240.976 37.1706 240.316 35.4457 240.315 33.6577Z" fill="#2F2E41"/>
<path d="M214.465 143.438H33.5068V269.268H214.465V143.438Z" fill="#3F3D56"/>
<path d="M71.7665 155.865H47.9834V179.685H71.7665V155.865Z" fill="#F2F2F2"/>
<path d="M71.7665 194.701H47.9834V218.521H71.7665V194.701Z" fill="#39B6FB"/>
<path d="M71.7665 233.537H47.9834V257.357H71.7665V233.537Z" fill="#F2F2F2"/>
<path d="M196.369 163.373H83.1406V165.444H196.369V163.373Z" fill="#F2F2F2"/>
<path d="M118.298 170.105H83.1406V172.177H118.298V170.105Z" fill="#F2F2F2"/>
<path d="M196.369 202.209H83.1406V204.28H196.369V202.209Z" fill="#F2F2F2"/>
<path d="M118.298 208.941H83.1406V211.013H118.298V208.941Z" fill="#F2F2F2"/>
<path d="M196.369 241.047H83.1406V243.118H196.369V241.047Z" fill="#F2F2F2"/>
<path d="M118.298 247.777H83.1406V249.849H118.298V247.777Z" fill="#F2F2F2"/>
<path d="M511.753 346.389C511.753 356.93 505.497 360.61 497.779 360.61C497.6 360.61 497.421 360.608 497.244 360.604C496.886 360.596 496.531 360.579 496.181 360.555C489.216 360.061 483.805 356.192 483.805 346.389C483.805 336.246 496.746 323.446 497.721 322.496L497.722 322.495C497.76 322.458 497.779 322.439 497.779 322.439C497.779 322.439 511.753 335.849 511.753 346.389Z" fill="#39B6FB"/>
<path d="M497.27 358.997L502.381 351.845L497.257 359.783L497.244 360.604C496.887 360.596 496.532 360.579 496.182 360.555L496.732 350.01L496.729 349.927L496.738 349.913L496.79 348.916L491.653 340.959L496.806 348.169L496.819 348.38L497.234 340.413L492.837 332.191L497.288 339.015L497.721 322.496L497.723 322.439V322.495L497.651 335.521L502.029 330.356L497.633 336.643L497.517 343.776L501.606 336.93L497.5 344.826L497.436 348.793L503.369 339.263L497.413 350.176L497.27 358.997Z" fill="#3F3D56"/>
<path d="M58.3234 274.412C58.3234 284.953 52.0675 288.634 44.3492 288.634C44.1704 288.634 43.9917 288.631 43.8142 288.627C43.4566 288.619 43.1016 288.603 42.7518 288.578C35.7859 288.085 30.375 284.215 30.375 274.412C30.375 264.269 43.3164 251.469 44.2913 250.52L44.2926 250.518C44.3299 250.481 44.3492 250.463 44.3492 250.463C44.3492 250.463 58.3234 263.873 58.3234 274.412Z" fill="#39B6FB"/>
<path d="M43.8403 287.021L48.9516 279.869L43.8275 287.807L43.8146 288.627C43.457 288.619 43.1021 288.603 42.7522 288.578L43.3027 278.033L43.2988 277.951L43.3078 277.937L43.3606 276.94L38.2236 268.983L43.376 276.193L43.3889 276.404L43.8043 268.437L39.4069 260.214L43.8583 267.039L44.2918 250.52L44.2931 250.463V250.518L44.221 263.544L48.5991 258.38L44.203 264.666L44.0873 271.8L48.176 264.953L44.0705 272.85L44.0062 276.816L49.9393 267.286L43.9831 278.199L43.8403 287.021Z" fill="#3F3D56"/>
</g>
<defs>
<clipPath id="clip0">
<rect width="580" height="362" fill="white"/>
</clipPath>
</defs>
</svg>
