<svg width="443" height="364" viewBox="0 0 443 364" fill="none" xmlns="http://www.w3.org/2000/svg">
<g clip-path="url(#clip0)">
<path d="M324.251 299.665C327.768 300.902 331.545 301.212 335.216 300.565C338.888 299.917 342.331 298.334 345.214 295.969C352.556 289.801 354.858 279.639 356.731 270.229L362.272 242.398L350.673 250.392C342.331 256.141 333.802 262.073 328.027 270.4C322.251 278.727 319.73 290.093 324.371 299.103" fill="#E6E6E6"/>
<path d="M325.243 333.359C324.069 324.8 322.862 316.131 323.685 307.481C324.416 299.798 326.758 292.294 331.526 286.142C334.056 282.882 337.136 280.089 340.625 277.889C341.535 277.314 342.373 278.757 341.467 279.329C335.429 283.149 330.759 288.789 328.13 295.436C325.226 302.828 324.76 310.885 325.26 318.738C325.563 323.486 326.204 328.204 326.85 332.915C326.901 333.128 326.87 333.353 326.762 333.543C326.653 333.734 326.477 333.876 326.268 333.942C326.055 333.999 325.828 333.97 325.636 333.861C325.444 333.752 325.303 333.572 325.243 333.359Z" fill="#F2F2F2"/>
<path d="M336.55 318.213C338.058 320.508 340.132 322.375 342.57 323.635C345.009 324.895 347.731 325.505 350.473 325.406C357.522 325.071 363.398 320.147 368.688 315.473L384.333 301.647L373.979 301.151C366.532 300.794 358.893 300.461 351.801 302.76C344.708 305.058 338.167 310.59 336.87 317.938" fill="#E6E6E6"/>
<path d="M321.925 338.279C327.576 328.272 334.13 317.15 345.841 313.595C349.097 312.61 352.512 312.258 355.9 312.556C356.968 312.648 356.702 314.296 355.636 314.204C349.955 313.732 344.286 315.233 339.582 318.455C335.056 321.538 331.532 325.825 328.549 330.372C326.722 333.157 325.085 336.06 323.448 338.959C322.925 339.885 321.396 339.216 321.925 338.279V338.279Z" fill="#F2F2F2"/>
<path d="M182.658 267.977C175.726 270.415 168.283 271.026 161.047 269.751C153.811 268.475 147.025 265.355 141.343 260.693C126.872 248.536 122.335 228.509 118.644 209.964C115.004 191.681 111.364 173.397 107.725 155.113L130.585 170.868C147.024 182.197 163.834 193.89 175.217 210.301C186.6 226.711 191.568 249.113 182.422 266.87" fill="#E6E6E6"/>
<path d="M180.703 334.384C183.017 317.516 185.396 300.431 183.773 283.382C182.332 268.241 177.717 253.452 168.32 241.326C163.333 234.902 157.264 229.397 150.387 225.061C148.593 223.928 146.943 226.772 148.728 227.9C160.628 235.428 169.832 246.543 175.013 259.643C180.736 274.212 181.655 290.092 180.669 305.568C180.073 314.927 178.809 324.225 177.535 333.51C177.435 333.93 177.497 334.373 177.71 334.748C177.923 335.124 178.271 335.404 178.682 335.533C179.103 335.646 179.55 335.589 179.929 335.374C180.307 335.159 180.585 334.804 180.703 334.384Z" fill="#F2F2F2"/>
<path d="M158.418 304.537C155.445 309.06 151.358 312.739 146.552 315.222C141.746 317.705 136.381 318.907 130.976 318.713C117.085 318.053 105.504 308.349 95.0785 299.136L64.2432 271.887L84.6511 270.909C99.3272 270.206 114.382 269.551 128.361 274.081C142.339 278.61 155.231 289.512 157.787 303.994" fill="#E6E6E6"/>
<path d="M187.242 344.083C176.106 324.36 163.188 302.441 140.107 295.435C133.69 293.494 126.961 292.798 120.282 293.386C118.177 293.568 118.703 296.815 120.804 296.634C131.998 295.704 143.172 298.662 152.442 305.012C161.363 311.089 168.309 319.539 174.188 328.499C177.789 333.987 181.014 339.708 184.241 345.422C185.272 347.248 188.285 345.93 187.242 344.083Z" fill="#F2F2F2"/>
<path d="M101.288 77.0704L5.40385 56.9639L4.15779 56.7032C3.5232 56.5692 2.8637 56.6172 2.25514 56.8416C1.64658 57.066 1.11367 57.4578 0.717693 57.9719C0.321717 58.486 0.0787641 59.1015 0.0167598 59.7477C-0.0452444 60.3939 0.0762299 61.0444 0.367206 61.6246L38.8471 138.679C39.0961 139.174 39.4603 139.602 39.909 139.927C40.3577 140.252 40.8779 140.464 41.4256 140.546C41.975 140.628 42.5362 140.575 43.0607 140.391C43.5851 140.208 44.057 139.899 44.4357 139.493L70.679 111.465C70.8657 111.261 71.0926 111.097 71.3454 110.985C71.5983 110.873 71.8717 110.814 72.1483 110.812C72.5243 110.805 72.8953 110.9 73.2215 111.087C73.5478 111.274 73.817 111.547 74.0004 111.876L79.4691 121.858C79.8183 122.523 80.3801 123.053 81.0648 123.362C81.7496 123.671 82.518 123.742 83.2477 123.564L83.2746 123.557C84.0133 123.396 84.6764 122.991 85.1573 122.407C85.6382 121.823 85.9089 121.094 85.926 120.338L86.8725 97.2152C86.8837 96.9267 86.954 96.6435 87.079 96.3834C87.2133 96.1258 87.3964 95.8968 87.618 95.7091L102.779 83.1011C103.277 82.6867 103.649 82.1402 103.851 81.5241C104.054 80.908 104.078 80.2474 103.923 79.6179C103.767 78.9884 103.437 78.4156 102.972 77.965C102.506 77.5144 101.922 77.2044 101.288 77.0704V77.0704ZM101.903 82.0422L86.7417 94.6502C86.5441 94.8114 86.3653 94.9944 86.2086 95.1957L5.24297 59.0225C5.17155 58.9897 5.09709 58.9641 5.02066 58.9459C4.70873 58.8674 4.37921 58.9005 4.08907 59.0394C3.79894 59.1784 3.56645 59.4144 3.4318 59.7068C3.29714 59.9991 3.26879 60.3294 3.35165 60.6404C3.43451 60.9515 3.62338 61.2238 3.88558 61.4102L70.5682 109.829C70.2324 110.006 69.9296 110.24 69.6731 110.521L43.43 138.548C43.2023 138.791 42.9194 138.975 42.6054 139.084C42.2914 139.194 41.9555 139.227 41.6263 139.179C41.2971 139.131 40.9843 139.004 40.7145 138.809C40.4447 138.615 40.2259 138.358 40.0766 138.06L1.59683 61.0052C1.42479 60.6571 1.35391 60.2675 1.39227 59.881C1.43063 59.4945 1.57669 59.1265 1.8138 58.8191C2.05092 58.5116 2.36953 58.2769 2.73339 58.1418C3.09724 58.0068 3.49169 57.9767 3.87179 58.0551L5.14743 58.323L101.002 78.4223C101.383 78.5024 101.733 78.6882 102.013 78.9583C102.293 79.2284 102.491 79.5721 102.585 79.9498C102.679 80.3275 102.665 80.7241 102.544 81.0941C102.424 81.4642 102.201 81.7927 101.903 82.0421L101.903 82.0422Z" fill="#CCCCCC"/>
<path d="M101.288 77.0704L5.40385 56.9639L4.15779 56.7032C3.5232 56.5692 2.8637 56.6172 2.25514 56.8416C1.64658 57.066 1.11367 57.4578 0.717693 57.9719C0.321717 58.486 0.0787641 59.1015 0.0167598 59.7477C-0.0452444 60.3939 0.0762299 61.0444 0.367206 61.6246L38.8471 138.679C39.0961 139.174 39.4603 139.602 39.909 139.927C40.3577 140.252 40.8779 140.464 41.4256 140.546C41.975 140.628 42.5362 140.575 43.0607 140.391C43.5851 140.208 44.057 139.899 44.4357 139.493L70.679 111.465C70.8657 111.261 71.0926 111.097 71.3454 110.985C71.5983 110.873 71.8717 110.814 72.1483 110.812C72.5243 110.805 72.8953 110.9 73.2215 111.087C73.5478 111.274 73.817 111.547 74.0004 111.876L79.4691 121.858C79.8183 122.523 80.3801 123.053 81.0648 123.362C81.7496 123.671 82.518 123.742 83.2477 123.564L83.2746 123.557C84.0133 123.396 84.6764 122.991 85.1573 122.407C85.6382 121.823 85.9089 121.094 85.926 120.338L86.8725 97.2152C86.8837 96.9267 86.954 96.6435 87.079 96.3834C87.2133 96.1258 87.3964 95.8968 87.618 95.7091L102.779 83.1011C103.277 82.6867 103.649 82.1402 103.851 81.5241C104.054 80.908 104.078 80.2474 103.923 79.6179C103.767 78.9884 103.437 78.4156 102.972 77.965C102.506 77.5144 101.922 77.2044 101.288 77.0704V77.0704ZM101.903 82.0422L86.7416 94.6502C86.5441 94.8114 86.3652 94.9944 86.2086 95.1957C86.0673 95.3748 85.9455 95.5684 85.8452 95.7734C85.7402 95.983 85.6578 96.2032 85.5993 96.4303L85.6009 96.437C85.5392 96.6736 85.5042 96.9163 85.4967 97.1607L84.5506 120.283C84.5442 120.738 84.3834 121.177 84.0947 121.528C83.8061 121.879 83.4066 122.121 82.9621 122.215L82.9487 122.218C82.5108 122.329 82.0481 122.29 81.6356 122.105C81.2231 121.92 80.8849 121.602 80.676 121.201L75.2058 111.212C74.924 110.698 74.5157 110.265 74.0196 109.954C73.5235 109.642 72.9562 109.463 72.3714 109.432L72.3648 109.434C72.2862 109.431 72.2078 109.427 72.1309 109.431C71.5854 109.434 71.049 109.571 70.5683 109.829C70.2324 110.006 69.9296 110.24 69.6732 110.521L43.43 138.548C43.2023 138.79 42.9194 138.975 42.6054 139.084C42.2914 139.194 41.9555 139.227 41.6263 139.179C41.2971 139.131 40.9843 139.004 40.7145 138.809C40.4447 138.615 40.2259 138.357 40.0766 138.06L1.59683 61.0052C1.42479 60.6571 1.35391 60.2675 1.39227 59.881C1.43063 59.4945 1.57669 59.1265 1.8138 58.8191C2.05092 58.5116 2.36953 58.2769 2.73339 58.1418C3.09724 58.0068 3.49169 57.9767 3.87179 58.0551L5.14743 58.323L101.002 78.4223C101.383 78.5024 101.733 78.6882 102.013 78.9583C102.293 79.2284 102.491 79.5721 102.585 79.9498C102.679 80.3275 102.665 80.7241 102.544 81.0941C102.424 81.4642 102.201 81.7927 101.903 82.0421L101.903 82.0422Z" fill="#3F3D56"/>
<path d="M86.5146 95.3311L85.953 96.5902L85.6005 96.4371L85.599 96.4304L4.69751 60.2922L72.3644 109.434L72.371 109.433L72.5502 109.569L71.7445 110.685L70.5679 109.829L3.88521 61.4103C3.62299 61.2239 3.43413 60.9516 3.35126 60.6405C3.26839 60.3295 3.29672 59.9992 3.43139 59.7068C3.56605 59.4145 3.79856 59.1784 4.0887 59.0395C4.37885 58.9006 4.7084 58.8675 5.02033 58.946C5.09676 58.9642 5.17122 58.9898 5.24264 59.0226L86.2082 95.1958L86.5146 95.3311Z" fill="#3F3D56"/>
<path d="M294.689 191.666L298.189 225.908L298.257 226.611L299.297 236.766L307.839 320.376V320.39L309.498 336.611C308.85 337.483 308.277 338.408 307.783 339.376C306.279 342.348 305.543 345.65 305.644 348.98C305.745 352.311 306.68 355.562 308.362 358.437C312.529 357.389 316.639 356.194 320.691 354.852C329.074 352.093 337.25 348.738 345.157 344.815C344.334 340.286 341.971 336.182 338.469 333.199L329.893 230.072L329.142 221.027L326.697 191.666H294.689Z" fill="#FFB8B8"/>
<path d="M319.214 98.4018C336.899 80.7009 336.899 52.0022 319.214 34.3013C301.529 16.6004 272.856 16.6005 255.17 34.3013C237.485 52.0022 237.485 80.7009 255.17 98.4018C272.856 116.103 301.529 116.103 319.214 98.4018Z" fill="#FFB8B8"/>
<path d="M202.785 253.428C202.792 253.517 202.799 253.607 202.805 253.69C202.956 255.458 203.667 257.132 204.836 258.466C206.005 259.801 207.569 260.726 209.301 261.108L276.884 275.881C277.47 276.009 278.068 276.074 278.668 276.074C280.481 276.074 282.243 275.478 283.685 274.378C285.127 273.279 286.169 271.736 286.651 269.987C286.796 269.449 286.954 268.898 287.126 268.326V268.319C289.406 260.57 293.477 250.022 299.297 236.765C300.613 233.766 302.02 230.625 303.519 227.341C303.795 226.734 304.077 226.121 304.353 225.507C307.445 218.786 310.896 211.51 314.705 203.681C316.569 199.854 317.977 195.821 318.9 191.665C321.354 180.693 320.385 169.232 316.124 158.829C315.256 156.711 314.256 154.65 313.128 152.659C308.68 144.81 302.377 138.173 294.771 133.328C287.165 128.483 278.488 125.579 269.5 124.87C268.074 124.752 266.656 124.697 265.23 124.697C250.969 124.76 237.281 130.32 227.009 140.222C220.948 146.104 216.346 153.324 213.571 161.304C213.392 161.807 213.227 162.317 213.062 162.828C210.517 170.902 208.474 179.126 206.945 187.453C206.029 192.396 205.285 197.27 204.686 202.02C202.585 219.07 201.949 236.269 202.785 253.428Z" fill="#39B6FB"/>
<path d="M173.022 340.044C214.082 363.402 262.566 369.991 308.362 358.437C312.529 357.389 316.639 356.194 320.691 354.852C317.096 343.118 312.804 331.61 307.839 320.389V320.375C299.559 301.796 291.955 290.428 288.249 285.409C287.64 284.578 287.239 283.613 287.08 282.594C286.92 281.576 287.007 280.534 287.333 279.556L288.484 276.102C288.921 274.795 289.027 273.4 288.79 272.042C288.553 270.684 287.981 269.407 287.127 268.326V268.319C287.051 268.223 286.968 268.126 286.885 268.029C256.779 233.698 204.294 252.428 203.763 252.622L203.501 252.718L203.336 252.946C203.157 253.194 202.978 253.435 202.806 253.69C188.575 273.648 179.118 304.326 173.022 340.044Z" fill="#2F2E41"/>
<path d="M111.138 119.003C111.365 119.999 111.512 121.011 111.58 122.03L190.785 167.763L210.037 156.67L230.56 183.563L198.385 206.515C195.786 208.37 192.656 209.33 189.465 209.252C186.274 209.174 183.194 208.063 180.688 206.084L99.014 141.594C95.328 142.959 91.314 143.169 87.5059 142.196C83.6978 141.222 80.276 139.112 77.6956 136.144C75.1153 133.177 73.4987 129.494 73.0609 125.584C72.6231 121.675 73.3848 117.725 75.2447 114.259C77.1047 110.794 79.9746 107.977 83.473 106.184C86.9713 104.391 90.9321 103.706 94.8286 104.221C98.7252 104.736 102.373 106.426 105.286 109.067C108.2 111.707 110.241 115.173 111.138 119.003Z" fill="#FFB8B8"/>
<path d="M191.998 167.06V167.067C192.285 168.105 192.772 169.076 193.431 169.928L206.945 187.452L213.385 195.814L219.033 203.136C219.761 204.081 220.684 204.857 221.739 205.413C222.794 205.968 223.956 206.29 225.147 206.355C226.337 206.421 227.527 206.228 228.637 205.792C229.746 205.355 230.749 204.684 231.576 203.825L252.088 182.509L260.553 173.706C265.362 169.949 268.488 164.437 269.243 158.378C269.998 152.319 268.322 146.207 264.582 141.383C260.842 136.559 255.343 133.416 249.291 132.644C243.239 131.872 237.128 133.534 232.299 137.264L227.009 140.222L195.952 157.608C194.334 158.516 193.065 159.94 192.349 161.653C191.633 163.365 191.509 165.269 191.998 167.06H191.998Z" fill="#39B6FB"/>
<path d="M281.582 178.05L282.877 219.449L282.884 219.711C282.921 220.904 283.214 222.075 283.744 223.145C284.274 224.214 285.028 225.157 285.955 225.908C286.882 226.659 287.961 227.201 289.116 227.498C290.271 227.794 291.477 227.837 292.651 227.625L298.258 226.611L299.69 226.349H299.697L304.354 225.508L329.143 221.027L333.889 220.172C335.061 219.959 336.174 219.495 337.152 218.813C338.13 218.131 338.95 217.246 339.555 216.219C340.161 215.191 340.539 214.045 340.663 212.859C340.787 211.672 340.654 210.473 340.274 209.342L326.904 169.723C325.786 163.721 322.336 158.408 317.311 154.949C312.285 151.489 306.094 150.165 300.094 151.268C294.095 152.37 288.777 155.809 285.307 160.829C281.837 165.85 280.497 172.043 281.582 178.05Z" fill="#39B6FB"/>
<path d="M280.025 55.9264C268.385 63.8996 253.102 72.0957 241.215 63.6048C233.409 58.0296 230.949 47.7055 234.115 38.6455C239.807 22.3529 255.447 15.1801 270.402 9.68208C289.844 2.5346 311.013 -3.15154 331.084 1.96713C351.154 7.0858 368.892 26.5353 365.269 46.9459C362.355 63.3597 346.886 77.0172 349.082 93.5425C351.292 110.174 369.979 118.928 386.477 121.901C402.975 124.873 421.437 125.828 433.293 137.689C448.418 152.819 444.641 179.863 430.409 195.838C416.177 211.812 394.7 219.053 373.889 223.976C346.316 230.498 316.493 233.926 290.306 223.102C264.118 212.278 243.739 183.14 251.325 155.817C254.53 144.276 262.078 134.523 269.373 125.027C276.669 115.532 284.056 105.602 286.839 93.9521C289.158 84.2438 287.441 72.9719 281.009 65.6895C279.839 64.4148 279.103 62.8019 278.906 61.0823C278.709 59.3626 279.061 57.6248 279.913 56.1182L280.025 55.9264Z" fill="#2F2E41"/>
</g>
<defs>
<clipPath id="clip0">
<rect width="443" height="364" fill="white"/>
</clipPath>
</defs>
</svg>
