<svg width="457" height="320" viewBox="0 0 457 320" fill="none" xmlns="http://www.w3.org/2000/svg">
<g clip-path="url(#clip0)">
<path opacity="0.1" d="M194.421 12.3006C175.845 5.23048 156.214 -0.675369 136.175 0.0670804C106.71 1.15544 78.4253 17.7467 64.5738 42.1083C52.8216 62.7492 51.3716 86.9421 46.309 109.848C40.0788 138.066 28.1243 164.891 15.3604 191.117C8.50634 205.207 1.27291 219.6 0.147433 235.044C-1.41222 256.486 9.53487 277.853 26.7037 292.115C43.8726 306.378 66.673 313.904 89.5578 315.545C101.736 316.418 114.462 315.608 125.278 310.301C136.723 304.686 145.065 294.541 156.556 289.006C167.203 283.877 179.66 283.16 191.614 283.826C207.223 284.696 222.631 287.764 237.384 292.938C254.093 298.81 269.631 307.319 286.281 313.275C302.931 319.232 321.58 322.556 338.618 317.587C354.636 312.917 367.282 301.578 378.684 290.095C397.329 271.353 414.418 251.123 429.782 229.606C440.071 215.175 449.648 199.951 454.197 183.132C462.897 150.974 450.926 114.695 424.374 92.7341C402.374 74.5398 372.85 66.6429 343.95 61.8507C317.596 57.4804 287.124 57.2104 262.865 45.8205C239.732 34.9453 218.68 21.5391 194.421 12.3006Z" fill="#39B6FB"/>
<path d="M266.65 261.122V276.448H271.005L270.162 259.996L266.65 261.122Z" fill="#AAABB0"/>
<path d="M201.242 258.031V273.356H205.601L204.758 256.904L201.242 258.031Z" fill="#AAABB0"/>
<path d="M277.328 235.534C277.328 233.98 276.07 232.721 274.518 232.721C272.967 232.721 271.709 233.98 271.709 235.534V257.188C271.709 258.742 272.967 260.002 274.518 260.002C276.07 260.002 277.328 258.742 277.328 257.188V235.534Z" fill="#AAABB0"/>
<path d="M205.246 229.484C205.246 227.93 203.988 226.67 202.436 226.67C200.885 226.67 199.627 227.93 199.627 229.484V257.182C199.627 258.736 200.885 259.996 202.436 259.996C203.988 259.996 205.246 258.736 205.246 257.182V229.484Z" fill="#AAABB0"/>
<path d="M284.498 69.4654C284.498 69.4654 290.117 67.0735 290.96 69.4654C291.803 71.8573 292.225 92.5277 292.225 92.5277H286.884L284.498 69.4654Z" fill="#AAABB0"/>
<path d="M222.954 69.4654C222.954 69.4654 217.331 67.0735 216.488 69.4654C215.645 71.8573 215.224 92.5277 215.224 92.5277H220.564L222.954 69.4654Z" fill="#AAABB0"/>
<path d="M223.793 48.9336L222.95 66.09H226.744V48.5117L223.793 48.9336Z" fill="#AAABB0"/>
<path d="M220.564 92.527L221.69 67.7773C221.69 67.7773 221.268 62.2933 234.614 63.9807C247.96 65.6681 287.027 69.0428 287.027 69.0428V92.527H220.564Z" fill="#33323D"/>
<path d="M273.959 222.878L271.852 260.701C271.852 260.701 240.937 277.858 203.421 261.545L206.793 221.752L273.959 222.878Z" fill="#33323D"/>
<path d="M244.592 73.9615L245.292 98.4286H288.852L286.323 66.0898L244.592 73.9615Z" fill="#444053"/>
<path d="M249.018 206.705H207.986V258.731H249.018V206.705Z" fill="#4C4981"/>
<path d="M233.914 227.94C233.914 227.94 239.816 223.3 240.798 224.704C241.78 226.109 237.291 232.158 235.461 231.454C233.632 230.749 233.914 227.94 233.914 227.94Z" fill="#FFB9B9"/>
<path d="M397.703 91.1191H128.359V226.11H397.703V91.1191Z" fill="#504F60"/>
<path d="M220.704 47.952C220.704 47.952 218.597 28.2645 220.704 25.8768C222.812 23.4892 258.22 0.844443 290.96 27.4208C290.96 27.4208 294.05 27.5642 293.49 34.5921C293.159 39.0402 293.182 43.5075 293.557 47.952C293.557 47.952 223.094 53.0142 220.704 47.952Z" fill="#33323D"/>
<path opacity="0.1" d="M220.704 47.952C220.704 47.952 218.597 28.2645 220.704 25.8768C222.812 23.4892 258.22 0.844443 290.96 27.4208C290.96 27.4208 294.05 27.5642 293.49 34.5921C293.159 39.0402 293.182 43.5075 293.557 47.952C293.557 47.952 223.094 53.0142 220.704 47.952Z" fill="black"/>
<path d="M220.704 50.4833C220.704 50.4833 218.597 30.7957 220.704 28.4081C222.812 26.0204 258.22 3.37569 290.96 29.952C290.96 29.952 294.05 30.0954 293.49 37.1234C293.159 41.5715 293.182 46.0388 293.557 50.4833C293.557 50.4833 223.094 55.5454 220.704 50.4833Z" fill="#33323D"/>
<path d="M294.753 41.4844C294.753 41.4844 297 49.9213 296.3 51.3261C295.601 52.7308 295.727 56.6708 295.727 56.6708C295.727 56.6708 295.879 59.2019 294.753 59.4803C293.628 59.7588 292.646 59.9022 293.556 60.7459C294.467 61.5896 293.556 62.8551 293.556 62.8551C293.556 62.8551 293.063 64.8251 293.556 66.0907C294.049 67.3562 290.673 67.8835 290.96 69.4654C291.246 71.0474 292.19 75.5105 290.96 75.6539C289.729 75.7974 291.381 81.2771 290.272 81.2771C289.164 81.2771 288.376 91.1188 288.376 91.1188C288.376 91.1188 280.577 84.5127 275.38 86.3393C275.38 86.3393 275.801 80.8553 277.488 78.8853C279.174 76.9152 278.664 71.8573 278.664 71.8573L287.027 46.6857L294.753 41.4844Z" fill="#4C4981"/>
<path d="M253.022 157.822C251.197 159.843 249.228 149.052 249.228 149.052C249.228 149.052 244.031 156.224 240.659 151.444C238.323 148.133 240.166 138.751 241.502 133.305C242.1 130.883 242.606 129.238 242.606 129.238L250.194 127.973C250.194 127.973 250.219 129.626 250.388 131.634C250.615 134.347 251.108 137.713 252.158 138.519C254.008 139.915 254.852 155.785 253.022 157.822Z" fill="#AE6E79"/>
<path opacity="0.1" d="M249.089 31.4986C249.089 31.4986 235.879 31.3594 232.65 38.3874C229.421 45.4153 229.278 47.8114 228.013 48.9335C226.748 50.0556 241.78 55.9657 241.78 55.9657L242.484 80.1501C242.484 80.1501 245.435 77.1592 250.211 78.5134C254.987 79.8675 261.031 78.5134 261.031 78.5134C261.031 78.5134 260.749 78.0029 264.686 78.5134C268.623 79.0238 281.126 72.4177 281.126 72.4177C281.126 72.4177 281.332 61.8378 281.054 59.5851C280.776 57.3325 289.973 40.7792 289.973 40.7792C289.973 40.7792 297.139 33.8905 289.695 31.4986C289.695 31.4986 287.061 27.5248 280.283 27.5628C273.504 27.6007 249.089 31.4986 249.089 31.4986Z" fill="black"/>
<path d="M249.089 31.0767C249.089 31.0767 235.879 30.9375 232.65 37.9655C229.421 44.9934 229.278 47.3895 228.013 48.5116C226.748 49.6337 241.78 55.5438 241.78 55.5438L242.484 79.7283C242.484 79.7283 245.435 76.7374 250.211 78.0915C254.987 79.4456 261.031 78.0915 261.031 78.0915C261.031 78.0915 260.749 77.5811 264.686 78.0915C268.623 78.6019 281.126 71.9958 281.126 71.9958C281.126 71.9958 286.041 63.9807 285.762 61.7323C285.484 59.4839 295.597 42.4666 295.597 42.4666C295.597 42.4666 297.144 33.4686 289.695 31.0767C289.695 31.0767 287.061 27.1029 280.283 27.1409C273.504 27.1789 249.089 31.0767 249.089 31.0767Z" fill="#4C4981"/>
<path opacity="0.1" d="M250.422 131.621C247.526 130.719 242.982 132.71 241.536 133.309C242.135 130.887 242.641 129.242 242.641 129.242L250.228 127.977C250.228 127.977 250.241 129.63 250.422 131.621Z" fill="black"/>
<path d="M232.085 48.5117H228.013C228.013 48.5117 227.17 57.0921 228.013 59.6231C228.856 62.1542 229.278 61.7872 228.996 63.6602C228.713 65.5332 230.964 68.4018 230.964 68.4018C230.964 68.4018 231.242 75.4719 232.65 78.1042C234.058 80.7366 231.103 92.5398 231.103 92.5398C231.909 94.5774 233.101 96.4396 234.614 98.0238C237.005 100.411 238.269 109.27 237.565 112.645C236.861 116.02 239.534 117.285 239.534 117.285C239.534 117.285 240.659 133.037 241.081 133.037C241.502 133.037 249.65 128.819 252.18 132.472L250.211 117.99L250.354 90.0087C250.354 90.0087 247.682 86.4905 249.09 83.3984C250.498 80.3063 247.964 72.9915 247.964 72.9915L244.31 56.6829L232.085 48.5117Z" fill="#4C4981"/>
<path d="M206.793 270.826C206.793 270.826 200.892 269.561 200.753 270.826C200.614 272.092 193.726 285.03 202.3 288.826C210.874 292.623 233.771 300.777 271.009 290.231C271.009 290.231 273.395 291.075 272.834 285.873C272.274 280.672 272.274 274.905 272.274 274.905C272.274 274.905 266.65 273.357 262.435 273.922C258.22 274.488 221.547 281.938 206.793 270.826Z" fill="#33323D"/>
<path opacity="0.1" d="M206.793 270.826C206.793 270.826 200.892 269.561 200.753 270.826C200.614 272.092 193.726 285.03 202.3 288.826C210.874 292.623 233.771 300.777 271.009 290.231C271.009 290.231 273.395 291.075 272.834 285.873C272.274 280.672 272.274 274.905 272.274 274.905C272.274 274.905 266.65 273.357 262.435 273.922C258.22 274.488 221.547 281.938 206.793 270.826Z" fill="black"/>
<path d="M206.793 269.139C206.793 269.139 200.892 267.873 200.753 269.139C200.614 270.404 193.726 283.342 202.3 287.139C210.874 290.935 233.771 299.09 271.009 288.544C271.009 288.544 273.395 289.387 272.834 284.186C272.274 278.985 272.274 273.218 272.274 273.218C272.274 273.218 266.65 271.67 262.435 272.235C258.22 272.8 221.547 280.25 206.793 269.139Z" fill="#33323D"/>
<path d="M241.207 53.5663C240.844 55.6292 240.022 57.6119 239.896 59.7C239.769 61.7881 240.574 64.1631 242.501 64.9815C243.038 65.1422 243.559 65.3541 244.056 65.6143C244.798 66.1163 245.101 67.0612 245.257 67.9471C245.464 69.0908 245.514 70.2575 245.405 71.4147C245.3 72.579 245.051 73.8319 245.624 74.8485C246.632 76.6498 249.258 76.384 251.256 75.8778L250.569 81.2057C250.514 81.6276 250.48 82.1043 250.788 82.3911C250.933 82.4936 251.098 82.5658 251.271 82.6035C251.445 82.6412 251.625 82.6436 251.8 82.6105C253.536 82.5008 255.324 82.2603 256.812 81.3449C258.3 80.4295 259.408 78.7253 259.126 77.0084C258.797 75.0172 256.74 73.4353 257.018 71.4358C257.233 69.8876 258.746 68.9047 259.741 67.7151C261.541 65.5383 261.638 62.2311 260.226 59.7675C258.814 57.3039 256.087 55.7768 253.279 55.4984C251.724 55.3423 250.105 55.5322 248.642 54.9922C248.133 54.8054 247.675 54.5033 247.302 54.1096C246.929 53.7159 246.652 53.2412 246.493 52.7227" fill="#444053"/>
<path d="M192.184 241.158L193.655 237.952C193.655 237.952 201.596 230.548 203.422 230.029C205.247 229.51 212.695 227.249 213.821 227.249C214.946 227.249 235.462 226.123 235.462 226.123L237.848 231.75L212.101 237.407L203.422 243.735L192.184 241.158Z" fill="#767D9F"/>
<path d="M254.043 154.818L252.698 165.174L252.18 169.161L246.139 170.005C246.139 170.005 245.486 168.604 244.563 166.453C241.76 159.922 236.482 146.457 239.542 144.133C243.61 141.036 244.601 151.304 244.601 151.304L249.238 149.051L254.043 154.818Z" fill="#FFB9B9"/>
<path d="M253.035 174.084H222.529V220.204H253.035V174.084Z" fill="white"/>
<path opacity="0.1" d="M253.035 174.084H222.529V220.204H253.035V174.084Z" fill="black"/>
<path d="M266.746 176.58L236.568 172.115L229.828 217.74L260.006 222.205L266.746 176.58Z" fill="white"/>
<path d="M254.942 178.765L239.409 176.467L235.94 199.949L251.473 202.247L254.942 178.765Z" fill="#39B6FB"/>
<path d="M253.093 209.415L234.274 206.631L233.521 211.73L252.34 214.515L253.093 209.415Z" fill="#39B6FB"/>
<path opacity="0.1" d="M261.032 57.7214C270.77 57.7214 278.665 49.821 278.665 40.0755C278.665 30.33 270.77 22.4297 261.032 22.4297C251.294 22.4297 243.399 30.33 243.399 40.0755C243.399 49.821 251.294 57.7214 261.032 57.7214Z" fill="black"/>
<path d="M261.032 57.2995C270.77 57.2995 278.665 49.3992 278.665 39.6536C278.665 29.9081 270.77 22.0078 261.032 22.0078C251.294 22.0078 243.399 29.9081 243.399 39.6536C243.399 49.3992 251.294 57.2995 261.032 57.2995Z" fill="#AE6E79"/>
<path d="M246.493 52.7311C246.373 52.2766 246.416 51.7944 246.615 51.3685C247.285 49.9722 249.195 49.8499 250.742 49.9216C254.38 50.0903 258.372 50.1114 261.217 47.8123C262.397 46.8674 263.717 44.4924 265.432 44.9438C266.958 45.3445 267.595 47.4158 269.184 47.8756C270.335 48.2089 271.528 47.6773 272.699 47.4538C274.386 47.1205 276.114 47.3989 277.825 47.4116C279.537 47.4242 281.396 47.0994 282.563 45.8465C284.14 44.1591 283.883 41.5226 283.743 39.2109C283.571 36.2247 283.773 33.2287 284.346 30.2931C284.92 27.3739 285.801 24.1088 284.19 21.6072C282.656 19.2238 279.478 18.5699 277.307 16.7433C275.275 15.056 274.2 12.3519 272.054 10.7869C269.352 8.81685 265.681 9.09949 262.359 9.44118L255.151 10.2089C253.292 10.4072 251.357 10.6308 249.827 11.7402C247.066 13.7398 246.687 17.895 244.073 20.0844C242.91 21.0546 241.422 21.5355 240.094 22.2611C238.766 22.9867 237.485 24.1341 237.333 25.6359C237.207 26.9014 237.89 28.0699 238.223 29.2891C239.011 32.1998 237.78 35.1949 236.992 38.1267C236.204 41.0586 236.052 44.619 238.341 46.5637C238.804 46.9602 239.344 47.2639 239.795 47.6773C241.342 49.0905 241.553 51.474 241.194 53.5326" fill="#444053"/>
<path d="M262.468 61.6952C262.701 61.6952 262.89 61.223 262.89 60.6406C262.89 60.0581 262.701 59.5859 262.468 59.5859C262.236 59.5859 262.047 60.0581 262.047 60.6406C262.047 61.223 262.236 61.6952 262.468 61.6952Z" fill="#444053"/>
<path d="M262.468 66.0917C262.701 66.0917 262.89 65.6195 262.89 65.037C262.89 64.4546 262.701 63.9824 262.468 63.9824C262.236 63.9824 262.047 64.4546 262.047 65.037C262.047 65.6195 262.236 66.0917 262.468 66.0917Z" fill="#444053"/>
<path d="M253.119 157.792C253.57 157.273 253.869 155.94 254.042 154.181L249.018 147.912C249.018 147.912 251.146 160.065 253.119 157.792Z" fill="#AE6E79"/>
<path opacity="0.1" d="M258.784 261.405C258.784 261.405 250.539 274.161 224.78 272.795C200.512 271.529 188.667 259.578 189.232 255.36C189.797 251.141 187.685 240.873 192.883 237.92C195.897 236.212 199.863 237.224 202.662 238.38C203.629 238.773 204.688 238.884 205.715 238.7C206.742 238.515 207.696 238.043 208.467 237.338C211.025 235.031 215.797 232.432 223.33 234.478C224.299 234.737 225.321 234.718 226.28 234.423C229.416 233.466 236.882 231.804 242.298 235.495C243.154 236.085 244.161 236.42 245.2 236.46C246.239 236.499 247.268 236.242 248.166 235.718L248.242 235.672C250.771 234.124 262.574 248.749 262.574 248.749C262.574 248.749 263.139 260 258.784 261.405Z" fill="black"/>
<path d="M258.784 261.827C258.784 261.827 250.539 274.583 224.78 273.216C200.512 271.951 188.667 260 189.232 255.781C189.797 251.563 187.685 241.295 192.883 238.342C195.897 236.634 199.863 237.646 202.662 238.802C203.629 239.195 204.688 239.306 205.715 239.122C206.742 238.937 207.696 238.465 208.467 237.76C211.025 235.453 215.797 232.854 223.33 234.9C224.299 235.159 225.321 235.14 226.28 234.845C229.416 233.888 236.882 232.226 242.298 235.917C243.154 236.507 244.161 236.842 245.2 236.881C246.239 236.921 247.268 236.664 248.166 236.14L248.242 236.094C250.771 234.546 262.574 249.171 262.574 249.171C262.574 249.171 263.139 260.422 258.784 261.827Z" fill="#767D9F"/>
<path opacity="0.1" d="M224.78 266.822C234.055 266.822 241.574 259.297 241.574 250.015C241.574 240.733 234.055 233.209 224.78 233.209C215.505 233.209 207.986 240.733 207.986 250.015C207.986 259.297 215.505 266.822 224.78 266.822Z" fill="black"/>
<path d="M224.78 267.244C234.055 267.244 241.574 259.719 241.574 250.437C241.574 241.155 234.055 233.631 224.78 233.631C215.505 233.631 207.986 241.155 207.986 250.437C207.986 259.719 215.505 267.244 224.78 267.244Z" fill="#FFB9B9"/>
<path d="M219.966 235.91C218.204 236.387 216.467 237.298 215.608 238.795C215.089 239.698 214.908 240.782 214.157 241.533C213.095 242.6 211.304 242.621 209.866 243.22C208.429 243.82 207.48 245.929 208.888 246.595C207.421 246.671 206.334 248.025 206.153 249.371C205.971 250.717 206.481 252.058 206.975 253.341C208.585 257.492 210.317 261.824 213.867 264.777C219.65 269.594 228.367 269.371 236.136 268.86C236.771 268.881 237.4 268.736 237.961 268.438C238.804 267.882 238.91 266.814 239.049 265.878C239.635 261.879 241.801 258.247 243.218 254.429C244.634 250.611 245.216 246.127 242.83 242.748C239.319 237.736 225.876 234.307 219.966 235.91Z" fill="#B96B6B"/>
<path opacity="0.1" d="M252.698 165.173L252.18 169.16L246.139 170.004C246.139 170.004 245.486 168.603 244.562 166.452L252.601 164.941L252.698 165.173Z" fill="black"/>
<path d="M259.063 253.251L262.578 249.171L261.874 226.674C262.221 225.051 262.456 223.407 262.578 221.751C262.717 219.36 260.821 214.019 260.821 214.019C261.115 212.95 261.514 211.913 262.013 210.923C262.857 209.235 260.825 205.439 260.825 205.439C260.825 205.439 257.798 195.597 259.063 190.674C260.327 185.751 258.755 182.942 258.755 182.942C258.755 182.942 257.52 177.458 257.659 175.209C257.798 172.961 254.847 170.847 254.847 170.847L252.601 165.363L243.61 167.051V186.034C243.61 186.034 244.17 204.173 243.61 207.691C243.049 211.21 244.731 214.58 244.731 214.58C244.731 214.58 243.749 219.781 244.592 221.751C245.435 223.722 247.121 228.501 247.121 228.501C246.808 230.209 246.905 231.967 247.403 233.631C248.246 236.094 247.403 237.499 247.403 237.499L259.063 253.251Z" fill="#767D9F"/>
<g opacity="0.1">
<path opacity="0.1" d="M284.359 28.9045C283.884 31.3738 283.67 33.8865 283.723 36.4007C283.759 34.3101 283.977 32.2267 284.376 30.1742C284.747 28.3012 285.219 26.2848 285.118 24.416C284.962 25.9271 284.709 27.4264 284.359 28.9045Z" fill="black"/>
<path opacity="0.1" d="M239.808 46.3188C239.357 45.8969 238.817 45.6016 238.354 45.2009C237.123 44.1505 236.604 42.6276 236.503 40.9824C236.381 43.0917 236.811 45.1334 238.354 46.4664C238.817 46.8672 239.357 47.1709 239.808 47.5843C240.751 48.518 241.297 49.7798 241.334 51.1067C241.456 49.335 241.098 47.4915 239.808 46.3188Z" fill="black"/>
<path opacity="0.1" d="M238.464 30.5655C238.537 29.6745 238.46 28.7775 238.236 27.9121C237.991 27.0093 237.553 26.1277 237.393 25.2207C237.393 25.3177 237.359 25.419 237.347 25.5244C237.224 26.79 237.907 27.9585 238.236 29.1776C238.357 29.6317 238.433 30.0965 238.464 30.5655Z" fill="black"/>
<path opacity="0.1" d="M282.577 44.4583C281.409 45.7239 279.55 46.036 277.839 46.0234C276.127 46.0107 274.395 45.7323 272.713 46.0698C271.541 46.306 270.348 46.8333 269.197 46.4916C267.608 46.0318 266.972 43.9606 265.45 43.5598C263.717 43.1042 262.398 45.4792 261.235 46.4241C258.389 48.7021 254.397 48.681 250.76 48.5334C249.213 48.4617 247.303 48.584 246.637 49.9845C246.434 50.4092 246.39 50.893 246.515 51.3471L241.364 52.157C241.344 52.5814 241.298 53.0041 241.225 53.4226L246.515 52.5789C246.39 52.1248 246.434 51.641 246.637 51.2163C247.303 49.8158 249.213 49.6935 250.76 49.7652C254.397 49.9339 258.389 49.955 261.235 47.6559C262.415 46.711 263.734 44.336 265.45 44.7916C266.972 45.1881 267.608 47.2636 269.197 47.7234C270.348 48.0525 271.541 47.5252 272.713 47.3016C274.399 46.9641 276.127 47.2425 277.839 47.2552C279.55 47.2678 281.409 46.943 282.577 45.6901C283.744 44.4373 283.913 42.5685 283.841 40.7461C283.791 42.1593 283.5 43.467 282.577 44.4583Z" fill="black"/>
</g>
<g opacity="0.1">
<path opacity="0.1" d="M243.555 64.7206C243.059 64.459 242.538 64.247 242 64.0878C241.085 63.6718 240.359 62.9285 239.964 62.0039C240.28 63.4593 241.081 64.7839 242.421 65.3534C242.959 65.5126 243.48 65.7245 243.977 65.9861C244.294 66.2105 244.551 66.5107 244.723 66.8594C244.554 66.0325 244.247 65.1888 243.555 64.7206Z" fill="black"/>
<path opacity="0.1" d="M250.754 74.9845C248.811 75.478 246.273 75.7354 245.207 74.0859C245.24 74.4834 245.355 74.8697 245.544 75.2207C246.455 76.8448 248.68 76.79 250.573 76.3892L250.754 74.9845Z" fill="black"/>
<path opacity="0.1" d="M258.629 76.1406C258.899 77.8533 257.786 79.5618 256.311 80.4603C254.835 81.3589 253.035 81.6078 251.299 81.7259C251.023 81.7616 250.742 81.7298 250.481 81.6331C250.402 81.8114 250.376 82.009 250.407 82.2016C250.439 82.3942 250.525 82.5735 250.657 82.7177C250.788 82.8618 250.959 82.9644 251.148 83.013C251.337 83.0617 251.536 83.0541 251.72 82.9914C253.457 82.8817 255.244 82.6413 256.732 81.7259C258.22 80.8105 259.333 79.1062 259.046 77.3893C258.965 76.9558 258.825 76.5356 258.629 76.1406Z" fill="black"/>
<path opacity="0.1" d="M260.5 60.8691C260.758 61.8948 260.778 62.9657 260.558 64.0002C260.339 65.0346 259.887 66.0054 259.236 66.8383C258.241 68.0447 256.728 69.0108 256.513 70.559C256.441 71.2707 256.588 71.9875 256.934 72.6133C256.896 72.3518 256.896 72.0861 256.934 71.8245C257.149 70.2763 258.663 69.2934 259.657 68.1038C261.293 66.1253 261.521 63.2104 260.5 60.8691Z" fill="black"/>
</g>
<g opacity="0.1">
<path opacity="0.1" d="M209.871 243.869C211.304 243.274 213.096 243.253 214.162 242.181C214.913 241.431 215.094 240.346 215.612 239.448C216.455 237.946 218.205 237.039 219.967 236.562C225.868 234.959 239.323 238.385 242.83 243.35C243.858 244.852 244.419 246.625 244.441 248.446C244.576 246.344 244.011 244.257 242.835 242.51C239.327 237.545 225.885 234.12 219.971 235.723C218.209 236.2 216.472 237.107 215.616 238.608C215.098 239.507 214.917 240.591 214.166 241.342C213.1 242.409 211.308 242.43 209.875 243.029C208.784 243.481 207.974 244.814 208.269 245.708C208.387 245.303 208.591 244.929 208.868 244.612C209.144 244.294 209.487 244.041 209.871 243.869Z" fill="black"/>
<path opacity="0.1" d="M206.161 249.997C206.338 248.647 207.426 247.297 208.897 247.221C208.742 247.157 208.604 247.059 208.493 246.934C208.381 246.809 208.299 246.661 208.252 246.5C207.692 246.708 207.2 247.065 206.829 247.533C206.457 248.001 206.221 248.561 206.144 249.153C206.104 249.497 206.104 249.844 206.144 250.187C206.161 250.124 206.161 250.06 206.161 249.997Z" fill="black"/>
</g>
<path d="M295.453 97.125H257.094V147.186H295.453V97.125Z" fill="white"/>
<path opacity="0.1" d="M295.453 97.125H257.094V147.186H295.453V97.125Z" fill="black"/>
<path d="M310.11 100.063L272.306 106.57L280.786 155.906L318.589 149.399L310.11 100.063Z" fill="white"/>
<path d="M290.35 138.674L281.468 140.203L283.46 151.794L292.342 150.265L290.35 138.674Z" fill="#39B6FB"/>
<path d="M302.64 136.557L293.758 138.086L295.75 149.677L304.632 148.148L302.64 136.557Z" fill="#39B6FB"/>
<path d="M311.325 119.575L280.177 124.928L282.175 136.571L313.323 131.218L311.325 119.575Z" fill="#39B6FB"/>
<path d="M308.728 105.679L277.58 111.031L278.026 113.629L309.174 108.276L308.728 105.679Z" fill="#39B6FB"/>
<path d="M309.751 110.456L278.603 115.809L279.048 118.406L310.197 113.054L309.751 110.456Z" fill="#39B6FB"/>
<path d="M278.664 83.5254C278.664 83.5254 261.031 101.243 269.884 105.744C278.736 110.245 284.498 90.7685 284.498 90.7685L285.897 86.3391L278.664 83.5254Z" fill="#AE6E79"/>
<path opacity="0.1" d="M277.121 81.9601L274.941 86.7776C274.941 86.7776 285.69 88.2878 287.937 91.5402L286.605 83.04L285.024 79.4121L277.121 81.9601Z" fill="black"/>
<path d="M277.543 81.5382L275.363 86.3557C275.363 86.3557 286.112 87.8659 288.359 91.1183L287.027 82.6181L285.446 78.9902L277.543 81.5382Z" fill="#4C4981"/>
<path d="M342.61 170.113L342.378 170.274L342.698 170.417L343.044 170.387L343.086 170.147L342.61 170.113Z" fill="#464A5F"/>
<path opacity="0.1" d="M342.61 170.113L342.378 170.274L342.698 170.417L343.044 170.387L343.086 170.147L342.61 170.113Z" fill="black"/>
<path d="M342.61 170.114L342.374 170.266L342.188 170.038L342.302 169.852L342.408 169.818L342.61 170.114Z" fill="#9C9CA1"/>
<path opacity="0.1" d="M342.61 170.114L342.374 170.266L342.188 170.038L342.302 169.852L342.408 169.818L342.61 170.114Z" fill="black"/>
<path d="M384.101 140.96L366.843 116.016C366.69 115.793 366.495 115.603 366.269 115.456C366.042 115.309 365.789 115.208 365.524 115.159C365.258 115.11 364.986 115.114 364.722 115.171C364.458 115.227 364.208 115.335 363.985 115.489L325.517 141.913C325.067 142.222 324.758 142.697 324.657 143.234C324.557 143.771 324.673 144.326 324.981 144.777L342.192 170.038L384.101 140.96Z" fill="#9C9CA1"/>
<path opacity="0.1" d="M384.101 140.96L366.843 116.016C366.69 115.793 366.495 115.603 366.269 115.456C366.042 115.309 365.789 115.208 365.524 115.159C365.258 115.11 364.986 115.114 364.722 115.171C364.458 115.227 364.208 115.335 363.985 115.489L325.517 141.913C325.067 142.222 324.758 142.697 324.657 143.234C324.557 143.771 324.673 144.326 324.981 144.777L342.192 170.038L384.101 140.96Z" fill="black"/>
<path d="M384.523 141.019L367.265 116.075C367.112 115.852 366.917 115.662 366.69 115.515C366.463 115.367 366.209 115.267 365.944 115.218C365.678 115.169 365.405 115.173 365.141 115.229C364.876 115.286 364.626 115.394 364.403 115.548L325.939 141.989C325.489 142.298 325.18 142.773 325.079 143.31C324.978 143.846 325.093 144.401 325.399 144.853L342.61 170.126L384.523 141.019Z" fill="#9C9CA1"/>
<path d="M398.947 145.95L384.615 141.344L342.698 170.422L357.258 175.188C357.584 175.294 357.93 175.323 358.269 175.272C358.607 175.22 358.93 175.091 359.21 174.893L399.065 146.731C399.14 146.689 399.2 146.625 399.237 146.548C399.275 146.471 399.288 146.384 399.276 146.3C399.263 146.215 399.224 146.136 399.166 146.074C399.107 146.011 399.031 145.968 398.947 145.95Z" fill="#464A5F"/>
<path opacity="0.1" d="M398.947 145.95L384.615 141.344L342.698 170.422L357.258 175.188C357.584 175.294 357.93 175.323 358.269 175.272C358.607 175.22 358.93 175.091 359.21 174.893L399.065 146.731C399.14 146.689 399.2 146.625 399.237 146.548C399.275 146.471 399.288 146.384 399.276 146.3C399.263 146.215 399.224 146.136 399.166 146.074C399.107 146.011 399.031 145.968 398.947 145.95Z" fill="black"/>
<path d="M398.858 145.66L384.526 141.049L342.609 170.127L357.169 174.885C357.494 174.993 357.84 175.023 358.179 174.972C358.518 174.922 358.841 174.792 359.121 174.594L398.976 146.432C399.048 146.389 399.105 146.325 399.141 146.249C399.177 146.173 399.189 146.089 399.176 146.006C399.164 145.923 399.127 145.846 399.07 145.784C399.013 145.723 398.94 145.679 398.858 145.66Z" fill="#464A5F"/>
<g opacity="0.1">
<path opacity="0.1" d="M377.752 139.904L376.694 138.386C376.631 138.298 376.536 138.238 376.429 138.218C376.322 138.198 376.212 138.221 376.121 138.28L374.549 139.331C374.46 139.393 374.399 139.487 374.378 139.593C374.357 139.699 374.377 139.809 374.435 139.9L375.409 141.398C375.47 141.487 375.563 141.55 375.669 141.573C375.775 141.596 375.885 141.577 375.978 141.52L377.634 140.478C377.724 140.416 377.787 140.322 377.809 140.215C377.831 140.108 377.811 139.997 377.752 139.904Z" fill="black"/>
<path opacity="0.1" d="M374.928 141.861L373.866 140.347C373.802 140.259 373.707 140.198 373.6 140.179C373.494 140.159 373.383 140.182 373.293 140.241L371.725 141.3C371.636 141.362 371.574 141.455 371.552 141.561C371.53 141.667 371.549 141.778 371.606 141.87L372.58 143.367C372.64 143.458 372.733 143.521 372.839 143.545C372.945 143.568 373.056 143.55 373.149 143.494L374.81 142.452C374.857 142.421 374.897 142.381 374.929 142.335C374.96 142.288 374.982 142.236 374.993 142.181C375.004 142.126 375.004 142.07 374.993 142.015C374.982 141.96 374.96 141.907 374.928 141.861Z" fill="black"/>
<path opacity="0.1" d="M371.961 143.916L370.898 142.401C370.835 142.313 370.74 142.253 370.633 142.234C370.526 142.214 370.416 142.236 370.325 142.296L368.753 143.355C368.663 143.417 368.602 143.512 368.58 143.619C368.559 143.726 368.58 143.837 368.639 143.928L369.613 145.426C369.674 145.516 369.767 145.578 369.873 145.601C369.979 145.624 370.089 145.605 370.182 145.548L371.838 144.506C371.886 144.476 371.926 144.437 371.958 144.39C371.99 144.344 372.012 144.292 372.024 144.237C372.035 144.182 372.035 144.125 372.024 144.07C372.014 144.015 371.992 143.962 371.961 143.916Z" fill="black"/>
<path opacity="0.1" d="M368.954 146L367.892 144.482C367.829 144.395 367.734 144.335 367.629 144.316C367.523 144.296 367.414 144.318 367.323 144.376L365.751 145.439C365.663 145.501 365.602 145.595 365.58 145.701C365.559 145.807 365.58 145.917 365.637 146.009L366.611 147.506C366.671 147.595 366.763 147.658 366.868 147.682C366.973 147.705 367.083 147.688 367.176 147.633L368.836 146.587C368.883 146.556 368.923 146.516 368.954 146.47C368.985 146.424 369.006 146.372 369.017 146.318C369.028 146.263 369.028 146.207 369.018 146.153C369.007 146.098 368.985 146.046 368.954 146Z" fill="black"/>
<path opacity="0.1" d="M365.954 148.08L364.891 146.565C364.828 146.477 364.733 146.417 364.626 146.398C364.519 146.378 364.409 146.4 364.318 146.46L362.75 147.519C362.661 147.58 362.599 147.674 362.577 147.78C362.555 147.886 362.575 147.996 362.632 148.088L363.606 149.586C363.666 149.676 363.759 149.74 363.865 149.763C363.971 149.787 364.082 149.769 364.175 149.712L365.835 148.666C365.882 148.636 365.922 148.596 365.953 148.55C365.984 148.504 366.005 148.452 366.016 148.398C366.027 148.343 366.027 148.287 366.017 148.232C366.006 148.178 365.984 148.126 365.954 148.08Z" fill="black"/>
<path opacity="0.1" d="M363.083 150.349L361.764 148.467C361.75 148.446 361.732 148.428 361.711 148.414C361.69 148.4 361.666 148.391 361.642 148.386C361.617 148.381 361.591 148.382 361.567 148.387C361.542 148.392 361.519 148.402 361.498 148.417L359.568 149.72C359.546 149.734 359.528 149.751 359.514 149.772C359.499 149.793 359.489 149.817 359.484 149.841C359.479 149.866 359.479 149.892 359.484 149.916C359.489 149.941 359.499 149.965 359.513 149.986L360.723 151.846C360.75 151.889 360.794 151.919 360.843 151.93C360.893 151.941 360.945 151.932 360.988 151.905L363.028 150.64C363.053 150.626 363.074 150.607 363.09 150.584C363.107 150.561 363.118 150.535 363.123 150.507C363.128 150.479 363.128 150.451 363.121 150.423C363.114 150.396 363.101 150.37 363.083 150.349Z" fill="black"/>
<path opacity="0.1" d="M360.082 152.429L358.754 150.548C358.739 150.526 358.721 150.508 358.7 150.494C358.678 150.481 358.654 150.471 358.629 150.466C358.604 150.462 358.579 150.462 358.554 150.467C358.529 150.472 358.505 150.482 358.484 150.497L356.553 151.8C356.512 151.829 356.484 151.873 356.474 151.923C356.465 151.973 356.475 152.024 356.503 152.066L357.713 153.927C357.725 153.949 357.743 153.968 357.763 153.983C357.784 153.998 357.808 154.009 357.832 154.014C357.857 154.02 357.883 154.02 357.908 154.015C357.933 154.01 357.957 154 357.978 153.986L360.014 152.72C360.04 152.708 360.063 152.69 360.081 152.668C360.099 152.645 360.112 152.619 360.119 152.591C360.125 152.563 360.125 152.534 360.119 152.506C360.112 152.478 360.1 152.451 360.082 152.429Z" fill="black"/>
<path opacity="0.1" d="M357.422 154.273L356.102 152.408C356.073 152.367 356.028 152.34 355.979 152.331C355.929 152.322 355.878 152.333 355.837 152.362L353.906 153.661C353.864 153.69 353.834 153.734 353.824 153.785C353.814 153.835 353.824 153.887 353.851 153.931L355.061 155.791C355.09 155.833 355.133 155.863 355.182 155.874C355.232 155.885 355.283 155.876 355.327 155.85L357.367 154.585C357.395 154.571 357.419 154.552 357.438 154.527C357.457 154.502 357.47 154.473 357.475 154.443C357.48 154.412 357.478 154.381 357.469 154.351C357.46 154.322 357.444 154.295 357.422 154.273Z" fill="black"/>
<path opacity="0.1" d="M354.446 156.33L353.126 154.449C353.097 154.408 353.053 154.381 353.003 154.372C352.953 154.363 352.902 154.374 352.861 154.403L350.93 155.702C350.909 155.716 350.89 155.734 350.876 155.755C350.862 155.776 350.852 155.8 350.847 155.825C350.842 155.851 350.841 155.876 350.846 155.902C350.851 155.927 350.861 155.951 350.875 155.972L352.085 157.832C352.114 157.874 352.157 157.904 352.206 157.915C352.256 157.926 352.307 157.917 352.351 157.891L354.391 156.626C354.416 156.611 354.437 156.592 354.453 156.569C354.47 156.545 354.481 156.519 354.486 156.491C354.491 156.463 354.49 156.434 354.483 156.406C354.476 156.378 354.464 156.353 354.446 156.33Z" fill="black"/>
<path opacity="0.1" d="M351.563 158.313L350.243 156.432C350.229 156.411 350.211 156.393 350.19 156.379C350.169 156.365 350.146 156.356 350.121 156.351C350.096 156.346 350.071 156.347 350.046 156.352C350.022 156.357 349.998 156.367 349.978 156.381L348.047 157.685C348.026 157.699 348.008 157.716 347.993 157.737C347.979 157.758 347.969 157.781 347.964 157.806C347.959 157.831 347.959 157.856 347.964 157.881C347.968 157.906 347.978 157.93 347.992 157.951L349.202 159.811C349.23 159.854 349.273 159.884 349.323 159.895C349.373 159.906 349.425 159.897 349.468 159.87L351.508 158.604C351.532 158.591 351.554 158.571 351.57 158.549C351.586 158.526 351.598 158.499 351.603 158.472C351.608 158.444 351.607 158.415 351.6 158.388C351.593 158.361 351.58 158.335 351.563 158.313Z" fill="black"/>
<path opacity="0.1" d="M348.679 160.329L347.372 158.443C347.343 158.402 347.299 158.375 347.249 158.366C347.2 158.358 347.149 158.368 347.107 158.397L345.176 159.696C345.155 159.71 345.137 159.728 345.122 159.749C345.108 159.771 345.098 159.794 345.093 159.82C345.088 159.845 345.088 159.871 345.093 159.896C345.097 159.921 345.107 159.945 345.122 159.966L346.331 161.826C346.36 161.868 346.403 161.898 346.452 161.909C346.502 161.92 346.553 161.911 346.597 161.885L348.637 160.62C348.661 160.605 348.681 160.585 348.696 160.561C348.711 160.538 348.721 160.512 348.725 160.484C348.729 160.456 348.727 160.428 348.719 160.401C348.711 160.375 348.698 160.35 348.679 160.329Z" fill="black"/>
<path opacity="0.1" d="M345.796 162.325L344.477 160.444C344.463 160.423 344.445 160.405 344.424 160.391C344.403 160.377 344.379 160.367 344.354 160.363C344.33 160.358 344.304 160.358 344.28 160.363C344.255 160.369 344.232 160.379 344.211 160.393L342.281 161.688C342.259 161.702 342.241 161.72 342.227 161.74C342.212 161.761 342.202 161.785 342.197 161.809C342.192 161.834 342.192 161.86 342.197 161.885C342.202 161.909 342.212 161.933 342.226 161.954L343.435 163.814C343.463 163.857 343.507 163.887 343.556 163.898C343.606 163.909 343.658 163.9 343.701 163.873L345.741 162.608C345.764 162.594 345.784 162.575 345.8 162.553C345.816 162.53 345.826 162.505 345.831 162.479C345.837 162.452 345.836 162.425 345.83 162.398C345.824 162.372 345.812 162.347 345.796 162.325Z" fill="black"/>
<path opacity="0.1" d="M375.855 137.158L374.793 135.64C374.729 135.552 374.634 135.491 374.527 135.472C374.42 135.452 374.31 135.475 374.219 135.534L372.664 136.597C372.575 136.659 372.513 136.752 372.491 136.858C372.469 136.964 372.489 137.075 372.546 137.167L373.52 138.664C373.581 138.754 373.674 138.817 373.78 138.84C373.886 138.862 373.996 138.843 374.089 138.787L375.75 137.745C375.841 137.681 375.904 137.583 375.923 137.473C375.943 137.363 375.919 137.25 375.855 137.158Z" fill="black"/>
<path opacity="0.1" d="M371.704 131.155L370.641 129.628C370.578 129.541 370.483 129.482 370.378 129.462C370.272 129.443 370.163 129.464 370.072 129.523L368.5 130.581C368.411 130.643 368.349 130.737 368.327 130.843C368.305 130.949 368.325 131.059 368.382 131.151L369.356 132.648C369.416 132.739 369.509 132.802 369.615 132.826C369.721 132.85 369.832 132.831 369.925 132.775L371.585 131.733C371.677 131.671 371.74 131.576 371.762 131.468C371.784 131.36 371.763 131.248 371.704 131.155Z" fill="black"/>
<path opacity="0.1" d="M373.027 139.115L371.965 137.601C371.901 137.514 371.807 137.454 371.701 137.435C371.595 137.415 371.486 137.437 371.395 137.495L369.823 138.554C369.735 138.616 369.674 138.71 369.653 138.816C369.632 138.922 369.652 139.032 369.709 139.124L370.679 140.621C370.739 140.712 370.832 140.775 370.938 140.799C371.044 140.822 371.155 140.804 371.248 140.748L372.909 139.706C372.956 139.675 372.996 139.635 373.027 139.589C373.059 139.542 373.081 139.49 373.092 139.435C373.103 139.38 373.103 139.324 373.091 139.269C373.08 139.214 373.058 139.161 373.027 139.115Z" fill="black"/>
<path opacity="0.1" d="M370.059 141.17L368.997 139.655C368.933 139.567 368.838 139.507 368.731 139.487C368.624 139.468 368.514 139.49 368.423 139.55L366.855 140.596C366.765 140.658 366.703 140.752 366.681 140.859C366.659 140.966 366.679 141.077 366.737 141.17L367.711 142.667C367.772 142.757 367.865 142.82 367.971 142.843C368.077 142.865 368.188 142.846 368.28 142.79L369.941 141.748C370.032 141.686 370.096 141.591 370.118 141.483C370.14 141.375 370.119 141.262 370.059 141.17Z" fill="black"/>
<path opacity="0.1" d="M367.053 143.254L365.995 141.735C365.932 141.647 365.836 141.587 365.73 141.567C365.623 141.548 365.513 141.57 365.422 141.63L363.85 142.706C363.761 142.768 363.7 142.862 363.679 142.968C363.658 143.074 363.678 143.184 363.736 143.275L364.709 144.773C364.77 144.862 364.864 144.925 364.969 144.948C365.075 144.971 365.186 144.952 365.279 144.895L366.935 143.853C366.983 143.822 367.025 143.782 367.057 143.735C367.089 143.688 367.111 143.635 367.122 143.579C367.133 143.523 367.133 143.465 367.121 143.409C367.109 143.353 367.086 143.301 367.053 143.254Z" fill="black"/>
<path opacity="0.1" d="M368.942 133.209L367.88 131.694C367.816 131.607 367.722 131.548 367.616 131.529C367.51 131.509 367.401 131.531 367.31 131.589L365.738 132.648C365.649 132.709 365.587 132.803 365.565 132.909C365.543 133.015 365.563 133.125 365.62 133.217L366.594 134.715C366.654 134.805 366.747 134.869 366.853 134.892C366.959 134.916 367.07 134.898 367.163 134.841L368.824 133.799C368.871 133.769 368.911 133.729 368.942 133.683C368.974 133.636 368.996 133.584 369.007 133.529C369.018 133.474 369.018 133.417 369.006 133.362C368.995 133.307 368.973 133.255 368.942 133.209Z" fill="black"/>
<path opacity="0.1" d="M365.975 135.268L364.913 133.749C364.849 133.661 364.754 133.601 364.647 133.581C364.54 133.562 364.43 133.584 364.339 133.644L362.771 134.69C362.682 134.751 362.621 134.845 362.599 134.951C362.577 135.057 362.596 135.167 362.653 135.259L363.627 136.757C363.688 136.847 363.781 136.909 363.887 136.932C363.993 136.955 364.104 136.936 364.196 136.879L365.857 135.837C365.946 135.776 366.008 135.682 366.03 135.576C366.052 135.47 366.032 135.36 365.975 135.268Z" fill="black"/>
<path opacity="0.1" d="M362.969 137.348L361.907 135.834C361.844 135.746 361.75 135.686 361.644 135.666C361.538 135.645 361.429 135.666 361.338 135.724L359.766 136.8C359.677 136.862 359.616 136.956 359.595 137.062C359.574 137.168 359.594 137.278 359.652 137.37L360.625 138.867C360.686 138.958 360.779 139.021 360.885 139.045C360.991 139.068 361.102 139.05 361.194 138.994L362.851 137.947C362.899 137.917 362.941 137.877 362.973 137.83C363.005 137.782 363.027 137.729 363.038 137.673C363.049 137.617 363.049 137.56 363.037 137.504C363.025 137.448 363.002 137.395 362.969 137.348Z" fill="black"/>
<path opacity="0.1" d="M364.053 145.333L362.991 143.818C362.928 143.731 362.834 143.671 362.728 143.65C362.622 143.63 362.513 143.651 362.422 143.709L360.862 144.772C360.774 144.834 360.713 144.928 360.692 145.034C360.671 145.14 360.691 145.25 360.748 145.341L361.705 146.839C361.765 146.928 361.858 146.991 361.963 147.014C362.068 147.038 362.178 147.02 362.27 146.965L363.931 145.919C363.978 145.889 364.018 145.85 364.049 145.804C364.081 145.758 364.103 145.706 364.114 145.652C364.125 145.597 364.126 145.541 364.115 145.486C364.105 145.431 364.084 145.379 364.053 145.333Z" fill="black"/>
<path opacity="0.1" d="M361.051 147.412L359.989 145.897C359.925 145.809 359.83 145.749 359.723 145.73C359.617 145.71 359.506 145.732 359.416 145.792L357.848 146.851C357.759 146.912 357.697 147.006 357.675 147.112C357.653 147.218 357.672 147.328 357.73 147.42L358.703 148.918C358.764 149.008 358.856 149.072 358.962 149.095C359.068 149.119 359.179 149.101 359.272 149.044L360.933 148.002C360.98 147.972 361.02 147.932 361.052 147.886C361.083 147.839 361.105 147.787 361.116 147.732C361.127 147.677 361.127 147.62 361.116 147.565C361.105 147.51 361.083 147.458 361.051 147.412Z" fill="black"/>
<path opacity="0.1" d="M358.181 149.683L356.861 147.801C356.847 147.78 356.829 147.762 356.808 147.748C356.787 147.734 356.764 147.725 356.739 147.72C356.715 147.715 356.689 147.716 356.664 147.721C356.64 147.726 356.617 147.736 356.596 147.75L354.665 149.054C354.644 149.068 354.626 149.085 354.611 149.106C354.597 149.127 354.587 149.151 354.582 149.175C354.577 149.2 354.577 149.226 354.582 149.25C354.587 149.275 354.596 149.299 354.61 149.32L355.82 151.18C355.834 151.202 355.851 151.22 355.872 151.235C355.892 151.25 355.916 151.26 355.941 151.266C355.965 151.271 355.991 151.272 356.016 151.267C356.041 151.263 356.065 151.253 356.086 151.239L358.126 149.974C358.15 149.96 358.172 149.941 358.188 149.918C358.204 149.895 358.216 149.868 358.221 149.841C358.226 149.813 358.225 149.785 358.218 149.757C358.211 149.73 358.199 149.704 358.181 149.683Z" fill="black"/>
<path opacity="0.1" d="M355.52 151.526L354.201 149.64C354.171 149.6 354.127 149.572 354.077 149.563C354.028 149.555 353.977 149.566 353.935 149.594L352.009 150.893C351.966 150.922 351.937 150.967 351.927 151.017C351.917 151.068 351.926 151.12 351.954 151.163L353.164 153.024C353.192 153.066 353.235 153.095 353.285 153.106C353.334 153.117 353.386 153.109 353.429 153.083L355.469 151.817C355.495 151.804 355.517 151.785 355.534 151.762C355.551 151.739 355.562 151.712 355.567 151.684C355.572 151.656 355.57 151.627 355.562 151.6C355.554 151.572 355.54 151.547 355.52 151.526Z" fill="black"/>
<path opacity="0.1" d="M352.545 153.584L351.226 151.703C351.196 151.662 351.152 151.635 351.102 151.626C351.053 151.617 351.002 151.628 350.96 151.656L349.03 152.956C349.008 152.969 348.99 152.987 348.976 153.008C348.961 153.029 348.951 153.052 348.946 153.077C348.941 153.102 348.941 153.127 348.946 153.152C348.951 153.177 348.961 153.201 348.975 153.222L350.185 155.086C350.213 155.128 350.256 155.157 350.306 155.168C350.355 155.179 350.407 155.171 350.45 155.145L352.49 153.88C352.515 153.865 352.536 153.846 352.553 153.822C352.569 153.799 352.58 153.773 352.585 153.745C352.591 153.717 352.59 153.688 352.583 153.66C352.576 153.632 352.563 153.607 352.545 153.584Z" fill="black"/>
<path opacity="0.1" d="M349.661 155.585L348.342 153.703C348.328 153.683 348.31 153.665 348.289 153.651C348.268 153.637 348.244 153.627 348.22 153.622C348.195 153.618 348.17 153.618 348.145 153.623C348.12 153.628 348.097 153.639 348.076 153.653L346.146 154.939C346.125 154.953 346.106 154.971 346.092 154.992C346.078 155.013 346.068 155.036 346.063 155.061C346.057 155.086 346.057 155.111 346.062 155.136C346.067 155.161 346.077 155.184 346.091 155.205L347.301 157.066C347.328 157.108 347.372 157.138 347.421 157.15C347.471 157.161 347.523 157.152 347.566 157.125L349.606 155.859C349.628 155.845 349.647 155.827 349.662 155.805C349.677 155.784 349.687 155.759 349.692 155.734C349.697 155.708 349.697 155.682 349.692 155.656C349.687 155.631 349.676 155.606 349.661 155.585Z" fill="black"/>
<path opacity="0.1" d="M368.082 138.314L367.02 136.8C366.957 136.713 366.862 136.654 366.757 136.634C366.651 136.614 366.542 136.636 366.451 136.694L364.879 137.757C364.791 137.82 364.73 137.914 364.708 138.02C364.687 138.125 364.707 138.236 364.765 138.327L365.739 139.825C365.8 139.913 365.892 139.975 365.997 139.998C366.102 140.021 366.212 140.002 366.304 139.947L367.964 138.905C368.011 138.874 368.052 138.835 368.083 138.788C368.114 138.742 368.136 138.689 368.147 138.634C368.158 138.579 368.158 138.523 368.147 138.468C368.136 138.413 368.114 138.361 368.082 138.314Z" fill="black"/>
<path opacity="0.1" d="M365.077 140.399L364.014 138.88C363.951 138.792 363.856 138.732 363.749 138.712C363.642 138.692 363.532 138.715 363.441 138.774L361.873 139.838C361.784 139.899 361.722 139.993 361.7 140.099C361.678 140.205 361.698 140.315 361.755 140.407L362.729 141.905C362.789 141.995 362.882 142.059 362.988 142.082C363.094 142.106 363.205 142.087 363.298 142.031L364.959 140.985C365.005 140.954 365.045 140.915 365.076 140.869C365.107 140.823 365.128 140.771 365.139 140.716C365.15 140.662 365.15 140.606 365.14 140.551C365.129 140.497 365.107 140.445 365.077 140.399Z" fill="black"/>
<path opacity="0.1" d="M362.08 142.478L361.018 140.964C360.954 140.876 360.859 140.816 360.752 140.796C360.645 140.776 360.535 140.799 360.444 140.858L358.872 141.917C358.784 141.98 358.723 142.073 358.702 142.179C358.68 142.285 358.701 142.395 358.758 142.487L359.732 143.984C359.792 144.075 359.885 144.138 359.991 144.162C360.097 144.185 360.208 144.167 360.301 144.111L361.958 143.065C362.004 143.034 362.044 142.995 362.076 142.949C362.107 142.903 362.129 142.851 362.141 142.797C362.152 142.742 362.153 142.686 362.142 142.632C362.132 142.577 362.11 142.525 362.08 142.478Z" fill="black"/>
<path opacity="0.1" d="M359.075 144.557L358.012 143.042C357.949 142.955 357.855 142.896 357.749 142.876C357.643 142.857 357.534 142.878 357.443 142.937L355.871 143.995C355.783 144.058 355.722 144.152 355.701 144.258C355.679 144.363 355.7 144.474 355.757 144.565L356.731 146.079C356.791 146.169 356.883 146.232 356.988 146.255C357.093 146.279 357.203 146.261 357.296 146.206L358.957 145.164C359.006 145.133 359.048 145.093 359.081 145.045C359.114 144.997 359.137 144.943 359.148 144.886C359.159 144.829 359.159 144.77 359.146 144.714C359.133 144.657 359.109 144.603 359.075 144.557Z" fill="black"/>
<path opacity="0.1" d="M356.225 146.827L354.906 144.946C354.892 144.925 354.874 144.907 354.853 144.893C354.832 144.879 354.808 144.869 354.784 144.865C354.759 144.86 354.733 144.86 354.709 144.865C354.684 144.871 354.661 144.881 354.64 144.895L352.71 146.199C352.668 146.227 352.638 146.271 352.628 146.32C352.618 146.37 352.627 146.422 352.655 146.464L353.865 148.329C353.878 148.35 353.896 148.368 353.917 148.383C353.938 148.397 353.961 148.407 353.986 148.412C354.011 148.417 354.036 148.417 354.061 148.413C354.086 148.408 354.109 148.398 354.13 148.384L356.17 147.118C356.195 147.104 356.216 147.085 356.232 147.062C356.249 147.039 356.26 147.013 356.265 146.985C356.27 146.958 356.27 146.929 356.263 146.902C356.256 146.874 356.243 146.849 356.225 146.827Z" fill="black"/>
<path opacity="0.1" d="M353.548 148.669L352.228 146.783C352.198 146.742 352.153 146.715 352.103 146.706C352.052 146.697 352.001 146.708 351.959 146.737L350.032 148.036C349.99 148.065 349.96 148.11 349.95 148.16C349.94 148.21 349.95 148.263 349.977 148.306L351.187 150.167C351.215 150.209 351.258 150.239 351.308 150.25C351.358 150.262 351.41 150.253 351.453 150.226L353.493 148.96C353.517 148.946 353.539 148.927 353.555 148.904C353.571 148.881 353.582 148.855 353.588 148.827C353.593 148.8 353.592 148.771 353.585 148.744C353.578 148.716 353.565 148.691 353.548 148.669Z" fill="black"/>
<path opacity="0.1" d="M350.572 150.72L349.253 148.834C349.222 148.793 349.177 148.765 349.127 148.757C349.077 148.748 349.025 148.759 348.983 148.788L347.052 150.087C347.011 150.117 346.982 150.161 346.972 150.211C346.962 150.261 346.971 150.313 346.997 150.357L348.211 152.217C348.239 152.26 348.282 152.29 348.332 152.301C348.382 152.312 348.434 152.303 348.477 152.276L350.513 151.011C350.538 150.998 350.56 150.979 350.578 150.957C350.595 150.934 350.607 150.908 350.613 150.88C350.618 150.852 350.617 150.823 350.61 150.795C350.603 150.767 350.59 150.742 350.572 150.72Z" fill="black"/>
<path opacity="0.1" d="M347.688 152.728L346.369 150.846C346.355 150.825 346.336 150.807 346.315 150.793C346.293 150.779 346.27 150.77 346.245 150.765C346.219 150.76 346.194 150.761 346.169 150.766C346.144 150.771 346.12 150.781 346.099 150.796L344.169 152.099C344.127 152.128 344.099 152.172 344.089 152.222C344.08 152.271 344.09 152.323 344.118 152.365L345.328 154.225C345.341 154.247 345.358 154.267 345.379 154.282C345.399 154.297 345.423 154.307 345.448 154.313C345.473 154.318 345.498 154.319 345.523 154.314C345.549 154.309 345.572 154.299 345.593 154.284L347.629 153.019C347.655 153.006 347.677 152.987 347.694 152.965C347.711 152.942 347.723 152.916 347.729 152.888C347.735 152.86 347.734 152.831 347.727 152.803C347.72 152.775 347.707 152.75 347.688 152.728Z" fill="black"/>
<path opacity="0.1" d="M346.778 157.578L345.458 155.697C345.429 155.656 345.384 155.629 345.335 155.62C345.285 155.611 345.234 155.622 345.193 155.651L343.262 156.95C343.241 156.964 343.222 156.981 343.208 157.002C343.194 157.023 343.184 157.046 343.179 157.071C343.174 157.096 343.174 157.122 343.178 157.146C343.183 157.171 343.193 157.195 343.207 157.216L344.417 159.08C344.445 159.122 344.489 159.152 344.538 159.163C344.587 159.174 344.639 159.165 344.683 159.139L346.723 157.874C346.747 157.859 346.769 157.84 346.785 157.817C346.801 157.793 346.813 157.767 346.818 157.739C346.823 157.711 346.822 157.682 346.815 157.654C346.808 157.627 346.795 157.601 346.778 157.578Z" fill="black"/>
<path opacity="0.1" d="M343.896 159.579L342.576 157.698C342.562 157.677 342.544 157.659 342.523 157.645C342.502 157.631 342.479 157.621 342.454 157.617C342.429 157.612 342.404 157.612 342.379 157.617C342.355 157.623 342.331 157.633 342.311 157.647L340.38 158.95C340.359 158.964 340.341 158.982 340.326 159.003C340.312 159.024 340.302 159.047 340.297 159.072C340.292 159.097 340.292 159.122 340.297 159.147C340.301 159.172 340.311 159.195 340.325 159.216L341.535 161.077C341.563 161.119 341.606 161.149 341.656 161.161C341.706 161.172 341.758 161.163 341.801 161.136L343.841 159.87C343.865 159.856 343.887 159.837 343.903 159.814C343.919 159.791 343.931 159.765 343.936 159.737C343.941 159.71 343.94 159.681 343.933 159.654C343.926 159.626 343.913 159.601 343.896 159.579Z" fill="black"/>
<path opacity="0.1" d="M348.423 147.624L347.158 145.852C347.118 145.797 347.059 145.76 346.992 145.748C346.925 145.736 346.856 145.751 346.8 145.789L344.979 147.017C344.95 147.035 344.926 147.06 344.907 147.088C344.888 147.116 344.875 147.148 344.868 147.181C344.862 147.214 344.862 147.249 344.868 147.282C344.875 147.315 344.888 147.347 344.907 147.375L346.045 149.126C346.063 149.155 346.086 149.18 346.114 149.2C346.141 149.219 346.172 149.233 346.205 149.241C346.238 149.248 346.273 149.249 346.306 149.243C346.339 149.237 346.371 149.225 346.399 149.206L348.326 147.995C348.358 147.978 348.385 147.955 348.408 147.927C348.43 147.898 348.446 147.866 348.455 147.831C348.464 147.796 348.466 147.76 348.461 147.724C348.455 147.689 348.442 147.655 348.423 147.624Z" fill="black"/>
<path opacity="0.1" d="M345.539 149.625L344.296 147.853C344.276 147.825 344.252 147.801 344.224 147.782C344.195 147.764 344.164 147.751 344.13 147.745C344.097 147.738 344.063 147.739 344.03 147.746C343.997 147.753 343.965 147.766 343.937 147.785L342.116 149.034C342.088 149.052 342.064 149.076 342.045 149.104C342.026 149.132 342.013 149.163 342.006 149.196C341.999 149.229 341.999 149.263 342.006 149.296C342.013 149.329 342.026 149.361 342.045 149.388L343.183 151.143C343.22 151.2 343.277 151.24 343.344 151.255C343.41 151.27 343.479 151.259 343.537 151.224L345.463 150.013C345.496 149.994 345.524 149.969 345.546 149.938C345.567 149.908 345.582 149.873 345.59 149.836C345.597 149.799 345.596 149.761 345.587 149.725C345.579 149.688 345.562 149.654 345.539 149.625Z" fill="black"/>
<path opacity="0.1" d="M342.656 151.623L341.412 149.847C341.372 149.791 341.313 149.754 341.246 149.742C341.179 149.73 341.11 149.745 341.054 149.783L339.233 151.011C339.204 151.03 339.18 151.054 339.161 151.082C339.142 151.11 339.129 151.142 339.122 151.175C339.116 151.209 339.116 151.243 339.122 151.276C339.129 151.31 339.142 151.341 339.161 151.369L340.299 153.12C340.317 153.149 340.34 153.174 340.368 153.194C340.395 153.214 340.426 153.228 340.459 153.235C340.492 153.243 340.527 153.243 340.56 153.237C340.593 153.231 340.625 153.219 340.653 153.2L342.58 151.99C342.61 151.971 342.635 151.947 342.656 151.918C342.676 151.889 342.69 151.857 342.697 151.822C342.704 151.788 342.704 151.753 342.697 151.718C342.69 151.684 342.676 151.651 342.656 151.623Z" fill="black"/>
<path opacity="0.1" d="M339.81 153.674L338.491 151.789C338.461 151.748 338.417 151.721 338.368 151.712C338.318 151.703 338.267 151.714 338.225 151.742L336.295 153.042C336.253 153.071 336.223 153.115 336.213 153.166C336.203 153.216 336.212 153.268 336.24 153.312L337.45 155.172C337.478 155.214 337.521 155.243 337.571 155.254C337.62 155.265 337.672 155.257 337.715 155.231L339.756 153.966C339.781 153.953 339.804 153.934 339.821 153.911C339.838 153.888 339.85 153.862 339.855 153.834C339.861 153.805 339.859 153.776 339.852 153.749C339.844 153.721 339.83 153.696 339.81 153.674Z" fill="black"/>
<path opacity="0.1" d="M373.929 134.206L372.787 132.582C372.723 132.495 372.627 132.435 372.521 132.417C372.414 132.398 372.304 132.421 372.214 132.481L367.754 135.607C367.668 135.67 367.608 135.763 367.588 135.868C367.567 135.973 367.588 136.081 367.644 136.172L368.719 137.834C368.75 137.88 368.79 137.92 368.836 137.95C368.882 137.981 368.934 138.002 368.989 138.013C369.043 138.023 369.099 138.023 369.153 138.012C369.208 138.001 369.259 137.979 369.305 137.948L373.832 134.78C373.919 134.715 373.977 134.619 373.995 134.512C374.014 134.406 373.99 134.296 373.929 134.206Z" fill="black"/>
<path opacity="0.1" d="M344.797 154.664L343.397 152.685C343.383 152.664 343.365 152.646 343.343 152.632C343.322 152.618 343.298 152.609 343.272 152.604C343.247 152.6 343.221 152.601 343.196 152.607C343.172 152.613 343.148 152.623 343.128 152.639L338.314 156.013C338.273 156.042 338.244 156.085 338.235 156.134C338.225 156.183 338.236 156.233 338.263 156.275L339.578 158.312C339.592 158.334 339.611 158.353 339.632 158.368C339.654 158.383 339.678 158.393 339.704 158.398C339.729 158.403 339.756 158.403 339.781 158.398C339.807 158.393 339.831 158.382 339.852 158.367L344.746 154.938C344.789 154.908 344.818 154.862 344.828 154.811C344.837 154.76 344.826 154.707 344.797 154.664Z" fill="black"/>
<path opacity="0.1" d="M360.111 139.533L358.821 137.643C358.792 137.602 358.748 137.573 358.699 137.564C358.649 137.555 358.598 137.565 358.556 137.593L347.866 144.815C347.824 144.843 347.795 144.887 347.784 144.936C347.774 144.986 347.784 145.038 347.811 145.08L349.13 147.105C349.144 147.127 349.163 147.146 349.184 147.161C349.206 147.176 349.23 147.186 349.256 147.191C349.281 147.196 349.308 147.196 349.333 147.191C349.359 147.185 349.383 147.175 349.404 147.16L360.061 139.803C360.082 139.789 360.1 139.77 360.114 139.749C360.128 139.728 360.137 139.704 360.142 139.679C360.147 139.654 360.146 139.628 360.141 139.603C360.136 139.578 360.126 139.554 360.111 139.533Z" fill="black"/>
</g>
<path d="M378.036 139.955L376.973 138.437C376.91 138.348 376.815 138.288 376.708 138.269C376.601 138.249 376.491 138.271 376.4 138.331L374.832 139.394C374.743 139.456 374.681 139.549 374.659 139.655C374.637 139.761 374.657 139.872 374.714 139.964L375.688 141.461C375.748 141.552 375.841 141.615 375.947 141.639C376.053 141.662 376.164 141.644 376.257 141.588L377.918 140.542C377.964 140.511 378.004 140.471 378.035 140.425C378.066 140.379 378.087 140.327 378.098 140.273C378.109 140.218 378.109 140.162 378.099 140.108C378.088 140.053 378.066 140.001 378.036 139.955Z" fill="#464A5F"/>
<path d="M375.195 141.914L374.132 140.4C374.069 140.313 373.975 140.253 373.869 140.234C373.763 140.214 373.654 140.236 373.563 140.294L371.991 141.353C371.902 141.415 371.84 141.508 371.818 141.614C371.796 141.72 371.816 141.83 371.873 141.922L372.847 143.42C372.907 143.51 373 143.574 373.106 143.598C373.212 143.621 373.323 143.603 373.416 143.547L375.077 142.505C375.124 142.474 375.164 142.434 375.195 142.388C375.227 142.341 375.249 142.289 375.26 142.234C375.271 142.179 375.271 142.122 375.259 142.067C375.248 142.012 375.226 141.96 375.195 141.914Z" fill="#464A5F"/>
<path d="M372.244 143.972L371.181 142.458C371.118 142.37 371.023 142.31 370.916 142.29C370.809 142.271 370.699 142.293 370.608 142.353L369.04 143.416C368.951 143.477 368.889 143.571 368.867 143.677C368.845 143.783 368.865 143.893 368.922 143.985L369.896 145.483C369.957 145.572 370.05 145.635 370.156 145.658C370.262 145.681 370.372 145.662 370.465 145.605L372.126 144.563C372.172 144.532 372.213 144.493 372.244 144.446C372.276 144.4 372.297 144.348 372.308 144.293C372.319 144.238 372.319 144.181 372.308 144.126C372.297 144.071 372.275 144.019 372.244 143.972Z" fill="#464A5F"/>
<path d="M369.234 146.051L368.171 144.532C368.108 144.445 368.014 144.386 367.908 144.366C367.802 144.347 367.693 144.368 367.602 144.427L366.03 145.49C365.984 145.521 365.944 145.561 365.914 145.608C365.883 145.655 365.862 145.707 365.852 145.762C365.842 145.817 365.842 145.874 365.854 145.928C365.866 145.983 365.889 146.035 365.92 146.081L366.894 147.578C366.954 147.668 367.047 147.732 367.153 147.756C367.259 147.779 367.37 147.761 367.463 147.705L369.12 146.658C369.169 146.627 369.211 146.587 369.243 146.539C369.276 146.491 369.298 146.437 369.309 146.38C369.32 146.323 369.319 146.264 369.306 146.207C369.293 146.151 369.268 146.098 369.234 146.051Z" fill="#464A5F"/>
<path d="M366.233 148.131L365.171 146.616C365.107 146.529 365.013 146.47 364.907 146.45C364.801 146.431 364.692 146.452 364.601 146.511L363.029 147.57C362.941 147.632 362.88 147.726 362.859 147.832C362.838 147.938 362.858 148.048 362.915 148.139L363.885 149.637C363.945 149.727 364.038 149.791 364.144 149.814C364.25 149.838 364.361 149.82 364.454 149.763L366.115 148.717C366.161 148.686 366.201 148.647 366.232 148.601C366.263 148.555 366.285 148.503 366.296 148.448C366.307 148.394 366.307 148.338 366.296 148.283C366.285 148.229 366.264 148.177 366.233 148.131Z" fill="#464A5F"/>
<path d="M363.361 150.401L362.042 148.52C362.028 148.499 362.01 148.481 361.989 148.467C361.968 148.453 361.945 148.444 361.92 148.439C361.895 148.434 361.87 148.434 361.845 148.44C361.821 148.445 361.797 148.455 361.777 148.469L359.846 149.773C359.825 149.786 359.806 149.804 359.792 149.825C359.778 149.846 359.768 149.869 359.763 149.894C359.758 149.919 359.757 149.944 359.762 149.969C359.767 149.994 359.777 150.018 359.791 150.039L361.001 151.899C361.029 151.942 361.072 151.972 361.122 151.983C361.171 151.994 361.223 151.985 361.267 151.958L363.307 150.692C363.331 150.678 363.352 150.659 363.369 150.636C363.385 150.613 363.396 150.587 363.402 150.56C363.407 150.532 363.406 150.503 363.399 150.476C363.392 150.449 363.379 150.423 363.361 150.401Z" fill="#464A5F"/>
<path d="M360.36 152.482L359.041 150.6C359.027 150.579 359.008 150.561 358.987 150.547C358.966 150.533 358.942 150.524 358.917 150.519C358.892 150.514 358.866 150.515 358.841 150.52C358.816 150.525 358.792 150.535 358.771 150.55L356.845 151.853C356.824 151.867 356.805 151.885 356.791 151.905C356.777 151.926 356.767 151.95 356.762 151.974C356.757 151.999 356.757 152.025 356.761 152.05C356.766 152.074 356.776 152.098 356.79 152.119L358 153.983C358.014 154.005 358.031 154.023 358.052 154.037C358.073 154.052 358.096 154.062 358.121 154.067C358.146 154.072 358.171 154.072 358.196 154.067C358.221 154.062 358.245 154.052 358.266 154.038L360.306 152.773C360.33 152.758 360.35 152.739 360.366 152.716C360.382 152.693 360.393 152.667 360.398 152.64C360.404 152.612 360.403 152.584 360.396 152.557C360.39 152.529 360.378 152.504 360.36 152.482Z" fill="#464A5F"/>
<path d="M357.701 154.325L356.382 152.439C356.352 152.399 356.308 152.371 356.258 152.362C356.209 152.354 356.158 152.365 356.116 152.393L354.185 153.675C354.143 153.704 354.114 153.749 354.104 153.799C354.093 153.85 354.103 153.902 354.131 153.945L355.34 155.806C355.369 155.847 355.412 155.877 355.462 155.888C355.511 155.899 355.563 155.891 355.606 155.865L357.646 154.599C357.668 154.585 357.687 154.567 357.702 154.545C357.717 154.524 357.727 154.499 357.732 154.474C357.737 154.448 357.737 154.422 357.732 154.396C357.726 154.371 357.716 154.346 357.701 154.325Z" fill="#464A5F"/>
<path d="M354.724 156.386L353.405 154.517C353.375 154.477 353.331 154.449 353.281 154.44C353.232 154.432 353.181 154.443 353.139 154.471L351.209 155.77C351.187 155.784 351.169 155.802 351.154 155.824C351.14 155.845 351.13 155.869 351.125 155.894C351.12 155.919 351.12 155.945 351.125 155.97C351.13 155.995 351.14 156.019 351.154 156.04L352.364 157.901C352.392 157.942 352.435 157.972 352.485 157.983C352.534 157.994 352.586 157.986 352.629 157.96L354.669 156.694C354.697 156.681 354.72 156.661 354.739 156.637C354.757 156.612 354.769 156.584 354.775 156.554C354.78 156.524 354.778 156.493 354.769 156.464C354.761 156.435 354.745 156.408 354.724 156.386Z" fill="#464A5F"/>
<path d="M351.842 158.382L350.523 156.5C350.509 156.479 350.491 156.461 350.47 156.448C350.449 156.434 350.425 156.424 350.4 156.419C350.376 156.415 350.35 156.415 350.326 156.42C350.301 156.425 350.278 156.435 350.257 156.45L348.326 157.753C348.305 157.767 348.287 157.785 348.273 157.805C348.258 157.826 348.248 157.85 348.243 157.875C348.238 157.899 348.238 157.925 348.243 157.95C348.248 157.974 348.258 157.998 348.272 158.019L349.481 159.879C349.495 159.901 349.512 159.92 349.533 159.934C349.554 159.949 349.577 159.96 349.602 159.965C349.626 159.971 349.652 159.971 349.677 159.966C349.702 159.962 349.726 159.952 349.747 159.938L351.787 158.673C351.812 158.659 351.833 158.64 351.849 158.617C351.866 158.594 351.877 158.568 351.882 158.54C351.887 158.512 351.886 158.484 351.879 158.456C351.872 158.429 351.86 158.404 351.842 158.382Z" fill="#464A5F"/>
<path d="M348.958 160.382L347.638 158.496C347.609 158.455 347.565 158.428 347.515 158.419C347.465 158.41 347.415 158.421 347.373 158.449L345.442 159.749C345.4 159.778 345.371 159.822 345.36 159.873C345.35 159.923 345.36 159.975 345.388 160.019L346.597 161.879C346.626 161.921 346.669 161.95 346.718 161.961C346.768 161.972 346.819 161.964 346.863 161.938L348.903 160.673C348.928 160.659 348.949 160.64 348.965 160.617C348.981 160.594 348.993 160.567 348.998 160.54C349.003 160.512 349.002 160.484 348.995 160.456C348.988 160.429 348.976 160.403 348.958 160.382Z" fill="#464A5F"/>
<path d="M346.075 162.378L344.756 160.496C344.742 160.475 344.724 160.458 344.703 160.444C344.682 160.43 344.658 160.42 344.634 160.415C344.609 160.411 344.584 160.411 344.559 160.416C344.534 160.421 344.511 160.431 344.49 160.446L342.56 161.749C342.539 161.763 342.52 161.781 342.506 161.802C342.492 161.822 342.482 161.846 342.477 161.871C342.471 161.895 342.471 161.921 342.476 161.946C342.481 161.971 342.491 161.994 342.505 162.015L343.715 163.875C343.728 163.897 343.746 163.916 343.766 163.93C343.787 163.945 343.81 163.956 343.835 163.961C343.86 163.967 343.885 163.967 343.91 163.962C343.935 163.958 343.959 163.948 343.98 163.934L346.021 162.669C346.045 162.655 346.066 162.636 346.083 162.613C346.099 162.59 346.11 162.564 346.115 162.536C346.121 162.508 346.12 162.48 346.113 162.453C346.106 162.425 346.093 162.4 346.075 162.378Z" fill="#464A5F"/>
<path d="M376.134 137.223L375.072 135.704C375.008 135.617 374.914 135.558 374.808 135.538C374.703 135.519 374.593 135.54 374.503 135.599L372.931 136.662C372.842 136.724 372.781 136.818 372.76 136.924C372.739 137.03 372.759 137.14 372.817 137.231L373.786 138.729C373.847 138.819 373.939 138.883 374.045 138.906C374.151 138.93 374.262 138.912 374.355 138.855L376.016 137.809C376.062 137.779 376.102 137.739 376.133 137.693C376.164 137.647 376.186 137.595 376.197 137.541C376.208 137.486 376.208 137.43 376.197 137.375C376.186 137.321 376.165 137.269 376.134 137.223Z" fill="#464A5F"/>
<path d="M371.982 131.207L370.92 129.692C370.856 129.606 370.762 129.546 370.656 129.527C370.55 129.507 370.441 129.529 370.351 129.587L368.778 130.646C368.69 130.708 368.629 130.802 368.608 130.908C368.587 131.014 368.607 131.124 368.664 131.215L369.638 132.713C369.698 132.802 369.79 132.865 369.895 132.889C370 132.912 370.11 132.895 370.203 132.839L371.864 131.798C371.911 131.767 371.951 131.727 371.982 131.681C372.014 131.634 372.036 131.582 372.047 131.527C372.058 131.472 372.058 131.415 372.046 131.36C372.035 131.305 372.013 131.253 371.982 131.207Z" fill="#464A5F"/>
<path d="M373.306 139.167L372.244 137.644C372.18 137.557 372.086 137.497 371.98 137.478C371.874 137.458 371.765 137.48 371.675 137.538L370.102 138.597C370.014 138.659 369.953 138.753 369.932 138.859C369.911 138.965 369.931 139.075 369.989 139.167L370.962 140.664C371.023 140.753 371.115 140.816 371.22 140.84C371.325 140.863 371.435 140.846 371.527 140.791L373.188 139.749C373.28 139.687 373.345 139.591 373.367 139.482C373.389 139.373 373.367 139.26 373.306 139.167Z" fill="#464A5F"/>
<path d="M370.338 141.223L369.293 139.708C369.229 139.621 369.135 139.562 369.029 139.542C368.923 139.523 368.814 139.544 368.723 139.603L367.151 140.661C367.062 140.724 367 140.818 366.979 140.925C366.958 141.032 366.979 141.143 367.037 141.235L368.007 142.733C368.068 142.822 368.161 142.885 368.267 142.908C368.373 142.931 368.484 142.912 368.576 142.855L370.237 141.813C370.282 141.781 370.321 141.74 370.351 141.693C370.381 141.646 370.401 141.594 370.41 141.539C370.42 141.484 370.418 141.428 370.406 141.373C370.393 141.319 370.37 141.268 370.338 141.223Z" fill="#464A5F"/>
<path d="M367.336 143.305L366.274 141.786C366.21 141.698 366.115 141.638 366.009 141.618C365.902 141.599 365.792 141.621 365.701 141.681L364.133 142.744C364.044 142.805 363.982 142.899 363.96 143.005C363.938 143.111 363.958 143.221 364.015 143.313L364.988 144.811C365.049 144.901 365.142 144.965 365.248 144.988C365.354 145.012 365.465 144.994 365.557 144.937L367.218 143.891C367.265 143.861 367.304 143.821 367.335 143.775C367.367 143.729 367.388 143.677 367.399 143.623C367.41 143.568 367.41 143.512 367.399 143.457C367.389 143.403 367.367 143.351 367.336 143.305Z" fill="#464A5F"/>
<path d="M369.221 133.26L368.159 131.737C368.095 131.65 368.001 131.591 367.895 131.572C367.789 131.552 367.68 131.574 367.59 131.632L366.017 132.691C365.929 132.753 365.868 132.847 365.847 132.953C365.826 133.059 365.846 133.169 365.904 133.26L366.877 134.758C366.938 134.847 367.03 134.91 367.135 134.933C367.24 134.957 367.35 134.939 367.442 134.884L369.103 133.842C369.196 133.781 369.26 133.685 369.282 133.576C369.304 133.467 369.282 133.353 369.221 133.26Z" fill="#464A5F"/>
<path d="M366.253 135.321L365.191 133.802C365.128 133.715 365.033 133.656 364.927 133.636C364.822 133.616 364.712 133.638 364.622 133.696L363.05 134.759C362.961 134.821 362.899 134.915 362.877 135.021C362.855 135.127 362.875 135.237 362.932 135.329L363.905 136.827C363.966 136.917 364.059 136.981 364.165 137.004C364.271 137.028 364.382 137.009 364.474 136.953L366.135 135.907C366.182 135.876 366.221 135.837 366.253 135.791C366.284 135.745 366.305 135.693 366.316 135.638C366.327 135.584 366.327 135.528 366.316 135.473C366.306 135.419 366.284 135.367 366.253 135.321Z" fill="#464A5F"/>
<path d="M363.251 137.4L362.189 135.886C362.126 135.798 362.03 135.738 361.924 135.718C361.817 135.698 361.707 135.721 361.616 135.78L360.048 136.839C359.959 136.901 359.897 136.994 359.875 137.1C359.853 137.206 359.873 137.317 359.93 137.409L360.903 138.91C360.964 139.001 361.057 139.064 361.163 139.088C361.269 139.112 361.38 139.093 361.473 139.037L363.129 137.991C363.176 137.96 363.217 137.921 363.249 137.875C363.281 137.828 363.303 137.776 363.314 137.721C363.326 137.666 363.326 137.609 363.315 137.554C363.304 137.499 363.283 137.447 363.251 137.4Z" fill="#464A5F"/>
<path d="M364.331 145.385L363.269 143.87C363.206 143.783 363.111 143.724 363.006 143.704C362.9 143.685 362.791 143.706 362.7 143.765L361.128 144.815C361.04 144.877 360.979 144.971 360.957 145.077C360.936 145.183 360.956 145.293 361.014 145.385L361.988 146.882C362.048 146.971 362.14 147.034 362.245 147.058C362.35 147.081 362.46 147.064 362.553 147.009L364.213 145.963C364.305 145.901 364.368 145.806 364.39 145.698C364.412 145.59 364.391 145.477 364.331 145.385Z" fill="#464A5F"/>
<path d="M361.33 147.465L360.268 145.95C360.205 145.863 360.11 145.804 360.005 145.784C359.899 145.765 359.79 145.786 359.699 145.845L358.127 146.925C358.038 146.986 357.976 147.08 357.954 147.186C357.932 147.292 357.952 147.402 358.009 147.494L358.983 148.992C359.043 149.082 359.136 149.146 359.242 149.169C359.348 149.193 359.459 149.175 359.552 149.118L361.212 148.076C361.262 148.046 361.305 148.005 361.339 147.957C361.372 147.909 361.395 147.854 361.406 147.797C361.417 147.739 361.416 147.68 361.403 147.623C361.39 147.566 361.365 147.512 361.33 147.465Z" fill="#464A5F"/>
<path d="M358.46 149.733L357.14 147.852C357.127 147.831 357.109 147.813 357.088 147.799C357.067 147.785 357.043 147.776 357.018 147.771C356.994 147.766 356.968 147.766 356.944 147.772C356.919 147.777 356.896 147.787 356.875 147.801L354.961 149.105C354.94 149.118 354.922 149.136 354.907 149.157C354.893 149.178 354.883 149.201 354.878 149.226C354.873 149.251 354.873 149.276 354.878 149.301C354.882 149.326 354.892 149.35 354.906 149.371L356.116 151.231C356.129 151.252 356.147 151.271 356.168 151.286C356.188 151.301 356.212 151.311 356.236 151.317C356.261 151.322 356.287 151.323 356.312 151.318C356.337 151.313 356.361 151.304 356.382 151.29L358.422 150.024C358.445 150.009 358.464 149.988 358.478 149.965C358.492 149.941 358.502 149.915 358.505 149.887C358.509 149.86 358.507 149.832 358.499 149.805C358.491 149.779 358.478 149.754 358.46 149.733Z" fill="#464A5F"/>
<path d="M355.803 151.565L354.484 149.68C354.454 149.639 354.409 149.611 354.358 149.602C354.308 149.594 354.256 149.605 354.214 149.633L352.284 150.933C352.242 150.962 352.213 151.007 352.203 151.057C352.193 151.107 352.202 151.159 352.229 151.203L353.443 153.063C353.47 153.106 353.514 153.136 353.564 153.147C353.613 153.158 353.665 153.149 353.708 153.122L355.744 151.857C355.77 151.844 355.792 151.825 355.809 151.802C355.826 151.78 355.838 151.753 355.844 151.725C355.85 151.697 355.849 151.668 355.842 151.641C355.835 151.613 355.822 151.587 355.803 151.565Z" fill="#464A5F"/>
<path d="M352.823 153.641L351.504 151.756C351.474 151.715 351.43 151.687 351.38 151.679C351.331 151.67 351.28 151.681 351.238 151.709L349.308 153.009C349.265 153.038 349.236 153.082 349.226 153.132C349.215 153.183 349.225 153.235 349.253 153.278L350.463 155.139C350.491 155.181 350.534 155.21 350.584 155.221C350.633 155.232 350.685 155.224 350.728 155.198L352.768 153.932C352.794 153.92 352.816 153.901 352.834 153.878C352.851 153.855 352.863 153.829 352.868 153.8C352.873 153.772 352.872 153.743 352.864 153.716C352.856 153.688 352.842 153.663 352.823 153.641Z" fill="#464A5F"/>
<path d="M349.945 155.636L348.638 153.754C348.624 153.733 348.606 153.715 348.585 153.701C348.564 153.688 348.541 153.678 348.516 153.673C348.491 153.669 348.466 153.669 348.441 153.674C348.417 153.679 348.393 153.689 348.373 153.704L346.442 155.007C346.4 155.035 346.371 155.079 346.36 155.129C346.35 155.178 346.36 155.23 346.387 155.273L347.597 157.133C347.625 157.176 347.668 157.206 347.718 157.217C347.767 157.228 347.819 157.219 347.863 157.192L349.903 155.927C349.927 155.912 349.948 155.893 349.963 155.869C349.979 155.846 349.989 155.819 349.993 155.791C349.997 155.763 349.995 155.735 349.986 155.708C349.978 155.681 349.964 155.656 349.945 155.636Z" fill="#464A5F"/>
<path d="M368.361 138.369L367.303 136.851C367.239 136.763 367.144 136.702 367.037 136.683C366.93 136.663 366.82 136.685 366.729 136.745L365.157 137.808C365.069 137.87 365.008 137.964 364.987 138.07C364.966 138.176 364.986 138.286 365.043 138.378L366.017 139.875C366.078 139.965 366.171 140.028 366.277 140.05C366.383 140.073 366.494 140.054 366.586 139.998L368.243 138.956C368.289 138.925 368.329 138.885 368.36 138.839C368.391 138.793 368.413 138.741 368.424 138.687C368.434 138.633 368.435 138.576 368.424 138.522C368.413 138.467 368.392 138.415 368.361 138.369Z" fill="#464A5F"/>
<path d="M365.36 140.45L364.298 138.936C364.235 138.848 364.141 138.788 364.035 138.767C363.929 138.747 363.819 138.768 363.728 138.826L362.156 139.889C362.068 139.951 362.007 140.045 361.986 140.151C361.965 140.257 361.985 140.367 362.042 140.458L363.016 141.956C363.076 142.045 363.168 142.108 363.273 142.132C363.378 142.155 363.488 142.138 363.581 142.083L365.242 141.036C365.288 141.006 365.328 140.966 365.359 140.92C365.39 140.874 365.412 140.822 365.423 140.768C365.434 140.713 365.434 140.657 365.423 140.603C365.412 140.548 365.391 140.496 365.36 140.45Z" fill="#464A5F"/>
<path d="M362.358 142.529L361.283 141.019C361.22 140.93 361.125 140.87 361.018 140.851C360.911 140.831 360.801 140.853 360.71 140.913L359.176 141.968C359.087 142.029 359.025 142.123 359.003 142.229C358.981 142.335 359.001 142.445 359.058 142.537L360.031 144.035C360.092 144.125 360.185 144.189 360.291 144.212C360.397 144.236 360.508 144.218 360.6 144.161L362.261 143.119C362.307 143.087 362.345 143.046 362.374 142.999C362.404 142.952 362.424 142.899 362.433 142.844C362.442 142.789 362.44 142.733 362.427 142.679C362.414 142.625 362.391 142.574 362.358 142.529Z" fill="#464A5F"/>
<path d="M359.353 144.609L358.291 143.095C358.227 143.008 358.133 142.949 358.027 142.929C357.921 142.909 357.812 142.931 357.722 142.989L356.149 144.048C356.061 144.11 356 144.204 355.979 144.31C355.958 144.416 355.978 144.526 356.035 144.618L357.009 146.115C357.069 146.205 357.161 146.267 357.267 146.291C357.372 146.314 357.482 146.297 357.574 146.242L359.235 145.2C359.282 145.169 359.322 145.129 359.354 145.083C359.385 145.037 359.407 144.984 359.418 144.929C359.429 144.874 359.429 144.818 359.418 144.763C359.406 144.708 359.384 144.656 359.353 144.609Z" fill="#464A5F"/>
<path d="M356.486 146.878L355.167 144.997C355.152 144.976 355.134 144.958 355.113 144.944C355.091 144.93 355.067 144.92 355.042 144.915C355.017 144.911 354.992 144.911 354.967 144.916C354.942 144.922 354.918 144.932 354.897 144.946L352.966 146.25C352.924 146.278 352.895 146.322 352.885 146.371C352.875 146.421 352.884 146.473 352.912 146.515L354.121 148.38C354.135 148.401 354.154 148.42 354.175 148.434C354.196 148.448 354.22 148.459 354.245 148.464C354.27 148.469 354.296 148.469 354.321 148.464C354.346 148.459 354.37 148.449 354.391 148.435L356.427 147.169C356.452 147.156 356.474 147.137 356.49 147.114C356.507 147.091 356.519 147.065 356.524 147.037C356.53 147.01 356.529 146.981 356.523 146.954C356.516 146.926 356.504 146.9 356.486 146.878Z" fill="#464A5F"/>
<path d="M353.827 148.722L352.508 146.84C352.494 146.819 352.476 146.801 352.455 146.787C352.434 146.774 352.41 146.764 352.385 146.759C352.361 146.755 352.335 146.755 352.311 146.76C352.286 146.765 352.263 146.775 352.242 146.79L350.324 148.089C350.282 148.118 350.252 148.162 350.242 148.213C350.232 148.263 350.242 148.315 350.269 148.359L351.479 150.219C351.508 150.261 351.551 150.291 351.6 150.302C351.65 150.313 351.701 150.304 351.745 150.278L353.785 149.013C353.808 148.998 353.828 148.978 353.844 148.954C353.859 148.931 353.869 148.904 353.873 148.877C353.877 148.849 353.875 148.821 353.867 148.794C353.859 148.767 353.845 148.743 353.827 148.722Z" fill="#464A5F"/>
<path d="M350.85 150.784L349.531 148.899C349.501 148.858 349.456 148.83 349.405 148.821C349.355 148.813 349.304 148.824 349.261 148.852L347.335 150.151C347.293 150.181 347.263 150.225 347.253 150.275C347.243 150.326 347.252 150.378 347.28 150.421L348.49 152.282C348.518 152.325 348.561 152.355 348.611 152.366C348.66 152.377 348.712 152.368 348.755 152.341L350.796 151.075C350.82 151.061 350.841 151.042 350.858 151.019C350.874 150.996 350.885 150.97 350.89 150.942C350.896 150.915 350.895 150.886 350.888 150.859C350.881 150.832 350.868 150.806 350.85 150.784Z" fill="#464A5F"/>
<path d="M347.967 152.781L346.648 150.899C346.633 150.878 346.615 150.86 346.593 150.846C346.572 150.832 346.548 150.822 346.523 150.818C346.498 150.813 346.472 150.813 346.447 150.819C346.422 150.824 346.399 150.834 346.378 150.848L344.451 152.152C344.43 152.166 344.412 152.183 344.398 152.204C344.383 152.225 344.373 152.249 344.368 152.273C344.363 152.298 344.363 152.324 344.368 152.348C344.373 152.373 344.383 152.397 344.397 152.418L345.606 154.282C345.62 154.304 345.638 154.322 345.659 154.336C345.679 154.35 345.703 154.36 345.728 154.366C345.752 154.371 345.778 154.371 345.803 154.366C345.827 154.361 345.851 154.351 345.872 154.337L347.912 153.072C347.936 153.057 347.957 153.038 347.973 153.015C347.989 152.992 348 152.966 348.005 152.938C348.01 152.911 348.009 152.883 348.003 152.855C347.996 152.828 347.984 152.803 347.967 152.781Z" fill="#464A5F"/>
<path d="M347.062 157.636L345.742 155.75C345.712 155.709 345.667 155.681 345.617 155.673C345.566 155.664 345.515 155.675 345.473 155.704L343.542 157.003C343.5 157.032 343.47 157.077 343.46 157.127C343.45 157.177 343.46 157.23 343.487 157.273L344.697 159.133C344.725 159.175 344.769 159.205 344.818 159.216C344.867 159.227 344.919 159.218 344.962 159.192L347.003 157.927C347.028 157.914 347.05 157.895 347.067 157.873C347.085 157.85 347.097 157.824 347.102 157.796C347.108 157.768 347.107 157.739 347.1 157.711C347.093 157.683 347.08 157.658 347.062 157.636Z" fill="#464A5F"/>
<path d="M344.178 159.63L342.858 157.749C342.844 157.728 342.825 157.71 342.804 157.696C342.783 157.682 342.759 157.672 342.734 157.667C342.709 157.663 342.683 157.663 342.658 157.668C342.633 157.674 342.609 157.684 342.588 157.698L340.658 159.002C340.616 159.03 340.587 159.074 340.576 159.123C340.566 159.173 340.576 159.225 340.603 159.267L341.813 161.128C341.827 161.149 341.844 161.168 341.865 161.183C341.886 161.198 341.91 161.208 341.935 161.214C341.96 161.219 341.986 161.22 342.012 161.215C342.037 161.21 342.061 161.201 342.083 161.187L344.119 159.921C344.144 159.908 344.166 159.89 344.183 159.867C344.201 159.844 344.212 159.818 344.218 159.79C344.224 159.762 344.223 159.733 344.216 159.705C344.209 159.678 344.196 159.652 344.178 159.63Z" fill="#464A5F"/>
<path d="M348.701 147.679L347.457 145.903C347.417 145.848 347.358 145.811 347.291 145.799C347.224 145.787 347.155 145.802 347.099 145.84L345.265 147.067C345.209 147.106 345.17 147.165 345.156 147.232C345.143 147.299 345.156 147.369 345.194 147.426L346.332 149.181C346.37 149.238 346.428 149.278 346.495 149.292C346.562 149.306 346.632 149.294 346.69 149.257L348.612 148.046C348.643 148.029 348.67 148.005 348.692 147.977C348.713 147.949 348.728 147.916 348.737 147.882C348.745 147.848 348.746 147.812 348.74 147.777C348.734 147.742 348.72 147.709 348.701 147.679Z" fill="#464A5F"/>
<path d="M345.818 149.675L344.574 147.904C344.555 147.876 344.531 147.852 344.502 147.833C344.474 147.815 344.442 147.802 344.409 147.795C344.376 147.789 344.342 147.79 344.308 147.797C344.275 147.804 344.244 147.817 344.216 147.836L342.395 149.068C342.339 149.106 342.3 149.164 342.286 149.231C342.273 149.297 342.286 149.366 342.323 149.422L343.461 151.177C343.499 151.234 343.558 151.274 343.624 151.289C343.691 151.304 343.761 151.293 343.82 151.257L345.746 150.047C345.775 150.027 345.8 150.002 345.82 149.973C345.839 149.943 345.853 149.911 345.859 149.876C345.866 149.842 345.866 149.806 345.859 149.772C345.851 149.737 345.837 149.705 345.818 149.675Z" fill="#464A5F"/>
<path d="M342.935 151.675L341.67 149.899C341.631 149.844 341.572 149.807 341.506 149.795C341.44 149.783 341.372 149.798 341.316 149.836L339.491 151.063C339.434 151.102 339.395 151.161 339.382 151.228C339.369 151.295 339.382 151.365 339.419 151.422L340.557 153.177C340.595 153.234 340.654 153.274 340.721 153.288C340.788 153.302 340.858 153.289 340.916 153.253L342.842 152.042C342.873 152.025 342.901 152.002 342.923 151.974C342.944 151.946 342.96 151.913 342.969 151.879C342.978 151.844 342.979 151.808 342.973 151.773C342.967 151.738 342.954 151.705 342.935 151.675Z" fill="#464A5F"/>
<path d="M340.093 153.73L338.774 151.844C338.743 151.803 338.698 151.775 338.648 151.767C338.598 151.758 338.546 151.769 338.504 151.797L336.573 153.097C336.532 153.127 336.503 153.171 336.494 153.222C336.484 153.272 336.495 153.324 336.523 153.367L337.732 155.227C337.76 155.27 337.803 155.3 337.853 155.311C337.903 155.322 337.955 155.313 337.998 155.286L340.038 154.021C340.063 154.007 340.084 153.988 340.1 153.965C340.117 153.942 340.128 153.915 340.133 153.888C340.138 153.86 340.137 153.832 340.13 153.804C340.124 153.777 340.111 153.751 340.093 153.73Z" fill="#464A5F"/>
<path d="M374.211 134.269L373.086 132.641C373.022 132.553 372.926 132.494 372.819 132.475C372.713 132.456 372.603 132.479 372.512 132.539L368.027 135.665C367.941 135.728 367.882 135.821 367.861 135.926C367.841 136.031 367.861 136.14 367.918 136.231L368.997 137.893C369.028 137.939 369.068 137.978 369.114 138.009C369.16 138.04 369.212 138.061 369.266 138.071C369.321 138.082 369.377 138.082 369.431 138.071C369.485 138.059 369.537 138.038 369.583 138.007L374.106 134.839C374.193 134.775 374.252 134.681 374.272 134.575C374.291 134.469 374.27 134.36 374.211 134.269Z" fill="#464A5F"/>
<path d="M345.075 154.716L343.676 152.738C343.662 152.717 343.643 152.699 343.622 152.685C343.6 152.671 343.576 152.661 343.551 152.657C343.526 152.653 343.5 152.654 343.475 152.659C343.45 152.665 343.427 152.676 343.406 152.691L338.592 156.066C338.551 156.095 338.523 156.139 338.513 156.189C338.504 156.238 338.514 156.29 338.542 156.332L339.861 158.365C339.875 158.387 339.894 158.406 339.915 158.421C339.937 158.436 339.961 158.446 339.987 158.451C340.012 158.456 340.038 158.456 340.064 158.451C340.09 158.445 340.114 158.435 340.135 158.42L345.029 154.99C345.071 154.96 345.1 154.914 345.108 154.863C345.117 154.812 345.105 154.759 345.075 154.716Z" fill="#464A5F"/>
<path d="M360.389 139.584L359.125 137.707C359.096 137.665 359.051 137.635 359.001 137.625C358.951 137.615 358.898 137.625 358.855 137.652L348.169 144.866C348.148 144.879 348.13 144.897 348.115 144.918C348.101 144.939 348.091 144.962 348.086 144.987C348.081 145.012 348.081 145.037 348.086 145.062C348.09 145.087 348.1 145.111 348.114 145.132L349.43 147.156C349.444 147.178 349.462 147.197 349.483 147.212C349.505 147.227 349.529 147.237 349.555 147.242C349.58 147.247 349.607 147.247 349.632 147.242C349.658 147.237 349.682 147.226 349.704 147.211L360.36 139.854C360.399 139.822 360.424 139.776 360.43 139.725C360.435 139.675 360.421 139.624 360.389 139.584Z" fill="#464A5F"/>
<path opacity="0.1" d="M360.44 133.139L354.758 124.875C354.601 124.645 354.359 124.487 354.086 124.435C353.813 124.383 353.53 124.441 353.299 124.596L337.648 135.113C337.533 135.191 337.434 135.291 337.357 135.407C337.281 135.523 337.228 135.654 337.202 135.79C337.175 135.927 337.176 136.068 337.204 136.204C337.233 136.34 337.287 136.47 337.366 136.585L343.157 145.085C343.235 145.201 343.335 145.3 343.452 145.376C343.568 145.453 343.698 145.506 343.835 145.531C343.972 145.557 344.112 145.556 344.248 145.527C344.385 145.498 344.514 145.443 344.628 145.364L360.17 134.602C360.284 134.524 360.382 134.424 360.457 134.308C360.532 134.192 360.584 134.063 360.609 133.927C360.634 133.791 360.632 133.651 360.603 133.516C360.574 133.38 360.519 133.252 360.44 133.139Z" fill="black"/>
<path d="M360.702 133.19L355.02 124.926C354.862 124.697 354.62 124.54 354.347 124.488C354.074 124.435 353.792 124.493 353.561 124.647L337.931 135.172C337.815 135.25 337.715 135.349 337.638 135.465C337.561 135.581 337.507 135.712 337.48 135.849C337.454 135.986 337.454 136.126 337.483 136.263C337.511 136.4 337.566 136.529 337.644 136.645L343.419 145.136C343.497 145.252 343.597 145.351 343.713 145.427C343.83 145.504 343.96 145.557 344.097 145.583C344.233 145.608 344.374 145.607 344.51 145.578C344.646 145.549 344.776 145.494 344.89 145.415L360.44 134.654C360.554 134.575 360.65 134.474 360.725 134.358C360.799 134.242 360.85 134.112 360.874 133.976C360.899 133.84 360.896 133.7 360.866 133.566C360.837 133.431 360.781 133.303 360.702 133.19Z" fill="#939498"/>
<path d="M395.937 146.546L383.882 142.521L345.215 169.402L357.182 173.304C357.505 173.409 357.847 173.438 358.183 173.388C358.519 173.338 358.839 173.211 359.117 173.017L396.047 147.318C396.119 147.275 396.176 147.213 396.213 147.137C396.249 147.062 396.262 146.978 396.25 146.895C396.238 146.813 396.202 146.735 396.147 146.673C396.091 146.611 396.018 146.567 395.937 146.546Z" fill="#39B6FB"/>
</g>
<defs>
<clipPath id="clip0">
<rect width="457" height="320" fill="white"/>
</clipPath>
</defs>
</svg>
