<svg width="500" height="325" viewBox="0 0 500 325" fill="none" xmlns="http://www.w3.org/2000/svg">
<g clip-path="url(#clip0)">
<path d="M499.999 152.585C500 165.515 495.126 177.969 486.35 187.458C477.574 196.946 465.545 202.769 452.665 203.763C452.231 203.796 451.791 203.829 451.351 203.849V155.132C451.351 154.645 451.243 154.164 451.033 153.725C450.824 153.285 450.519 152.898 450.141 152.592C450.098 152.547 450.049 152.507 449.996 152.473C449.949 152.434 449.898 152.399 449.845 152.368C449.383 152.07 448.854 151.893 448.306 151.853C447.759 151.813 447.21 151.911 446.709 152.138L446.164 150.94C446.76 150.668 447.408 150.527 448.064 150.525L410.617 118.234C410.906 117.905 411.209 117.583 411.511 117.26C418.571 109.811 427.7 104.652 437.719 102.45C447.738 100.248 458.186 101.104 467.714 104.908C477.241 108.711 485.411 115.288 491.166 123.787C496.922 132.286 499.999 142.317 499.999 152.585Z" fill="#F2F2F2"/>
<path d="M13.0024 187.585C12.8162 186.633 12.8408 185.651 13.0746 184.71C13.3084 183.768 13.7456 182.889 14.3555 182.134C14.9654 181.38 15.7331 180.769 16.6046 180.343C17.476 179.918 18.43 179.689 19.3994 179.673L48.9582 144.451L56.3377 153.896L26.2131 186.676C26.1324 188.308 25.4565 189.853 24.3135 191.019C23.1705 192.186 21.6398 192.892 20.0114 193.004C18.383 193.116 16.7701 192.627 15.4783 191.628C14.1865 190.629 13.3056 189.191 13.0024 187.585H13.0024Z" fill="#FFB8B8"/>
<path d="M153.367 144.235C153.16 144.535 152.977 144.85 152.82 145.178L120.544 149.796L115.643 143.568L105.286 149.743L115.022 164.937L154.385 153.322C155.424 154.264 156.724 154.866 158.113 155.049C159.502 155.233 160.914 154.989 162.161 154.349C163.408 153.71 164.431 152.706 165.094 151.47C165.757 150.234 166.029 148.826 165.873 147.432C165.716 146.038 165.14 144.725 164.22 143.667C163.3 142.609 162.08 141.857 160.723 141.51C159.365 141.163 157.934 141.238 156.62 141.724C155.306 142.211 154.171 143.087 153.367 144.235Z" fill="#FFB8B8"/>
<path d="M98.2354 261.916L103.947 267.609L128.6 248.267L120.171 239.865L98.2354 261.916Z" fill="#FFB8B8"/>
<path d="M109.681 283.896L91.7307 266.006L98.6362 259.064L109.651 270.042C110.562 270.95 111.285 272.028 111.779 273.216C112.274 274.403 112.53 275.677 112.532 276.963C112.535 278.25 112.285 279.524 111.795 280.714C111.306 281.903 110.587 282.985 109.681 283.896L109.681 283.896Z" fill="#2F2E41"/>
<path d="M67.8753 316.517H75.9353L79.7693 285.398H67.874L67.8753 316.517Z" fill="#FFB8B8"/>
<path d="M91.4795 324.008L66.1488 324.009L66.1484 314.212L81.6922 314.212C82.9774 314.212 84.2501 314.465 85.4375 314.957C86.6249 315.45 87.7038 316.171 88.6127 317.081C89.5215 317.99 90.2425 319.07 90.7344 320.259C91.2262 321.447 91.4794 322.721 91.4795 324.008Z" fill="#2F2E41"/>
<path d="M66.1232 292.483L56.9427 224.711C55.506 214.468 55.9518 204.05 58.2584 193.968C60.1423 185.866 62.6873 180.254 65.8231 177.288C66.3179 176.823 66.9514 176.534 67.6265 176.464L97.9375 173.303C98.5214 173.243 99.1102 173.351 99.6352 173.614C100.16 173.876 100.6 174.283 100.903 174.786L101.899 176.448C102.02 176.65 102.118 176.865 102.19 177.089L108.598 196.976C108.694 197.276 108.848 197.555 109.052 197.795C109.257 198.035 109.506 198.232 109.787 198.375C119.877 203.532 152.653 220.939 150.777 228.449C149.015 235.505 132.515 246.947 127.5 250.285C126.989 250.627 126.387 250.807 125.773 250.803C125.159 250.798 124.56 250.609 124.055 250.259L115.73 244.558C115.323 244.279 114.989 243.908 114.756 243.474C114.522 243.04 114.396 242.556 114.387 242.063C114.379 241.57 114.488 241.082 114.706 240.64C114.925 240.198 115.245 239.815 115.642 239.523L121.383 235.288C121.734 235.029 122.008 234.679 122.175 234.275C122.343 233.872 122.397 233.43 122.332 232.998C122.268 232.566 122.086 232.16 121.808 231.823C121.53 231.487 121.166 231.232 120.754 231.088L89.9219 220.259C89.5757 220.137 89.2063 220.096 88.842 220.14C88.4777 220.184 88.1283 220.31 87.8206 220.51C87.5128 220.71 87.2551 220.978 87.067 221.294C86.8789 221.609 86.7656 221.963 86.7358 222.329L81.0509 291.879C80.9882 292.625 80.6578 293.322 80.1208 293.843C79.5839 294.364 78.8767 294.672 78.1301 294.711L69.3343 295.152C69.2807 295.154 69.2277 295.156 69.1746 295.156C68.4281 295.159 67.7062 294.889 67.1443 294.396C66.5825 293.904 66.2194 293.224 66.1232 292.483Z" fill="#2F2E41"/>
<path d="M80.0247 117.191C88.9424 117.191 96.1716 109.955 96.1716 101.028C96.1716 92.1016 88.9424 84.8652 80.0247 84.8652C71.1071 84.8652 63.8779 92.1016 63.8779 101.028C63.8779 109.955 71.1071 117.191 80.0247 117.191Z" fill="#FFB8B8"/>
<path d="M64.9226 174.519L53.0371 131.11L53.2406 130.973C53.4959 130.8 79.1142 113.867 109.108 127.513L109.652 127.825L102.609 172.881C102.455 173.91 101.948 174.852 101.175 175.546C100.401 176.24 99.4103 176.642 98.3725 176.683L69.3918 177.799C69.3333 177.801 69.2751 177.802 69.2172 177.802C68.2402 177.804 67.2898 177.484 66.5134 176.89C65.7369 176.297 65.1778 175.463 64.9226 174.519Z" fill="#CCCCCC"/>
<path d="M52.5841 159.371L42.6852 147.977C42.2085 147.429 41.94 146.731 41.9272 146.005C41.9144 145.278 42.1581 144.571 42.6153 144.007L52.9634 131.211L60.9073 133.38L65.1188 148.135L57.4397 159.116C57.1719 159.501 56.8193 159.82 56.4092 160.048C55.999 160.275 55.5422 160.406 55.0738 160.429C55.0184 160.432 54.9633 160.433 54.9083 160.433C54.4674 160.434 54.0315 160.339 53.6304 160.156C53.2293 159.973 52.8724 159.705 52.5841 159.371Z" fill="#CCCCCC"/>
<path d="M107.324 156.997C106.856 156.973 106.399 156.843 105.989 156.615C105.579 156.388 105.226 156.069 104.958 155.684L97.2793 144.703L100.973 129.171L108.287 127.174L109.652 127.826L119.783 140.575C120.24 141.139 120.484 141.846 120.471 142.572C120.458 143.299 120.19 143.997 119.713 144.544L109.814 155.939C109.526 156.273 109.169 156.541 108.768 156.724C108.367 156.907 107.931 157.002 107.49 157.001C107.435 157.001 107.38 156.999 107.324 156.997Z" fill="#CCCCCC"/>
<path d="M451.351 151.908C451.357 152.072 451.301 152.232 451.193 152.355C451.08 152.488 450.919 152.57 450.745 152.584C450.571 152.597 450.399 152.541 450.266 152.428L448.064 150.526L410.618 118.235L305.589 27.6516C304.99 27.1382 304.227 26.8566 303.438 26.8578C302.649 26.859 301.887 27.1429 301.29 27.6582L159.853 150.658L158.578 151.763C158.529 151.806 158.473 151.842 158.413 151.868C158.308 151.915 158.192 151.933 158.078 151.921C157.914 151.904 157.762 151.826 157.651 151.704C157.593 151.639 157.55 151.564 157.522 151.482C157.494 151.4 157.482 151.314 157.488 151.228C157.493 151.141 157.516 151.057 157.554 150.98C157.592 150.902 157.645 150.833 157.71 150.776L157.887 150.618L300.428 26.6645C301.266 25.9444 302.333 25.5473 303.437 25.5449C304.541 25.5425 305.609 25.9349 306.45 26.6513L411.512 117.261L451.121 151.428C451.19 151.488 451.246 151.561 451.286 151.644C451.325 151.726 451.348 151.816 451.351 151.908Z" fill="#3F3D56"/>
<path d="M371.495 171.342L369.766 166.578L363.809 150.126L350.977 114.702L336.632 75.1062L310.763 3.68615C310.255 2.29339 309.216 1.1589 307.874 0.531094C306.532 -0.0967089 304.996 -0.166651 303.603 0.336584L154.035 54.6206C152.643 55.1285 151.509 56.1681 150.882 57.5115C150.255 58.8548 150.185 60.3923 150.689 61.7869L187.366 163.037L187.99 164.768L226.488 182.233L237.31 187.142L239.065 187.938L284.88 208.727L286.655 208.082L316.706 197.178L362.035 180.726L368.142 178.508C369.534 178.001 370.669 176.962 371.298 175.619C371.926 174.275 371.997 172.738 371.495 171.342Z" fill="#E6E6E6"/>
<path d="M308.777 87.0032C308.031 84.9535 306.504 83.2835 304.529 82.3596C302.555 81.4356 300.295 81.333 298.245 82.0743L239.065 103.56L210.487 113.931C209.472 114.299 208.539 114.863 207.741 115.591C206.944 116.32 206.297 117.199 205.839 118.177C205.381 119.156 205.121 120.216 205.072 121.295C205.023 122.375 205.187 123.454 205.555 124.47C205.923 125.486 206.488 126.419 207.217 127.217C207.945 128.014 208.824 128.66 209.802 129.118C210.78 129.575 211.839 129.835 212.918 129.883C213.996 129.931 215.074 129.765 216.088 129.396L239.065 121.058L303.853 97.5455C305.901 96.7986 307.569 95.2694 308.492 93.2932C309.415 91.317 309.518 89.055 308.777 87.0032Z" fill="white"/>
<path d="M319.197 115.775C318.451 113.725 316.923 112.055 314.949 111.131C312.975 110.207 310.715 110.104 308.665 110.846L298.64 114.485L239.065 136.109L220.907 142.696C218.859 143.441 217.191 144.969 216.268 146.945C215.346 148.921 215.245 151.182 215.987 153.233C216.729 155.283 218.254 156.954 220.227 157.88C222.2 158.805 224.459 158.909 226.508 158.167L239.065 153.607L314.273 126.31C314.444 126.251 314.608 126.179 314.773 126.106C316.682 125.268 318.202 123.734 319.023 121.815C319.845 119.897 319.907 117.737 319.197 115.775Z" fill="white"/>
<path d="M329.729 144.847C328.985 142.797 327.458 141.128 325.485 140.203C323.512 139.279 321.253 139.177 319.204 139.918L291.087 150.125L269.319 158.028L239.065 169.005L231.439 171.775C229.677 172.418 228.186 173.643 227.214 175.249C226.242 176.855 225.847 178.745 226.094 180.606C226.17 181.16 226.302 181.705 226.489 182.232L237.31 187.141L239.065 186.503H239.078L293.979 166.576L324.805 155.389C326.854 154.644 328.523 153.115 329.447 151.138C330.37 149.161 330.472 146.899 329.729 144.847H329.729Z" fill="white"/>
<path d="M268.11 58.72C267.364 56.6702 265.836 55.0003 263.862 54.0764C261.888 53.1524 259.628 53.0498 257.578 53.7911L223.59 66.1232C221.542 66.8682 219.874 68.3964 218.951 70.3721C218.028 72.3477 217.927 74.6092 218.67 76.6596C219.412 78.71 220.937 80.3814 222.91 81.3068C224.883 82.2321 227.142 82.3356 229.191 81.5944L239.946 77.6921L247.066 75.1059L263.186 69.2556C265.233 68.5103 266.902 66.9823 267.825 65.0071C268.748 63.0319 268.851 60.7708 268.11 58.72Z" fill="white"/>
<path d="M403.747 75.1055H244.652C243.714 75.1064 242.791 75.3438 241.969 75.7958C241.146 76.2477 240.45 76.8998 239.946 77.6917C239.369 78.5883 239.063 79.6326 239.064 80.699V187.938L284.88 208.726L291.336 211.654L301.532 216.281C302.129 216.551 302.777 216.69 303.432 216.69C304.087 216.69 304.735 216.551 305.332 216.281L315.529 211.654L347.44 197.177L377.181 183.68L409.335 169.097V80.699C409.334 79.2158 408.745 77.7936 407.697 76.7448C406.65 75.696 405.229 75.1064 403.747 75.1055Z" fill="#39B6FB"/>
<path d="M370.877 150.125H277.524C275.401 150.126 273.361 150.95 271.832 152.423C270.302 153.896 269.402 155.905 269.319 158.028C269.308 158.136 269.304 158.243 269.306 158.351C269.309 160.532 270.176 162.622 271.717 164.164C273.257 165.706 275.345 166.574 277.524 166.577H370.877C373.056 166.577 375.147 165.71 376.688 164.167C378.229 162.625 379.095 160.532 379.095 158.351C379.095 156.169 378.229 154.077 376.688 152.534C375.147 150.992 373.056 150.125 370.877 150.125Z" fill="white"/>
<path d="M376.195 182.686C374.713 181.417 372.826 180.721 370.876 180.725H277.523C275.344 180.725 273.254 181.591 271.713 183.134C270.171 184.677 269.306 186.769 269.306 188.95C269.306 191.132 270.171 193.224 271.713 194.767C273.254 196.31 275.344 197.176 277.523 197.176H347.44L377.181 183.679C376.881 183.321 376.551 182.988 376.195 182.686Z" fill="white"/>
<path d="M291.336 211.654L301.532 216.281C302.129 216.551 302.777 216.69 303.432 216.69C304.088 216.69 304.735 216.551 305.332 216.281L315.529 211.654H291.336Z" fill="white"/>
<path d="M349.997 115.057C349.418 113.473 348.368 112.106 346.987 111.14C345.607 110.173 343.963 109.655 342.279 109.654H306.121C304.542 109.656 302.998 110.112 301.671 110.968C300.344 111.825 299.292 113.046 298.64 114.485C298.153 115.55 297.902 116.708 297.903 117.88C297.906 120.061 298.773 122.151 300.314 123.693C301.854 125.235 303.942 126.103 306.121 126.106H342.279C343.601 126.106 344.903 125.787 346.076 125.176C347.248 124.564 348.256 123.679 349.014 122.594C349.771 121.51 350.256 120.258 350.427 118.946C350.599 117.634 350.451 116.3 349.997 115.057Z" fill="white"/>
<path d="M344.251 197.178L312.34 211.655L304.787 215.084C304.361 215.276 303.9 215.375 303.433 215.375C302.966 215.375 302.504 215.276 302.078 215.084L294.525 211.655H291.336L301.533 216.281C302.13 216.551 302.777 216.691 303.433 216.691C304.088 216.691 304.736 216.551 305.333 216.281L315.529 211.655L347.44 197.178H344.251ZM344.251 197.178L312.34 211.655L304.787 215.084C304.361 215.276 303.9 215.375 303.433 215.375C302.966 215.375 302.504 215.276 302.078 215.084L294.525 211.655H291.336L301.533 216.281C302.13 216.551 302.777 216.691 303.433 216.691C304.088 216.691 304.736 216.551 305.333 216.281L315.529 211.655L347.44 197.178H344.251ZM344.251 197.178L312.34 211.655L304.787 215.084C304.361 215.276 303.9 215.375 303.433 215.375C302.966 215.375 302.504 215.276 302.078 215.084L294.525 211.655H291.336L301.533 216.281C302.13 216.551 302.777 216.691 303.433 216.691C304.088 216.691 304.736 216.551 305.333 216.281L315.529 211.655L347.44 197.178H344.251ZM451.351 151.909C451.109 151.668 450.842 151.452 450.556 151.264C449.91 150.845 449.169 150.596 448.401 150.54C447.634 150.483 446.864 150.622 446.164 150.942L376.196 182.687L344.251 197.178L312.34 211.655L304.787 215.084C304.361 215.276 303.9 215.375 303.433 215.375C302.966 215.375 302.504 215.276 302.078 215.084L294.525 211.655L286.655 208.082L239.078 186.504L239.065 186.497L226.094 180.608L187.366 163.037L160.701 150.942C160.43 150.816 160.145 150.721 159.853 150.659C159.209 150.498 158.537 150.484 157.887 150.62C156.848 150.833 155.913 151.398 155.241 152.22C154.569 153.043 154.201 154.072 154.199 155.134V320.394C154.201 321.616 154.686 322.787 155.549 323.65C156.411 324.514 157.581 324.999 158.801 325.001H448.064C449.284 324.999 450.454 324.514 451.317 323.65C452.179 322.787 452.665 321.616 452.666 320.394V155.134C452.668 153.928 452.196 152.769 451.351 151.909V151.909ZM451.351 320.394C451.351 321.267 451.004 322.104 450.388 322.721C449.772 323.338 448.936 323.684 448.064 323.685H158.801C157.929 323.684 157.094 323.338 156.477 322.721C155.861 322.104 155.514 321.267 155.514 320.394V155.134C155.514 154.584 155.652 154.043 155.915 153.56C156.178 153.077 156.558 152.668 157.02 152.37C157.344 152.162 157.702 152.01 158.078 151.922C158.189 151.899 158.301 151.881 158.413 151.87C158.542 151.851 158.671 151.842 158.801 151.844C159.268 151.844 159.73 151.945 160.155 152.14L187.99 164.768L226.489 182.233L237.31 187.142L239.065 187.939L284.88 208.727L291.336 211.655L301.533 216.281C302.13 216.551 302.777 216.691 303.433 216.691C304.088 216.691 304.736 216.551 305.333 216.281L315.529 211.655L347.44 197.178L377.182 183.681L446.71 152.14C447.21 151.913 447.759 151.815 448.307 151.855C448.855 151.895 449.384 152.072 449.846 152.37C449.899 152.401 449.949 152.436 449.997 152.475C450.049 152.509 450.098 152.549 450.142 152.594C450.52 152.9 450.825 153.287 451.034 153.727C451.243 154.166 451.352 154.647 451.351 155.134L451.351 320.394ZM344.251 197.178L312.34 211.655L304.787 215.084C304.361 215.276 303.9 215.375 303.433 215.375C302.966 215.375 302.504 215.276 302.078 215.084L294.525 211.655H291.336L301.533 216.281C302.13 216.551 302.777 216.691 303.433 216.691C304.088 216.691 304.736 216.551 305.333 216.281L315.529 211.655L347.44 197.178H344.251ZM344.251 197.178L312.34 211.655L304.787 215.084C304.361 215.276 303.9 215.375 303.433 215.375C302.966 215.375 302.504 215.276 302.078 215.084L294.525 211.655H291.336L301.533 216.281C302.13 216.551 302.777 216.691 303.433 216.691C304.088 216.691 304.736 216.551 305.333 216.281L315.529 211.655L347.44 197.178H344.251ZM237.31 187.142L239.065 187.939V186.504L237.31 187.142ZM344.251 197.178L312.34 211.655L304.787 215.084C304.361 215.276 303.9 215.375 303.433 215.375C302.966 215.375 302.504 215.276 302.078 215.084L294.525 211.655H291.336L301.533 216.281C302.13 216.551 302.777 216.691 303.433 216.691C304.088 216.691 304.736 216.551 305.333 216.281L315.529 211.655L347.44 197.178H344.251Z" fill="#3F3D56"/>
<path d="M115.394 325H41.1057C40.9313 325 40.7641 324.93 40.6408 324.807C40.5175 324.684 40.4482 324.516 40.4482 324.342C40.4482 324.167 40.5175 324 40.6408 323.876C40.7641 323.753 40.9313 323.684 41.1057 323.684H115.394C115.568 323.684 115.735 323.753 115.859 323.876C115.982 324 116.051 324.167 116.051 324.342C116.051 324.516 115.982 324.684 115.859 324.807C115.735 324.93 115.568 325 115.394 325Z" fill="#3F3D56"/>
<path d="M73.8852 112.849C72.6723 112.233 71.6639 111.278 70.9818 110.101C70.2998 108.923 69.9735 107.572 70.0423 106.212C70.1112 104.853 70.5722 103.542 71.3698 102.439C72.1673 101.337 73.267 100.489 74.5359 99.9987C79.4083 98.1166 84.8706 101.958 89.978 100.866C95.0686 99.7772 98.0134 93.6853 96.7984 88.6186C95.5833 83.5519 91.1608 79.7357 86.2842 77.9131C83.0992 76.7258 79.6883 76.2705 76.3039 76.5811C72.9194 76.8916 69.648 77.96 66.7318 79.7071C63.8457 81.5054 61.442 83.9821 59.7298 86.922C58.0175 89.8618 57.0485 93.1758 56.907 96.5758C56.8407 99.9789 57.6713 103.339 59.3152 106.319C60.9591 109.298 63.3582 111.792 66.271 113.548C67.5691 114.297 69.0801 114.898 70.54 114.561C71.7386 114.171 72.8677 113.593 73.8852 112.849Z" fill="#2F2E41"/>
<path d="M68.6529 79.3142C64.3564 73.6098 58.5565 68.9235 51.8075 66.6001C45.0586 64.2767 37.3462 64.4633 31.0077 67.7467C24.6693 71.0301 19.9423 77.551 19.4489 84.6779C18.6277 96.5394 28.7529 106.622 29.792 118.466C30.1214 122.221 29.5127 125.998 28.0206 129.458C26.5286 132.918 24.2001 135.953 21.2449 138.288C18.2898 140.623 14.8007 142.185 11.092 142.835C7.38338 143.484 3.57159 143.2 0 142.008C2.5439 144.104 5.49334 145.651 8.66305 146.551C11.8328 147.452 15.1543 147.686 18.4189 147.24C21.6782 146.75 24.7877 145.541 27.5221 143.699C30.2565 141.857 32.5471 139.43 34.2279 136.592C36.5067 132.629 37.4424 128.025 37.8059 123.467C38.3767 116.259 37.6037 109.008 35.5261 102.084C34.3904 98.3058 32.8502 94.4178 33.5704 90.5389C33.9809 88.5213 34.9747 86.6689 36.4281 85.2118C37.8815 83.7548 39.7307 82.7574 41.7457 82.3435C45.0021 81.7327 48.3315 82.7276 51.4408 83.8725C54.5502 85.0174 57.6851 86.3424 60.9973 86.4182C64.3095 86.494 67.9172 84.9763 69.1972 81.9175L68.6529 79.3142Z" fill="#2F2E41"/>
</g>
<defs>
<clipPath id="clip0">
<rect width="500" height="325" fill="white"/>
</clipPath>
</defs>
</svg>
