
<svg width="544" height="302" viewBox="0 0 544 302" fill="none" xmlns="http://www.w3.org/2000/svg">
<path d="M502.291 241.356C501.685 242.663 501.08 243.953 500.478 245.225C499.538 247.202 498.609 249.14 497.693 251.04C497.286 251.882 496.878 252.709 496.481 253.535C491.989 262.723 487.794 270.849 484.231 277.532C481 283.591 476.201 288.668 470.336 292.231C464.471 295.794 457.756 297.713 450.896 297.786L371.672 298.648H370.836L364.044 298.722L358.235 298.784L340.436 298.988H339.716L330.646 299.088H330.37L274.471 299.694L224.576 300.217L218.771 300.28L182.725 300.672H182.667L159.289 300.923H159.039L85.1171 301.723L63.0034 301.964C61.1204 301.985 59.2379 301.891 57.3665 301.681C56.7292 301.608 56.0918 301.525 55.4597 301.425C45.1462 299.832 35.6895 294.749 28.6651 287.024C19.1519 276.502 12.2299 264.318 7.58047 251.04C6.90829 249.127 6.2814 247.188 5.69978 245.225C-10.3958 190.741 9.22607 120.479 44.5412 73.4727C46.0214 71.5065 47.526 69.5891 49.0549 67.7205L49.0915 67.6786C59.9525 54.3333 72.1299 43.1844 85.1015 35.2567C108.088 21.1845 133.555 17.2207 158.605 29.0338C179.799 39.0323 199.588 43.7335 218.771 45.0094C220.71 45.1349 222.648 45.229 224.576 45.2866C268.578 46.6724 309.818 30.8013 358.246 20.557C360.173 20.1491 362.106 19.7464 364.055 19.3647C398.602 12.4829 436.926 8.85371 482.502 16.4833C487.237 17.2576 491.909 18.3762 496.481 19.8301C498.491 20.4785 500.427 21.1758 502.291 21.9218C524.044 30.7804 535.908 47.1482 540.949 67.6577C541.426 69.5612 541.839 71.4978 542.187 73.4675C551.126 122.801 524.948 192.78 502.291 241.356Z" fill="#F2F2F2"/>
<path opacity="0.1" d="M259.65 245.224C259.44 247.18 259.113 249.122 258.673 251.039H307.623V245.224H259.65ZM218.771 278.07L224.575 278.023V263.658C222.585 263.569 220.647 263.48 218.771 263.386V278.07ZM97.0906 245.224V251.039H200.79V245.224H97.0906ZM540.975 67.6616H502.317V21.9257C500.453 21.1657 498.517 20.4685 496.507 19.834V67.6825H364.055V19.3477C362.106 19.7294 360.173 20.1321 358.245 20.5399V67.6616H224.575V45.2695C222.648 45.212 220.709 45.1179 218.771 44.9924V67.6616H85.1012V35.2396C72.1297 43.1673 59.9522 54.3163 49.0913 67.6616H49.0547V67.7034C47.5223 69.586 46.0177 71.5034 44.541 73.4557H49.0547V245.224H5.69434C6.27247 247.187 6.89937 249.125 7.57502 251.039H49.0495V299.996C51.1362 300.635 53.2662 301.123 55.4229 301.455C56.055 301.555 56.6924 301.638 57.3297 301.711C59.2011 301.921 61.0836 302.015 62.9666 301.994L85.0803 301.753V251.029H218.771V300.294L224.575 300.232V251.039H358.245V298.788L364.055 298.725V251.039H496.481V253.534C496.878 252.707 497.286 251.881 497.693 251.039C498.609 249.143 499.537 247.204 500.478 245.224C501.08 243.952 501.684 242.662 502.29 241.354V73.4923H542.213C541.862 71.5087 541.449 69.5651 540.975 67.6616ZM85.1012 245.224V73.4714H218.771V245.224H85.1012ZM224.586 245.224V73.4714H358.245V245.224H224.586ZM496.492 245.224H364.055V73.4714H496.481L496.492 245.224Z" fill="black"/>
<path d="M436.075 184.638C428.836 171.257 418.577 159.752 406.114 151.039C405.223 150.424 404.196 150.036 403.121 149.91C404.589 140.246 404.281 129.568 398.832 121.514C385.902 102.406 320.026 122.126 320.026 122.126C273.849 106.104 233.827 126.44 233.827 126.44C233.827 126.44 182.725 118.429 159.331 124.595C148.298 127.502 145.618 138.766 145.868 149.863H145.832C144.854 149.861 143.888 150.08 143.006 150.504C142.124 150.928 141.349 151.545 140.738 152.31C134.516 160.091 115.72 184.057 116.232 188.685C116.848 194.234 137.165 266.336 136.246 301.158L420.068 298.021C420.068 298.021 424.77 227.947 436.529 189.59C437.039 187.944 436.875 186.163 436.075 184.638Z" fill="#3F3D56"/>
<path opacity="0.1" d="M139.944 188.998L151.641 165.576L161.489 211.181L161.604 232.35L139.944 188.998Z" fill="black"/>
<path opacity="0.1" d="M408.371 188.998L396.674 165.576L383.107 208.818L385.719 233.396L408.371 188.998Z" fill="black"/>
<path d="M160.632 209.937L383.128 208.719L385.594 233.37L161.489 232.753L160.632 209.937Z" fill="#3F3D56"/>
<path opacity="0.1" d="M160.632 209.937L383.128 208.719L385.594 233.37L161.489 232.753L160.632 209.937Z" fill="black"/>
<path opacity="0.1" d="M381.294 230.971H166.028C163.007 230.971 160.559 233.422 160.559 236.446V251.998C160.559 255.022 163.007 257.473 166.028 257.473H381.294C384.315 257.473 386.764 255.022 386.764 251.998V236.446C386.764 233.422 384.315 230.971 381.294 230.971Z" fill="white"/>
<path d="M340.473 142.311C340.473 142.311 339.721 141.265 338.833 141.829C338.409 142.107 336.419 144.617 334.465 147.169C333.504 148.418 332.548 149.679 331.79 150.683C330.855 151.917 330.223 152.774 330.223 152.774L329.847 153.48L327.564 157.753L325.417 161.769L324.895 163.662L332.146 166.13L340.4 163.876L340.045 162.344L339.982 162.083L340.05 158.558L340.238 148.622L340.327 144.151V143.628L340.473 142.311Z" fill="#FFE09C"/>
<path d="M323.87 166.805C323.87 166.805 331.706 169.603 335.724 168.138C335.724 168.138 339.198 167.03 340.566 165.958C340.566 165.958 342.024 165.194 340.044 162.705C340.044 162.705 334.971 165.817 330.17 164.593L325.369 163.364L323.87 166.805Z" fill="#E7C4C3"/>
<path d="M332.611 163.266C333.833 162.549 334.332 161.128 333.725 160.091C333.118 159.055 331.636 158.795 330.413 159.512C329.191 160.229 328.692 161.651 329.299 162.687C329.906 163.724 331.389 163.983 332.611 163.266Z" fill="#FF7F8E"/>
<path d="M337.822 157.012C339.044 156.295 339.543 154.874 338.936 153.837C338.329 152.801 336.846 152.542 335.624 153.258C334.402 153.975 333.903 155.397 334.51 156.434C335.117 157.47 336.599 157.729 337.822 157.012Z" fill="#FF7F8E"/>
<path d="M340.044 158.559C339.65 158.394 339.223 158.326 338.798 158.36C338.373 158.394 337.962 158.528 337.599 158.752C336.376 159.469 335.875 160.891 336.486 161.927C337.097 162.962 338.576 163.223 339.793 162.507C339.877 162.455 339.96 162.402 340.039 162.345L339.976 162.083L340.044 158.559Z" fill="#FF7F8E"/>
<path d="M331.179 154.411C331.034 154.171 330.84 153.964 330.609 153.803C330.379 153.643 330.117 153.533 329.842 153.48L327.559 157.753C327.958 157.933 328.396 158.012 328.833 157.983C329.271 157.954 329.694 157.817 330.066 157.586C331.289 156.869 331.785 155.447 331.179 154.411Z" fill="#FF7F8E"/>
<path d="M336.257 148.153C336.068 147.851 335.806 147.602 335.494 147.43C335.182 147.258 334.832 147.168 334.476 147.17C333.514 148.42 332.558 149.68 331.801 150.684L331.832 150.747C332.438 151.793 333.922 152.038 335.144 151.322C336.367 150.606 336.853 149.188 336.257 148.153Z" fill="#FF7F8E"/>
<path d="M340.322 144.146C340.052 144.214 339.794 144.32 339.554 144.46C338.331 145.177 337.835 146.599 338.441 147.634C338.631 147.938 338.895 148.188 339.209 148.36C339.522 148.532 339.875 148.621 340.233 148.618L340.322 144.146Z" fill="#FF7F8E"/>
<path d="M328.154 161.293L327.736 160.587C328.362 160.4 328.94 160.079 329.429 159.646C329.46 159.614 329.486 159.578 329.513 159.546C330.035 158.887 329.925 160.258 329.925 160.258C329.925 160.258 328.64 161.351 328.154 161.293Z" fill="#94CC79"/>
<path d="M334.318 160.201L333.9 159.489C334.526 159.301 335.103 158.98 335.593 158.548C335.593 158.517 335.65 158.485 335.677 158.449C336.199 157.795 336.089 159.16 336.089 159.16C336.089 159.16 334.804 160.258 334.318 160.201Z" fill="#94CC79"/>
<path d="M333.754 157.272L333.336 156.561C333.961 156.374 334.538 156.055 335.029 155.625C335.055 155.588 335.086 155.557 335.112 155.525C335.635 154.867 335.525 156.231 335.525 156.231C335.525 156.231 334.24 157.319 333.754 157.272Z" fill="#94CC79"/>
<path d="M334.502 151.992L334.084 151.28C334.709 151.092 335.287 150.771 335.777 150.339C335.777 150.308 335.834 150.276 335.86 150.24C336.383 149.581 336.273 150.951 336.273 150.951C336.273 150.951 334.988 152.044 334.502 151.992Z" fill="#94CC79"/>
<path d="M338.038 145.601L337.625 144.89C338.249 144.702 338.825 144.381 339.312 143.948C339.343 143.918 339.371 143.885 339.396 143.849C339.918 143.195 339.814 144.56 339.814 144.56C339.814 144.56 338.524 145.653 338.038 145.601Z" fill="#94CC79"/>
<path d="M337.642 152.122L337.224 151.41C337.849 151.225 338.427 150.906 338.916 150.474C338.916 150.438 338.974 150.406 339 150.375C339.522 149.716 339.413 151.081 339.413 151.081C339.413 151.081 338.127 152.179 337.642 152.122Z" fill="#94CC79"/>
<path d="M322.585 164.594C322.585 164.594 321.582 167.209 323.87 166.79C324.889 165.609 325.585 164.184 325.892 162.654C325.892 162.654 330.839 151.803 332.302 150.809C332.302 150.809 338.749 141.988 339.443 141.857C339.443 141.857 339.668 140.999 337.416 142.814C335.165 144.628 330.233 151.615 330.233 151.615L325.532 159.286L324.424 162.345L322.585 164.594Z" fill="#E7C4C3"/>
<path opacity="0.2" d="M322.585 164.594C322.585 164.594 321.582 167.209 323.87 166.79C324.889 165.609 325.585 164.184 325.892 162.654C325.892 162.654 330.839 151.803 332.302 150.809C332.302 150.809 338.749 141.988 339.443 141.857C339.443 141.857 339.668 140.999 337.416 142.814C335.165 144.628 330.233 151.615 330.233 151.615L325.532 159.286L324.424 162.345L322.585 164.594Z" fill="white"/>
<path d="M244.876 217.708C245.738 220.544 246.8 223.316 248.052 226.002C251.65 225.249 255.188 224.239 258.642 222.979C258.751 222.943 256.662 220.208 256.442 219.983C255.591 219.042 254.577 218.262 253.449 217.682C252.347 217.201 250.988 217.567 249.792 217.63C248.162 217.713 246.523 217.74 244.876 217.708Z" fill="#FBBEBE"/>
<path d="M253.471 222.002C251.674 221.437 250.576 219.623 249.845 217.876C249.114 216.129 248.523 214.215 247.134 212.939C246.87 212.98 246.62 213.085 246.407 213.245C246.193 213.406 246.023 213.617 245.911 213.86C245.694 214.35 245.452 214.828 245.185 215.293C244.61 216.129 243.618 216.537 242.86 217.248C242.103 217.96 241.68 219.042 240.891 219.759C239.898 220.658 238.498 220.883 237.197 221.181C235.182 221.639 233.236 222.36 231.409 223.325C230.737 223.731 230.017 224.054 229.267 224.287C228.441 224.448 227.595 224.477 226.76 224.371L221.013 223.963C220.501 223.897 219.982 223.918 219.477 224.026C218.896 224.238 218.402 224.637 218.071 225.16C217.74 225.683 217.592 226.301 217.649 226.917C217.722 227.532 217.922 228.124 218.235 228.658C218.547 229.191 218.967 229.655 219.467 230.018C220.471 230.733 221.577 231.292 222.747 231.676C227.76 233.573 232.922 235.049 238.18 236.09V237.23C241.834 239.033 245.854 239.971 249.929 239.97C250.229 239.991 250.53 239.939 250.806 239.818C251.183 239.545 251.447 239.143 251.548 238.689C252.931 234.639 253.739 230.414 253.946 226.138C254.048 225.057 253.965 223.965 253.7 222.912C253.387 221.866 254.463 222.31 253.465 221.903" fill="#2F2E41"/>
<path d="M363.867 200.28C346.8 201.325 329.91 196.3 312.848 195.767C310.723 195.632 308.591 195.769 306.501 196.175C304.306 196.666 302.259 197.66 300.232 198.611C291.063 202.879 281.587 206.414 272.115 209.943L261.239 214.001C259.065 214.812 256.814 215.633 254.5 215.492C253.455 215.429 252.185 215.272 251.605 216.135C249.834 218.75 250.67 222.614 251.84 225.548C252.217 226.5 252.885 227.535 253.878 227.64C254.594 227.713 255.262 227.3 255.968 227.117C257.947 226.594 259.922 227.922 261.96 228.136C264.478 228.403 266.813 226.97 269.19 226.092C273.129 224.633 277.439 224.68 281.581 224C288.53 222.839 294.966 219.613 300.984 215.936C303.272 214.535 305.592 213.034 308.225 212.522C311.249 211.931 314.358 212.71 317.33 213.567C324.405 215.57 331.37 217.944 338.195 220.679C341.79 222.123 345.363 223.665 349.104 224.664C357.195 226.794 365.753 226.294 373.542 223.236C376.269 222.154 379.242 220.245 379.398 217.296C379.487 215.612 378.181 214.158 377.309 212.694C376.755 211.768 376.196 210.848 375.585 209.959C372.623 205.64 369.049 199.971 363.867 200.28Z" fill="#2F2E41"/>
<path opacity="0.1" d="M363.867 200.28C346.8 201.325 329.91 196.3 312.848 195.767C310.723 195.632 308.591 195.769 306.501 196.175C304.306 196.666 302.259 197.66 300.232 198.611C291.063 202.879 281.587 206.414 272.115 209.943L261.239 214.001C259.065 214.812 256.814 215.633 254.5 215.492C253.455 215.429 252.185 215.272 251.605 216.135C249.834 218.75 250.67 222.614 251.84 225.548C252.217 226.5 252.885 227.535 253.878 227.64C254.594 227.713 255.262 227.3 255.968 227.117C257.947 226.594 259.922 227.922 261.96 228.136C264.478 228.403 266.813 226.97 269.19 226.092C273.129 224.633 277.439 224.68 281.581 224C288.53 222.839 294.966 219.613 300.984 215.936C303.272 214.535 305.592 213.034 308.225 212.522C311.249 211.931 314.358 212.71 317.33 213.567C324.405 215.57 331.37 217.944 338.195 220.679C341.79 222.123 345.363 223.665 349.104 224.664C357.195 226.794 365.753 226.294 373.542 223.236C376.269 222.154 379.242 220.245 379.398 217.296C379.487 215.612 378.181 214.158 377.309 212.694C376.755 211.768 376.196 210.848 375.585 209.959C372.623 205.64 369.049 199.971 363.867 200.28Z" fill="black"/>
<path d="M277.642 218.54C280.309 219.45 283.005 220.289 285.729 221.056C287.249 218.556 290.096 216.815 290.744 213.959C290.771 213.896 290.785 213.828 290.783 213.759C290.782 213.691 290.767 213.623 290.738 213.561C290.709 213.498 290.667 213.443 290.614 213.398C290.562 213.353 290.501 213.32 290.436 213.301C288.49 212.222 286.329 211.588 284.109 211.444C282.354 211.334 281.555 213.165 280.755 214.456C280.437 214.974 278.357 218.786 277.642 218.54Z" fill="#FBBEBE"/>
<path d="M281.404 216.715C280.606 216.58 279.845 216.28 279.169 215.836C278.493 215.391 277.916 214.811 277.475 214.131C277.099 213.472 276.697 212.563 275.945 212.631C275.192 212.699 274.9 213.514 274.764 214.199C274.257 216.792 273.521 219.335 272.565 221.798C271.604 224.265 269.976 226.416 267.863 228.01C266.87 228.695 265.773 229.213 264.802 229.934C263.929 230.578 263.172 231.393 262.19 231.89C261.548 232.188 260.884 232.436 260.204 232.633C259.207 232.985 258.254 233.45 257.362 234.019C256.579 234.472 255.917 235.107 255.43 235.87C255.183 236.256 255.039 236.699 255.011 237.156C254.983 237.614 255.071 238.071 255.268 238.484C255.474 238.823 255.75 239.113 256.077 239.336C256.404 239.56 256.774 239.712 257.164 239.781C257.942 239.917 258.736 239.939 259.52 239.844C262.628 239.614 265.737 239.321 268.845 239.06C270.159 238.98 271.465 238.805 272.753 238.537C273.437 238.369 274.101 238.155 274.78 237.977C275.942 237.678 277.133 237.503 278.332 237.454C278.683 237.427 279.036 237.459 279.377 237.548C280.098 237.784 280.605 238.5 281.352 238.647C281.828 238.692 282.309 238.628 282.757 238.458C284.993 237.846 287.349 237.862 289.663 237.737C290.708 237.684 291.878 237.491 292.348 236.576C292.934 235.436 291.962 234.16 291.581 232.915C291.386 232.133 291.277 231.331 291.257 230.525C291.081 228.536 290.497 226.605 289.543 224.852C288.754 223.398 287.673 221.787 288.227 220.224C288.415 219.701 288.791 219.178 288.749 218.655C288.571 216.15 282.82 217.013 281.404 216.715Z" fill="#2F2E41"/>
<path d="M338.273 172.872C335.252 171.536 332.833 169.127 331.482 166.11C331.195 165.462 330.96 164.787 330.688 164.134C329.792 161.958 328.4 160.022 326.624 158.481C326.433 158.272 326.199 158.107 325.938 157.997C325.678 157.886 325.396 157.834 325.114 157.843C324.84 157.926 324.594 158.08 324.4 158.29C324.205 158.499 324.069 158.756 324.006 159.035C323.85 159.63 323.811 160.25 323.891 160.86C324.044 162.297 324.292 163.723 324.633 165.127L325.459 168.898C325.56 169.479 325.736 170.045 325.981 170.581C326.335 171.217 326.805 171.781 327.365 172.244C328.123 172.945 328.891 173.62 329.669 174.279C330.754 175.318 332.168 175.947 333.666 176.057C337.051 176.684 340.499 177.594 343.362 179.806C343.325 179.806 343.362 177.275 343.299 176.987C343.168 176.229 343.064 175.476 342.573 174.964C341.45 173.813 339.626 173.484 338.273 172.872Z" fill="#FBBEBE"/>
<path opacity="0.1" d="M338.273 172.872C335.252 171.536 332.833 169.127 331.482 166.11C331.195 165.462 330.96 164.787 330.688 164.134C329.792 161.958 328.4 160.022 326.624 158.481C326.433 158.272 326.199 158.107 325.938 157.997C325.678 157.886 325.396 157.834 325.114 157.843C324.84 157.926 324.594 158.08 324.4 158.29C324.205 158.499 324.069 158.756 324.006 159.035C323.85 159.63 323.811 160.25 323.891 160.86C324.044 162.297 324.292 163.723 324.633 165.127L325.459 168.898C325.56 169.479 325.736 170.045 325.981 170.581C326.335 171.217 326.805 171.781 327.365 172.244C328.123 172.945 328.891 173.62 329.669 174.279C330.754 175.318 332.168 175.947 333.666 176.057C337.051 176.684 340.499 177.594 343.362 179.806C343.325 179.806 343.362 177.275 343.299 176.987C343.168 176.229 343.064 175.476 342.573 174.964C341.45 173.813 339.626 173.484 338.273 172.872Z" fill="black"/>
<path d="M373.03 144.001C375.324 144.001 377.183 142.13 377.183 139.823C377.183 137.515 375.324 135.645 373.03 135.645C370.736 135.645 368.877 137.515 368.877 139.823C368.877 142.13 370.736 144.001 373.03 144.001Z" fill="#2F2E41"/>
<path d="M370.459 137.296C369.336 137.17 368.082 137.081 367.178 137.772C366.698 138.194 366.315 138.715 366.055 139.299C365.126 140.897 364.401 142.607 363.897 144.387C363.526 145.914 363.464 147.524 363.004 149.009C362.153 151.791 359.974 154.139 359.723 157.042C359.614 158.339 359.833 159.86 358.882 160.749C358.65 160.945 358.402 161.119 358.14 161.272C357.483 161.713 356.926 162.286 356.505 162.956C356.22 163.558 355.827 164.102 355.345 164.561C354.499 165.189 353.099 165.121 352.681 166.094C352.263 167.066 353.339 168.185 353.089 169.231C352.885 170.089 351.929 170.481 351.271 171.067C350.424 171.815 350.038 172.939 349.703 174.016C348.315 174.279 346.887 174.238 345.516 173.896C344.146 173.553 342.865 172.918 341.763 172.034C342.917 174.889 342.943 178.043 342.996 181.128C342.996 182.127 342.996 183.251 342.264 183.947C345.571 184.02 348.794 184.914 352.018 185.646C353.428 185.965 354.959 186.242 356.27 185.646C357.01 185.247 357.671 184.716 358.219 184.077C359.974 182.294 361.813 180.354 362.241 177.881C362.482 176.5 362.241 175.078 362.314 173.697C362.476 171.963 362.826 170.251 363.359 168.593C364.289 165.155 364.913 161.641 365.224 158.093C365.412 155.907 367.314 154.145 368.296 152.184C370.177 148.492 372.094 144.643 372.235 140.496C372.303 139.126 371.833 137.447 370.459 137.296Z" fill="#2F2E41"/>
<path opacity="0.1" d="M370.459 137.296C369.336 137.17 368.082 137.081 367.178 137.772C366.698 138.194 366.315 138.715 366.055 139.299C365.126 140.897 364.401 142.607 363.897 144.387C363.526 145.914 363.464 147.524 363.004 149.009C362.153 151.791 359.974 154.139 359.723 157.042C359.614 158.339 359.833 159.86 358.882 160.749C358.65 160.945 358.402 161.119 358.14 161.272C357.483 161.713 356.926 162.286 356.505 162.956C356.22 163.558 355.827 164.102 355.345 164.561C354.499 165.189 353.099 165.121 352.681 166.094C352.263 167.066 353.339 168.185 353.089 169.231C352.885 170.089 351.929 170.481 351.271 171.067C350.424 171.815 350.038 172.939 349.703 174.016C348.315 174.279 346.887 174.238 345.516 173.896C344.146 173.553 342.865 172.918 341.763 172.034C342.917 174.889 342.943 178.043 342.996 181.128C342.996 182.127 342.996 183.251 342.264 183.947C345.571 184.02 348.794 184.914 352.018 185.646C353.428 185.965 354.959 186.242 356.27 185.646C357.01 185.247 357.671 184.716 358.219 184.077C359.974 182.294 361.813 180.354 362.241 177.881C362.482 176.5 362.241 175.078 362.314 173.697C362.476 171.963 362.826 170.251 363.359 168.593C364.289 165.155 364.913 161.641 365.224 158.093C365.412 155.907 367.314 154.145 368.296 152.184C370.177 148.492 372.094 144.643 372.235 140.496C372.303 139.126 371.833 137.447 370.459 137.296Z" fill="black"/>
<path d="M366.557 203.876C363.005 202.182 360.403 199.028 357.53 196.325C352.044 191.169 345.331 187.519 339.564 182.681C335.74 179.481 332.323 175.747 328.123 173.065C324.426 170.713 320.238 169.245 315.883 168.777C315.384 168.688 314.871 168.713 314.383 168.85C313.833 169.094 313.353 169.473 312.989 169.953C311.128 172.056 309.473 174.332 308.047 176.751C300.733 189.171 290.347 199.63 281.743 211.171C281.471 211.446 281.31 211.811 281.291 212.197C281.272 212.583 281.395 212.962 281.639 213.263L283.389 216.693C284.366 218.618 285.938 220.877 288.049 220.474C289.015 220.296 289.783 219.585 290.493 218.905L298.33 211.391L306.568 203.505C311.395 198.887 316.301 194.16 319.451 188.256C321.906 192.523 326.274 195.316 329.267 199.238C330.406 200.723 331.357 202.375 332.349 203.944C333.979 206.465 335.834 208.833 337.683 211.197L347.134 223.272C348.419 224.914 349.746 226.598 351.506 227.711C353.747 229.129 356.469 229.505 359.102 229.74C362.652 230.058 366.217 230.187 369.78 230.127C372.497 230.08 375.297 229.902 377.737 228.695C380.176 227.487 382.177 225.034 382.052 222.273C381.902 220.854 381.436 219.487 380.688 218.272C377.334 212.05 372.92 206.899 366.557 203.876Z" fill="#2F2E41"/>
<path d="M375.585 145.93C377.347 145.93 378.776 144.49 378.776 142.714C378.776 140.938 377.347 139.498 375.585 139.498C373.822 139.498 372.393 140.938 372.393 142.714C372.393 144.49 373.822 145.93 375.585 145.93Z" fill="#E8E8F0"/>
<path d="M374.879 140.299C375.597 141.73 375.723 143.387 375.229 144.911C374.735 146.414 374.045 147.846 373.176 149.168C372.429 150.533 371.534 151.811 370.507 152.98C375.433 153.221 380.213 151.286 384.56 148.938C388.06 147.055 391.55 144.723 393.441 141.198C392.885 141.333 392.307 141.349 391.744 141.246C391.182 141.142 390.647 140.921 390.176 140.597C389.238 139.941 388.397 139.156 387.679 138.265L385.202 135.477C384.621 134.872 384.111 134.201 383.682 133.48C383.145 132.493 382.918 131.366 383.029 130.248C382.046 131.279 380.947 132.191 379.754 132.967C377.988 134.118 376.039 134.954 374.268 136.105C373.641 136.508 372.241 137.151 372.602 137.982C372.962 138.814 374.394 139.42 374.879 140.299Z" fill="#FBBEBE"/>
<path opacity="0.1" d="M374.879 140.299C375.597 141.73 375.723 143.387 375.229 144.911C374.735 146.414 374.045 147.846 373.176 149.168C372.429 150.533 371.534 151.811 370.507 152.98C375.433 153.221 380.213 151.286 384.56 148.938C388.06 147.055 391.55 144.723 393.441 141.198C392.885 141.333 392.307 141.349 391.744 141.246C391.182 141.142 390.647 140.921 390.176 140.597C389.238 139.941 388.397 139.156 387.679 138.265L385.202 135.477C384.621 134.872 384.111 134.201 383.682 133.48C383.145 132.493 382.918 131.366 383.029 130.248C382.046 131.279 380.947 132.191 379.754 132.967C377.988 134.118 376.039 134.954 374.268 136.105C373.641 136.508 372.241 137.151 372.602 137.982C372.962 138.814 374.394 139.42 374.879 140.299Z" fill="black"/>
<path d="M374.947 140.785C374.023 142.353 373.824 144.184 374.947 145.606C375.088 145.784 375.606 146.882 375.83 146.893C376.048 146.871 376.249 146.768 376.395 146.605C377.591 145.512 378.484 144.116 379.529 142.876C380.574 141.637 381.906 140.513 383.505 140.262C385.432 139.964 387.297 140.983 388.985 141.972C389.719 142.33 390.359 142.855 390.855 143.504C391.211 144.148 391.421 144.862 391.471 145.596C392.051 149.994 392.041 154.449 392.025 158.883C392.025 162.094 392.025 165.321 391.398 168.469C391.085 170.1 390.615 171.695 390.39 173.337C390.229 174.787 390.164 176.246 390.197 177.704V183.812C390.154 184.933 390.233 186.055 390.432 187.158C390.719 188.497 391.351 189.731 391.774 191.033C392.211 192.53 392.51 194.063 392.668 195.614L393.504 201.937C393.765 203.929 393.958 206.12 392.757 207.689C392.234 208.411 391.497 208.991 390.949 209.713C388.859 212.401 389.544 216.244 388.682 219.533C388.003 221.941 386.607 224.085 384.68 225.678C383.202 226.933 381.295 227.916 379.398 227.566C376.833 227.09 375.292 224.428 374.592 221.881C373.892 219.335 373.641 216.6 372.126 214.466C370.888 212.72 368.992 211.621 367.237 210.377C365.481 209.132 363.81 207.527 363.433 205.414C363.266 204.494 363.371 203.547 363.271 202.616C363.135 201.437 362.684 200.315 361.965 199.37C361.246 198.425 360.286 197.691 359.186 197.246C357.875 196.723 356.255 196.55 355.529 195.348C357.441 194.27 358.706 192.278 359.374 190.181C360.043 188.084 360.179 185.856 360.309 183.66L360.748 176.313C360.941 173.029 361.03 169.776 362.477 166.827C363.12 165.504 363.924 164.27 364.598 162.968C365.487 161.135 366.247 159.243 366.871 157.304C367.916 154.292 368.961 151.28 369.901 148.231C370.275 146.758 370.833 145.339 371.562 144.006C372.304 142.73 373.464 141.062 374.947 140.785Z" fill="#39B6FB"/>
<path d="M358.648 188.518L360.591 188.586L361.004 185.652C361.057 185.064 361.194 184.486 361.411 183.937C361.733 183.358 362.107 182.811 362.529 182.3C364.441 179.597 364.3 176.025 364.776 172.725C365.408 168.343 367.236 164.243 369.044 160.212L372.826 151.798C373.575 150.368 373.936 148.767 373.871 147.154C373.908 145.852 374.289 141.125 374.326 139.833C374.326 139.352 373.281 139.619 373.046 139.19C372.575 138.254 371.928 140.79 371.045 141.344C370.162 141.899 369.671 142.913 369.3 143.886C368.485 146.004 367.989 148.231 367.21 150.37C366.432 152.509 365.397 154.611 363.689 156.122C362.916 156.802 362.028 157.336 361.296 158.062C358.951 160.384 358.721 164.05 358.637 167.36C358.596 169.3 358.199 188.518 358.648 188.518Z" fill="#2F2E41"/>
<path d="M386.607 137.276C384.721 138.018 383.687 140.068 383.159 142.034C382.631 144 382.412 146.103 381.398 147.865C379.027 151.991 372.988 153.194 371.321 157.654C370.799 159.113 370.799 160.713 370.647 162.267C370.344 165.462 369.294 168.542 368.986 171.742C368.821 174.225 368.879 176.717 369.158 179.189L371.248 204.389C371.556 208.049 371.546 211.935 370.616 215.47C372.753 215.883 374.978 215.329 376.958 214.424C378.938 213.519 380.751 212.275 382.657 211.224C385.938 209.409 389.559 208.128 392.432 205.712C392.953 205.307 393.398 204.813 393.748 204.253C394.323 203.259 394.375 202.051 394.647 200.932C394.895 200.038 395.211 199.164 395.592 198.318C396.645 195.778 397.562 193.184 398.34 190.547C398.875 188.798 399.295 187.016 399.599 185.213C399.829 183.78 399.955 182.326 400.08 180.878C400.233 178.608 400.683 176.368 401.417 174.216C403.253 169.084 404.294 163.702 404.505 158.256C404.564 157.469 404.509 156.678 404.343 155.908C404.021 154.973 403.593 154.078 403.068 153.241C402.191 151.588 401.663 149.768 400.838 148.085C398.967 144.293 395.66 141.412 392.202 139.001C390.52 137.825 388.535 136.523 386.607 137.276Z" fill="#2F2E41"/>
<path d="M342.479 178.388C340.979 177.6 339.621 176.566 338.462 175.329C337.939 174.712 337.5 174.017 336.962 173.41C335.606 171.959 333.843 170.953 331.905 170.523C329.983 170.101 328.017 169.909 326.049 169.953C324.732 169.869 323.411 170.029 322.152 170.424C321.522 170.63 320.955 170.993 320.503 171.479C320.052 171.965 319.731 172.557 319.571 173.201C319.284 174.77 320.308 176.291 321.536 177.301C322.679 178.234 324.024 178.888 325.464 179.209C326.638 179.413 327.822 179.551 329.011 179.622C336.001 180.355 342.239 184.162 348.341 187.629C353.721 190.679 359.205 193.527 364.791 196.173C365.012 194.497 365.104 192.807 365.068 191.117C365.037 189.856 364.974 187.932 363.783 187.189C362.399 186.327 360.126 186.143 358.559 185.621C354.958 184.439 351.441 183.015 348.032 181.359C346.148 180.435 344.297 179.445 342.479 178.388Z" fill="#FBBEBE"/>
<path d="M385.402 129.789C387.16 123.094 383.193 116.247 376.541 114.497C369.889 112.746 363.07 116.754 361.312 123.449C359.553 130.145 363.521 136.991 370.173 138.742C376.825 140.493 383.644 136.484 385.402 129.789Z" fill="#FBBEBE"/>
<path d="M390.17 151.489C389.057 152.786 388.498 154.459 387.751 155.996C386.215 159.165 383.801 161.885 382.595 165.2C381.32 168.693 381.362 172.845 378.865 175.591C378.431 176.067 377.909 176.527 377.783 177.16C377.766 177.544 377.722 177.926 377.653 178.305C377.297 179.298 375.667 179.351 375.364 180.365C375.276 180.663 375.323 180.987 375.213 181.28C374.962 181.934 374.1 182.033 373.52 182.431C372.308 183.252 372.554 185.155 371.692 186.342C371.313 186.787 370.823 187.122 370.272 187.313C369.721 187.504 369.129 187.544 368.557 187.43C367.425 187.197 366.336 186.79 365.329 186.222C364.971 186.023 364.576 185.9 364.169 185.861C363.686 185.876 363.219 186.035 362.826 186.316C360.528 187.78 359.446 190.683 359.462 193.423C359.478 196.163 360.418 198.799 361.379 201.361C361.512 201.793 361.729 202.195 362.017 202.543C362.779 203.348 364.106 203.223 365.12 202.773C366.133 202.323 367.053 201.617 368.139 201.418C370.067 201.068 371.953 202.396 373.886 202.287C375.317 202.203 376.587 201.371 377.773 200.566C379.674 199.28 381.607 197.951 382.997 196.132C383.854 195.013 384.48 193.742 385.228 192.544C386.184 191.085 387.23 189.688 388.362 188.361L395.54 179.565C396.261 178.732 396.907 177.838 397.473 176.893C398.126 175.616 398.631 174.269 398.977 172.877C399.662 170.529 400.351 168.17 400.466 165.718C400.506 163.705 400.331 161.695 399.944 159.72C399.696 157.751 399.168 155.828 398.377 154.009C396.898 150.746 393.1 148.063 390.17 151.489Z" fill="#2F2E41"/>
<path d="M411.881 145.893C412.456 143.746 412.513 141.494 412.048 139.321C411.583 137.148 410.609 135.117 409.207 133.395C411.113 125.253 406.96 117.1 399.646 114.083C399.908 106.448 395.075 99.4405 387.631 97.4743C379.894 95.4401 371.959 99.5295 368.62 106.798C363.919 104.356 358.945 104.618 357.305 107.489C355.591 110.49 358.167 115.212 363.051 118.031C364.591 118.931 366.276 119.556 368.03 119.877C368.783 122.01 369.974 123.961 371.526 125.606C373.078 127.25 374.957 128.552 377.042 129.426C376.913 132.513 377.647 135.574 379.16 138.267C380.673 140.96 382.907 143.177 385.609 144.669C385.904 146.815 386.697 148.862 387.924 150.646C387.78 151.021 387.658 151.403 387.558 151.792C386.022 157.622 389.344 163.552 394.971 165.032C400.597 166.512 406.407 162.988 407.937 157.157C408.349 155.602 408.42 153.977 408.146 152.393C409.952 150.601 411.242 148.356 411.881 145.893Z" fill="#3F3D56"/>
<path opacity="0.1" d="M360.529 109.005C362.169 106.134 367.137 105.867 371.844 108.315C375.172 101.046 383.118 96.9514 390.855 98.9908C391.205 99.0797 391.55 99.1895 391.9 99.3046C390.577 98.4877 389.14 97.8709 387.637 97.4743C379.9 95.4401 371.964 99.5295 368.626 106.798C363.924 104.356 358.951 104.618 357.311 107.489C355.597 110.49 358.173 115.212 363.057 118.031C363.974 118.559 364.94 118.997 365.941 119.338C361.271 116.483 358.857 111.933 360.529 109.005Z" fill="black"/>
<path opacity="0.1" d="M390.786 153.308C390.886 152.919 391.008 152.537 391.152 152.162C389.925 150.376 389.133 148.327 388.838 146.18C386.135 144.689 383.902 142.473 382.388 139.781C380.875 137.089 380.141 134.028 380.27 130.942C378.185 130.068 376.307 128.766 374.755 127.122C373.203 125.477 372.012 123.526 371.258 121.393C370.236 121.21 369.235 120.917 368.275 120.52C369.073 122.509 370.259 124.32 371.763 125.846C373.267 127.372 375.06 128.584 377.036 129.409C376.908 132.496 377.641 135.558 379.155 138.251C380.668 140.943 382.901 143.16 385.604 144.653C385.899 146.799 386.692 148.846 387.918 150.63C387.774 151.005 387.652 151.387 387.552 151.775C386.022 157.585 389.318 163.494 394.913 165C393.12 163.702 391.764 161.888 391.026 159.799C390.289 157.71 390.205 155.445 390.786 153.308Z" fill="black"/>
<path d="M378.728 130.932C379.572 130.291 379.561 128.856 378.704 127.727C377.847 126.598 376.469 126.202 375.625 126.843C374.782 127.484 374.793 128.919 375.65 130.049C376.507 131.178 377.885 131.573 378.728 130.932Z" fill="#FBBEBE"/>
<path d="M225.578 20.5724C230.278 20.5724 234.089 16.7585 234.089 12.0538C234.089 7.34907 230.278 3.53516 225.578 3.53516C220.878 3.53516 217.068 7.34907 217.068 12.0538C217.068 16.7585 220.878 20.5724 225.578 20.5724Z" fill="#3F3D56"/>
<path d="M244.046 61.9155C257.228 61.9155 267.915 48.0552 267.915 30.9577C267.915 13.8602 257.228 0 244.046 0C230.863 0 220.177 13.8602 220.177 30.9577C220.177 48.0552 230.863 61.9155 244.046 61.9155Z" fill="#3F3D56"/>
<path opacity="0.1" d="M244.045 52.5659C232.087 52.5659 222.182 41.1607 220.443 26.2832C220.262 27.835 220.171 29.3959 220.171 30.9582C220.171 48.053 230.859 61.916 244.045 61.916C257.231 61.916 267.914 48.053 267.914 30.9582C267.914 29.3959 267.824 27.835 267.643 26.2832C265.908 41.1816 256.003 52.5659 244.045 52.5659Z" fill="black"/>
<path d="M294.908 121.625C294.385 123.717 292.186 125.421 289.741 126.598C284.59 129.082 278.248 129.819 272.089 130.07C270.522 130.165 268.949 130.136 267.387 129.981C264.164 129.6 261.176 128.224 259.31 126.263C259.045 126.049 258.86 125.75 258.788 125.416C258.801 125.216 258.854 125.02 258.944 124.84C259.033 124.661 259.158 124.501 259.31 124.37C262.596 120.783 268.071 118.576 273.567 117.007C277.746 115.799 285.029 112.672 289.59 113.096C294.02 113.478 295.556 118.958 294.908 121.625Z" fill="#3F3D56"/>
<path opacity="0.1" d="M294.908 121.625C294.385 123.717 292.186 125.421 289.741 126.598C284.59 129.082 278.248 129.819 272.089 130.07C270.522 130.165 268.949 130.136 267.387 129.981C264.164 129.6 261.176 128.224 259.31 126.263C259.045 126.049 258.86 125.75 258.788 125.416C258.801 125.216 258.854 125.02 258.944 124.84C259.033 124.661 259.158 124.501 259.31 124.37C262.596 120.783 268.071 118.576 273.567 117.007C277.746 115.799 285.029 112.672 289.59 113.096C294.02 113.478 295.556 118.958 294.908 121.625Z" fill="black"/>
<path d="M229.47 105.863C227.903 108.94 227.619 112.513 228.681 115.799C229.763 119.066 231.791 121.938 234.506 124.051C241.177 129.411 250.33 130.148 258.861 130.08C266.341 130.013 273.811 129.499 281.231 128.543C283.702 128.224 286.199 127.847 288.487 126.859C291.271 125.651 293.711 123.439 294.709 120.584C295.707 117.728 295.001 114.193 292.619 112.279C290.53 110.595 287.693 110.365 285.034 110.188L269.805 109.272C271.31 107.745 273.311 106.883 275.144 105.779C277.574 104.305 279.188 101.836 280.959 99.6138C283.571 96.288 286.706 93.3805 289.84 90.4886C290.362 93.3334 292.133 95.6709 294.249 97.6372C296.365 99.6034 298.805 101.183 301.009 103.05C306.338 107.578 310.172 113.728 315.778 117.911C319.634 116.896 323.239 115.095 326.367 112.619L324.189 108.671C324.01 108.258 323.727 107.897 323.369 107.625C322.747 107.249 321.953 107.442 321.237 107.338C319.325 107.05 318.489 104.838 317.737 103.055C315.679 98.1496 311.729 94.3479 308.333 90.2376C305.857 87.2075 303.662 83.957 301.777 80.5267C300.644 78.4821 299.609 76.3433 298.068 74.581C296.527 72.8187 294.38 71.4434 292.039 71.4434C289.95 71.4434 288.069 72.4892 286.293 73.5351C280.882 76.753 275.676 80.3036 270.704 84.1664C268.092 86.1849 265.516 88.3237 262.465 89.563C261.18 90.086 259.853 90.4416 258.594 91.0743C256.437 92.1882 254.796 94.0707 253.031 95.7389C246.741 101.695 238.126 105.554 229.47 105.863Z" fill="#605D82"/>
<path d="M261.317 63.4528C261.249 65.2755 260.862 67.0721 260.173 68.7606C259.824 69.5995 259.306 70.3574 258.652 70.9872C257.997 71.617 257.221 72.1051 256.369 72.4211C255.159 72.746 253.889 72.7872 252.66 72.5414C251.586 72.4254 250.552 72.0679 249.636 71.4955C248.209 70.5124 247.499 68.7606 247.238 67.0453C246.976 65.3301 247.097 63.5783 246.929 61.8526C246.767 60.4579 246.501 59.077 246.135 57.7214C246.026 57.2717 245.911 56.822 245.796 56.3722C245.681 55.9225 245.582 55.4728 245.482 55.0231C245.383 54.5734 245.305 54.1812 245.232 53.7524C245.158 53.3235 245.117 53.0307 245.08 52.6699C245.047 51.5916 244.871 50.5226 244.558 49.4904C244.26 48.8223 243.887 48.1906 243.445 47.6079C243.257 47.3359 243.074 47.0849 242.923 46.7869C242.436 46.0583 242.21 45.1868 242.28 44.3134C242.3 44.178 242.333 44.0449 242.379 43.9159C242.395 43.866 242.414 43.817 242.437 43.7695C242.623 43.7183 242.794 43.6226 242.935 43.4905C243.076 43.3584 243.183 43.1939 243.246 43.0113C243.318 42.6172 243.284 42.2112 243.147 41.8347C242.994 41.3088 242.782 40.8019 242.515 40.3234C242.343 40.0096 241.752 39.4396 241.747 39.0788C241.747 38.3519 243.158 37.7662 243.732 37.4786C245.488 36.5973 247.446 36.2001 249.406 36.3282C250.659 36.4118 252.018 36.7988 252.713 37.8551C253.339 38.8017 253.235 40.0305 253.522 41.1339C253.546 41.295 253.613 41.4467 253.716 41.5732C253.852 41.6974 254.024 41.7759 254.207 41.7981C254.513 41.8599 254.827 41.8722 255.137 41.8347C255.219 41.8302 255.302 41.8179 255.382 41.7981C255.865 41.7086 256.322 41.5121 256.719 41.2228C256.981 41.1496 257.242 41.0973 257.498 41.0503H257.529C258.574 44.3343 258.705 47.8484 259.556 51.2057C259.979 52.8686 260.601 54.5106 260.669 56.2258C260.669 56.299 260.669 56.3775 260.669 56.4507C260.669 57.005 260.638 57.5593 260.669 58.1084C260.678 58.3542 260.706 58.5989 260.752 58.8405C260.847 59.2299 260.962 59.6139 261.097 59.991C261.134 60.1112 261.17 60.2315 261.202 60.357C261.228 60.4447 261.249 60.5337 261.264 60.6237C261.418 61.5593 261.435 62.5121 261.317 63.4528Z" fill="#FBBEBE"/>
<path d="M246.752 41.9703C253.515 41.9703 258.998 36.4823 258.998 29.7127C258.998 22.943 253.515 17.4551 246.752 17.4551C239.989 17.4551 234.507 22.943 234.507 29.7127C234.507 36.4823 239.989 41.9703 246.752 41.9703Z" fill="#FBBEBE"/>
<path d="M324.503 96.5023C324.146 93.1613 322.959 89.963 321.05 87.1993L322.006 92.8732C321.609 92.9869 321.188 92.9827 320.794 92.861C320.4 92.7394 320.049 92.5056 319.786 92.1881C319.269 91.5434 318.874 90.8097 318.621 90.0232C317.229 86.5665 315.409 83.2986 313.203 80.2966C305.409 79.6429 297.698 76.4112 290.844 72.6356C283.99 68.86 277.569 64.3471 270.799 60.4198C269.625 59.7112 268.403 59.0856 267.142 58.5477C265.026 57.7006 262.649 57.2613 260.643 56.2625L260.241 56.0481C259.786 55.8039 259.356 55.5167 258.956 55.1905C258.741 55.0129 258.537 54.8225 258.345 54.6205C257.343 53.4554 256.547 52.1271 255.994 50.6932C254.917 48.3087 254.531 45.4273 253.46 43.0427C253.954 42.5823 254.508 42.1901 255.106 41.8766L255.367 41.7458C255.792 41.5469 256.235 41.3859 256.688 41.2647C256.95 41.1915 257.211 41.1392 257.467 41.0922H257.498C258.712 40.8963 259.956 40.9949 261.124 41.3798C262.827 41.9602 264.258 43.1107 265.7 44.2036C267.973 45.9241 270.334 47.5452 272.397 49.5166C273.578 50.6514 274.66 51.896 275.929 52.9262C276.987 53.7441 278.103 54.485 279.267 55.1434L299.923 67.4585C302.253 68.8443 304.589 70.2353 306.866 71.71C310.33 73.9429 313.658 76.3641 317.001 78.7853L322.899 83.0629C323.545 83.4821 324.111 84.0133 324.571 84.6317C324.975 85.3251 325.226 86.0972 325.308 86.896C325.798 90.1169 325.522 93.4081 324.503 96.5023Z" fill="#FBBEBE"/>
<path d="M264.357 72.6719C263.526 76.3795 259.786 78.6229 257.826 81.8808C255.392 85.923 256.385 90.6242 257.304 95.2574L252.294 99.5769C251.375 100.367 250.45 101.146 249.463 101.862C248.015 102.837 246.501 103.71 244.933 104.477L240.503 106.757C239.129 107.53 237.673 108.147 236.162 108.597C233.247 109.345 230.154 108.822 227.281 107.96C226.941 107.871 226.614 107.737 226.309 107.562C226.13 107.454 225.974 107.312 225.85 107.144C225.563 106.634 225.46 106.042 225.557 105.465C225.85 100.612 227.035 95.8588 228.216 91.1419C228.837 88.3092 229.677 85.5292 230.729 82.8273C231.765 80.5144 232.958 78.2746 234.297 76.1233C235.864 73.472 237.431 70.7998 239.521 68.525C240.414 67.5419 241.412 66.6111 241.945 65.3874C242.682 63.7036 242.394 61.7739 242.546 59.9437C242.659 58.5658 243.024 57.2205 243.622 55.9746C243.942 55.304 244.327 54.6665 244.771 54.0711C244.975 54.5417 245.174 55.0124 245.377 55.4778L245.769 56.3982C245.942 56.7904 246.109 57.1878 246.292 57.58C246.779 58.7025 247.263 59.8269 247.744 60.9529C248.262 62.3713 249.005 63.6973 249.943 64.8802C250.941 66.0097 252.409 66.8307 253.903 66.6686C254.605 66.5514 255.272 66.2795 255.855 65.8725C256.439 65.4655 256.925 64.9336 257.278 64.3154C257.978 63.077 258.484 61.7384 258.777 60.3463C259.189 58.6524 259.246 56.8915 258.944 55.1745C258.422 51.8643 257.038 48.4862 256.019 45.4113C255.603 44.3868 255.363 43.2996 255.308 42.1953C255.308 42.0706 255.32 41.9461 255.345 41.824V41.7298C255.771 41.5309 256.213 41.3699 256.667 41.2487C256.928 41.1755 257.189 41.1232 257.445 41.0762C258.344 45.9569 259.244 50.8272 260.146 55.687C260.146 55.802 260.193 55.9171 260.214 56.0321C260.339 56.7328 260.47 57.4283 260.616 58.1238C260.762 58.8193 260.888 59.3841 261.045 60.0064C261.097 60.2156 261.154 60.43 261.212 60.6392C261.374 61.2144 261.551 61.7792 261.734 62.3439C263.009 65.7587 265.135 69.163 264.357 72.6719Z" fill="#39B6FB"/>
<path d="M314.059 124.793C314.014 125.513 314.152 126.232 314.461 126.884C315.224 128.286 317.073 128.605 318.641 128.735C327.937 129.503 337.289 129.218 346.522 127.888C347.023 127.852 347.51 127.7 347.943 127.444C349.254 126.523 348.465 124.28 347.013 123.558C345.561 122.837 343.878 123.036 342.311 122.706C340.748 122.31 339.259 121.664 337.902 120.792C334.715 118.958 331.581 117.041 328.499 115.04C326.655 113.853 324.476 112.587 322.402 113.293C316.765 115.197 314.017 118.721 314.059 124.793Z" fill="#2F2E41"/>
<path d="M245.529 54.7776L245.482 55.0338L245.404 55.4626C245.148 56.7804 244.829 58.0773 244.469 59.4003C243.471 63.0033 242.139 66.5541 240.812 70.0473L230.149 98.1811C229.251 100.545 228.357 102.888 227.339 105.22C226.999 105.989 226.649 106.789 226.294 107.552C225.045 110.36 223.844 113.263 223.447 116.259C223.185 118.241 222.924 120.265 223.316 122.226C223.708 124.187 224.883 126.106 226.769 126.828C227.678 127.183 228.979 127.659 228.728 128.605C228.598 129.128 228.007 129.379 227.475 129.463C226.776 129.576 226.061 129.533 225.381 129.336C224.701 129.14 224.072 128.796 223.541 128.328C222.548 127.45 221.78 126.074 220.458 125.928C219.544 125.829 218.703 126.378 217.846 126.76C214.425 128.328 210.444 127.23 206.85 126.116C207.132 124.663 208.594 123.7 210.042 123.413C211.489 123.125 212.993 123.324 214.477 123.287C214.951 123.312 215.422 123.19 215.825 122.937C216.188 122.611 216.448 122.186 216.572 121.713C217.524 118.886 218.232 115.981 218.688 113.032C219.168 109.947 219.367 106.82 220.046 103.777C220.568 101.402 221.394 99.1015 222.094 96.7692C223.453 91.9692 224.567 87.1031 225.432 82.1898C225.87 80.1504 226.184 78.0863 226.372 76.0087C226.492 74.283 226.435 72.5469 226.602 70.8317C226.879 68.5967 227.344 66.3891 227.992 64.2322C228.629 61.8738 229.261 59.5258 229.898 57.1726C230.839 53.6899 231.847 50.0764 234.229 47.3728C235.056 46.4199 236.07 45.6473 237.208 45.1031C238.346 44.5588 239.583 44.2545 240.843 44.209C241.316 44.2069 241.787 44.2578 242.248 44.3607L242.478 44.4182C242.983 44.5483 243.466 44.749 243.915 45.0144C244.651 44.5437 245.022 44.7111 245.513 45.4275C245.94 46.1926 246.141 47.0629 246.093 47.9376C246.131 50.2306 245.942 52.5218 245.529 54.7776Z" fill="#FBBEBE"/>
<path d="M246.334 57.554L246.303 57.5854L246.136 57.7528L244.469 59.4209L243.649 55.98L240.844 44.193C241.316 44.1909 241.788 44.2418 242.249 44.3447C242.269 44.2093 242.302 44.0762 242.348 43.9473L242.479 44.4022L243.43 47.6392L245.232 53.7837L245.53 54.7982L246.334 57.554Z" fill="#39B6FB"/>
<path d="M255.691 11.6348H241.659C238.196 11.6348 235.39 14.4443 235.39 17.91V21.9836C235.39 25.4493 238.196 28.2589 241.659 28.2589H255.691C259.153 28.2589 261.96 25.4493 261.96 21.9836V17.91C261.96 14.4443 259.153 11.6348 255.691 11.6348Z" fill="#3F3D56"/>
<path d="M263.511 20.5724C268.211 20.5724 272.021 16.7585 272.021 12.0538C272.021 7.34907 268.211 3.53516 263.511 3.53516C258.811 3.53516 255.001 7.34907 255.001 12.0538C255.001 16.7585 258.811 20.5724 263.511 20.5724Z" fill="#3F3D56"/>
<path opacity="0.1" d="M263.308 3.52936H262.994C265.186 3.62358 267.257 4.56143 268.774 6.14719C270.292 7.73296 271.139 9.84412 271.139 12.0401C271.139 14.2361 270.292 16.3473 268.774 17.9331C267.257 19.5188 265.186 20.4567 262.994 20.5509H263.308C265.565 20.5509 267.729 19.6534 269.325 18.0558C270.921 16.4583 271.818 14.2915 271.818 12.0323C271.818 9.773 270.921 7.60626 269.325 6.00871C267.729 4.41116 265.565 3.51367 263.308 3.51367V3.52936Z" fill="black"/>
<path opacity="0.1" d="M225.579 3.52936H225.892C223.7 3.62358 221.629 4.56143 220.112 6.14719C218.594 7.73296 217.747 9.84412 217.747 12.0401C217.747 14.2361 218.594 16.3473 220.112 17.9331C221.629 19.5188 223.7 20.4567 225.892 20.5509H225.579C224.461 20.5509 223.354 20.3305 222.322 19.9024C221.289 19.4743 220.351 18.8469 219.561 18.0558C218.771 17.2648 218.144 16.3257 217.716 15.2922C217.288 14.2587 217.068 13.151 217.068 12.0323C217.068 10.9136 217.288 9.80588 217.716 8.77235C218.144 7.73883 218.771 6.79974 219.561 6.00871C220.351 5.21769 221.289 4.59021 222.322 4.16211C223.354 3.73401 224.461 3.51367 225.579 3.51367V3.52936Z" fill="black"/>
<path opacity="0.1" d="M262.22 26.5907H240.655C239.995 26.5907 239.362 26.3287 238.895 25.862C238.428 25.3953 238.164 24.7622 238.163 24.1016V25.7593C238.164 26.4204 238.427 27.0541 238.894 27.5215C239.362 27.989 239.995 28.2523 240.655 28.2537H262.241C262.902 28.2523 263.535 27.989 264.002 27.5215C264.469 27.0541 264.732 26.4204 264.733 25.7593V24.1016C264.732 24.4303 264.666 24.7555 264.538 25.0586C264.411 25.3616 264.226 25.6367 263.992 25.8679C263.759 26.0991 263.482 26.2819 263.178 26.406C262.874 26.53 262.549 26.5928 262.22 26.5907Z" fill="black"/>
<path d="M335.379 113.79C335.379 113.79 336.727 114.025 336.946 112.932C337.056 112.409 336.685 109.052 336.262 105.695C336.058 104.042 335.839 102.395 335.661 101.077C335.447 99.4613 335.29 98.3475 335.29 98.3475L335.045 97.5317L333.592 92.6475L332.224 88.0457L331.215 86.2363L323.959 89.7714L319.445 97.5788L320.845 98.4625L321.091 98.6194L323.666 101.318L330.886 108.9L334.136 112.315L334.517 112.713L335.379 113.79Z" fill="#FFE09C"/>
<path d="M329.674 83.1309C329.674 83.1309 321.723 86.8646 319.811 90.9226C319.811 90.9226 318.024 94.3373 317.8 96.1519C317.8 96.1519 317.277 97.8096 320.574 98.2175C320.574 98.2175 322.073 92.1253 326.571 89.4793L331.074 86.8385L329.674 83.1309Z" fill="#E7C4C3"/>
<path d="M331.747 92.5041C332.135 91.0558 331.455 89.615 330.229 89.2861C329.004 88.9572 327.696 89.8647 327.308 91.3131C326.92 92.7614 327.599 94.2022 328.825 94.5311C330.051 94.86 331.359 93.9524 331.747 92.5041Z" fill="#FF7F8E"/>
<path d="M330.883 101.971C331.267 100.529 330.589 99.0949 329.367 98.7692C328.146 98.4435 326.845 99.3491 326.461 100.792C326.077 102.235 326.756 103.668 327.977 103.994C329.198 104.32 330.499 103.414 330.883 101.971Z" fill="#FF7F8E"/>
<path d="M323.666 101.318C324.083 101.149 324.453 100.883 324.747 100.542C325.04 100.201 325.248 99.7949 325.354 99.3574C325.74 97.9141 325.061 96.476 323.839 96.1518C322.616 95.8276 321.315 96.7322 320.934 98.1755C320.904 98.273 320.881 98.3727 320.866 98.4736L321.112 98.6305L323.666 101.318Z" fill="#FF7F8E"/>
<path d="M333.378 97.8307C333.665 97.9032 333.963 97.9141 334.254 97.8628C334.545 97.8114 334.821 97.6989 335.066 97.5326L333.613 92.6484C333.181 92.8092 332.794 93.074 332.488 93.4197C332.182 93.7653 331.966 94.1811 331.858 94.6303C331.477 96.0893 332.156 97.5065 333.378 97.8307Z" fill="#FF7F8E"/>
<path d="M334.22 106.282C334.585 106.369 334.966 106.36 335.327 106.258C335.689 106.155 336.018 105.962 336.283 105.697C336.08 104.044 335.86 102.397 335.683 101.079H335.615C334.392 100.75 333.091 101.66 332.705 103.103C332.318 104.546 333.003 105.958 334.22 106.282Z" fill="#FF7F8E"/>
<path d="M334.136 112.299C334.286 112.046 334.4 111.773 334.476 111.489C334.862 110.046 334.183 108.613 332.961 108.289C332.591 108.199 332.204 108.207 331.837 108.311C331.471 108.416 331.138 108.613 330.871 108.885L334.136 112.299Z" fill="#FF7F8E"/>
<path d="M330.547 90.4316L331.383 90.6565C331.054 91.2616 330.86 91.9305 330.813 92.6175C330.811 92.6628 330.811 92.7082 330.813 92.7535C330.923 93.6163 329.978 92.5286 329.978 92.5286C329.978 92.5286 330.14 90.7559 330.547 90.4316Z" fill="#94CC79"/>
<path d="M326.738 95.8281L327.579 96.053C327.248 96.655 327.053 97.3228 327.01 98.0088C327.007 98.0541 327.007 98.0994 327.01 98.1447C327.119 99.0076 326.174 97.9199 326.174 97.9199C326.174 97.9199 326.331 96.1471 326.738 95.8281Z" fill="#94CC79"/>
<path d="M329.34 97.6113L330.176 97.831C329.847 98.436 329.653 99.1049 329.606 99.7919C329.604 99.8372 329.604 99.8826 329.606 99.9279C329.721 100.791 328.771 99.7031 328.771 99.7031C328.771 99.7031 328.943 97.9303 329.34 97.6113Z" fill="#94CC79"/>
<path d="M332.683 102.113L333.524 102.333C333.194 102.937 332.999 103.606 332.955 104.294C332.952 104.339 332.952 104.385 332.955 104.43C333.065 105.293 332.119 104.205 332.119 104.205C332.119 104.205 332.281 102.432 332.683 102.113Z" fill="#94CC79"/>
<path d="M334.768 109.523L335.604 109.748C335.276 110.352 335.081 111.019 335.034 111.704C335.031 111.749 335.031 111.795 335.034 111.84C335.149 112.703 334.198 111.62 334.198 111.62C334.198 111.62 334.36 109.842 334.768 109.523Z" fill="#94CC79"/>
<path d="M330.234 104.342L331.07 104.567C330.739 105.178 330.549 105.855 330.511 106.549C330.508 106.594 330.508 106.639 330.511 106.685C330.62 107.547 329.675 106.465 329.675 106.465C329.675 106.465 329.831 104.661 330.234 104.342Z" fill="#94CC79"/>
<path d="M332.261 83.8209C332.261 83.8209 331.064 81.1069 329.648 83.1306C329.768 84.7738 330.307 86.3585 331.216 87.7325C331.216 87.7325 335.547 99.5246 335.186 101.329C335.186 101.329 336.894 112.718 336.471 113.356C336.471 113.356 336.941 114.162 337.276 111.134C337.61 108.106 336.142 99.2109 336.142 99.2109L333.995 89.9654L332.558 86.8278L332.261 83.8209Z" fill="#E7C4C3"/>
<path opacity="0.2" d="M332.261 83.8209C332.261 83.8209 331.064 81.1069 329.648 83.1306C329.768 84.7738 330.307 86.3585 331.216 87.7325C331.216 87.7325 335.547 99.5246 335.186 101.329C335.186 101.329 336.894 112.718 336.471 113.356C336.471 113.356 336.941 114.162 337.276 111.134C337.61 108.106 336.142 99.2109 336.142 99.2109L333.995 89.9654L332.558 86.8278L332.261 83.8209Z" fill="white"/>
<path d="M317.895 88.319C317.895 88.319 320.042 94.5105 322.006 92.8632L320.439 84.7734L317.895 88.319Z" fill="#FBBEBE"/>
<path d="M171.043 113.748C171.043 113.748 189.981 145.684 194.406 149.951C194.406 149.951 213.327 169.613 203.71 168.254C203.005 168.154 189.155 156.435 188.346 154.511C187.536 152.586 161.353 118.538 161.353 118.538L165.088 115.097L171.043 113.748Z" fill="#A0616A"/>
<path opacity="0.1" d="M171.043 113.748C171.043 113.748 189.981 145.684 194.406 149.951C194.406 149.951 213.327 169.613 203.71 168.254C203.005 168.154 189.155 156.435 188.346 154.511C187.536 152.586 161.353 118.538 161.353 118.538L165.088 115.097L171.043 113.748Z" fill="black"/>
<path d="M188.361 218.049C188.361 218.049 182.301 225.631 184.83 228.664C187.358 231.698 199.954 237.497 204.018 237.256C208.312 237.005 222.705 237.779 223.212 231.19C223.212 231.19 224.22 228.157 211.092 227.65C197.963 227.143 201.996 213.494 201.996 213.494L188.361 218.049Z" fill="#2F2E41"/>
<path d="M116.143 153.841C116.143 153.841 110.083 174.565 128.263 178.105L147.958 177.096C147.958 177.096 175.735 171.532 183.315 175.579C183.315 175.579 186.345 176.102 185.332 180.129C184.318 184.155 186.847 211.474 186.847 211.474V220.573C186.847 220.573 204.019 220.573 206.04 218.549C206.04 218.549 204.525 210.459 206.04 203.907C207.555 197.354 203.517 176.604 203.517 176.604L203.115 164.153C203.084 162.61 202.644 161.103 201.838 159.787C201.033 158.471 199.892 157.393 198.533 156.665C197.578 156.159 196.516 155.888 195.435 155.875C195.435 155.875 161.092 150.316 148.972 151.326C136.852 152.335 116.143 153.841 116.143 153.841Z" fill="#605D82"/>
<path d="M149.98 87.6133C149.98 87.6133 159.07 98.2288 160.078 101.769C161.086 105.309 172.219 114.393 172.219 114.393C172.219 114.393 164.137 120.459 165.652 123.492C167.167 126.525 155.047 113.383 155.047 113.383L140.874 92.6701L149.98 87.6133Z" fill="#39B6FB"/>
<path opacity="0.1" d="M149.98 87.6133C149.98 87.6133 159.07 98.2288 160.078 101.769C161.086 105.309 172.219 114.393 172.219 114.393C172.219 114.393 164.137 120.459 165.652 123.492C167.167 126.525 155.047 113.383 155.047 113.383L140.874 92.6701L149.98 87.6133Z" fill="black"/>
<path d="M156.024 75.4809C156.024 75.4809 151.479 90.123 151.479 95.7027C151.479 101.282 132.285 94.1862 132.792 91.1532C133.299 88.1202 143.904 76.9974 144.411 72.4478C144.917 67.8983 156.024 75.4809 156.024 75.4809Z" fill="#A0616A"/>
<path opacity="0.1" d="M140.874 85.5888C140.874 85.5888 123.196 81.0393 120.673 106.825C118.149 132.611 122.689 135.639 115.114 151.311C107.539 166.984 166.629 153.335 166.629 153.335C166.629 153.335 163.599 149.795 154.003 151.311L149.458 137.663C149.458 137.663 147.943 131.597 156.531 131.597C165.119 131.597 161.076 113.9 161.076 113.9C161.076 113.9 156.531 98.7354 154.003 97.2189C151.474 95.7024 146.95 86.6033 140.874 85.5888Z" fill="black"/>
<path d="M140.874 84.585C140.874 84.585 123.196 80.0355 120.673 105.816C118.149 131.597 122.689 134.635 115.114 150.307C107.539 165.98 166.629 152.331 166.629 152.331C166.629 152.331 163.599 148.791 154.003 150.307L149.458 136.659C149.458 136.659 147.958 130.603 156.547 130.603C165.135 130.603 161.092 112.907 161.092 112.907C161.092 112.907 156.547 97.742 154.018 96.2255C151.49 94.709 146.95 85.589 140.874 84.585Z" fill="#39B6FB"/>
<path d="M151.495 84.58C160.699 84.58 168.16 77.1114 168.16 67.8984C168.16 58.6854 160.699 51.2168 151.495 51.2168C142.291 51.2168 134.83 58.6854 134.83 67.8984C134.83 77.1114 142.291 84.58 151.495 84.58Z" fill="#A0616A"/>
<path d="M148.276 153.314L190.158 178.373L229.125 142.029L182.672 125.834L149.243 148.613L148.276 153.314Z" fill="#DADAE5"/>
<path d="M197.702 83.1683L184.668 121.97L227.882 134.411L246.328 81.9395L197.702 83.1683Z" fill="#DADAE5"/>
<path opacity="0.03" d="M194.223 80.3022L197.759 83.5392L246.386 82.3103L247.504 79.1309L194.223 80.3022Z" fill="black"/>
<path opacity="0.03" d="M181.388 119.735L194.223 80.3008L197.76 83.5377L185.055 121.367L181.388 119.735Z" fill="black"/>
<path d="M194.166 79.9311L197.703 83.1681L246.329 81.9392L247.447 78.7598L194.166 79.9311Z" fill="#EFF0F4"/>
<path d="M181.33 119.371L194.166 79.9316L197.703 83.1686L184.997 120.998L181.33 119.371Z" fill="#EFF0F4"/>
<path opacity="0.03" d="M194.166 79.9311L199.573 84.9931L248.204 83.7642L247.447 78.7598L194.166 79.9311Z" fill="black"/>
<path opacity="0.03" d="M181.33 119.371L194.166 79.9316L199.573 84.9936L186.868 122.823L181.33 119.371Z" fill="black"/>
<path opacity="0.03" d="M181.414 119.924L182.595 127.428L229.335 143.67L227.972 134.963L181.414 119.924Z" fill="black"/>
<path opacity="0.03" d="M146.861 144.585L181.414 119.924L182.924 127.423L148.982 152.691L146.861 144.585Z" fill="black"/>
<path d="M181.33 119.371L182.344 125.84L229.084 142.082L227.882 134.411L181.33 119.371Z" fill="#EFF0F4"/>
<path d="M146.772 144.027L181.33 119.371L182.673 125.835L148.732 151.103L146.772 144.027Z" fill="#EFF0F4"/>
<path opacity="0.03" d="M181.33 119.371L182.344 125.84L229.084 142.082L227.882 134.411L181.33 119.371Z" fill="black"/>
<path opacity="0.03" d="M146.772 144.027L181.33 119.371L182.673 125.835L148.732 151.103L146.772 144.027Z" fill="black"/>
<path d="M146.772 144.027L148.334 153.351L190.101 178.332L189.072 168.736L146.772 144.027Z" fill="#CCCAD6"/>
<path d="M165.804 142.552C165.804 142.552 165.078 143.937 166.185 144.575C166.708 144.879 170.485 145.621 174.278 146.332C176.137 146.678 178.002 147.012 179.502 147.274C181.33 147.598 182.594 147.797 182.594 147.797H183.556L189.365 147.906L194.829 148.011L197.144 147.535L195.812 138.447L188.895 130.838L187.448 132.062L187.202 132.271L183.399 134.122L172.669 139.351L167.841 141.704L167.277 141.982L165.804 142.552Z" fill="#FFE09C"/>
<path d="M201.051 146.94C201.051 146.94 199.75 137.004 195.999 133.521C195.999 133.521 192.917 130.384 191.021 129.526C191.021 129.526 189.406 128.381 187.818 131.832C187.818 131.832 193.915 135.566 195.231 141.376L196.543 147.185L201.051 146.94Z" fill="#E7C4C3"/>
<path d="M193.719 143.392C194.496 142.175 193.963 140.445 192.528 139.527C191.093 138.61 189.301 138.853 188.524 140.07C187.748 141.287 188.281 143.017 189.716 143.934C191.15 144.852 192.943 144.609 193.719 143.392Z" fill="#FF7F8E"/>
<path d="M184.19 141.236C184.967 140.019 184.433 138.288 182.999 137.371C181.564 136.454 179.772 136.697 178.995 137.914C178.218 139.131 178.752 140.861 180.186 141.778C181.621 142.695 183.413 142.452 184.19 141.236Z" fill="#FF7F8E"/>
<path d="M183.398 134.127C183.439 134.642 183.602 135.139 183.875 135.577C184.148 136.014 184.522 136.38 184.966 136.643C186.397 137.558 188.189 137.317 188.962 136.12C189.735 134.922 189.208 133.176 187.771 132.26C187.673 132.198 187.572 132.14 187.468 132.088L187.222 132.297L183.398 134.127Z" fill="#FF7F8E"/>
<path d="M183.816 145.889C183.638 146.175 183.522 146.496 183.476 146.831C183.431 147.165 183.455 147.505 183.549 147.829L189.359 147.939C189.336 147.407 189.181 146.889 188.907 146.432C188.634 145.975 188.25 145.594 187.791 145.324C186.381 144.43 184.589 144.676 183.816 145.889Z" fill="#FF7F8E"/>
<path d="M174.351 143.885C174.13 144.252 174.007 144.671 173.994 145.099C173.981 145.528 174.079 145.952 174.278 146.332C176.137 146.678 178.002 147.012 179.502 147.274L179.549 147.206C180.322 145.992 179.789 144.262 178.358 143.346C176.926 142.431 175.129 142.672 174.351 143.885Z" fill="#FF7F8E"/>
<path d="M167.841 141.715C168.065 141.965 168.321 142.183 168.604 142.364C170.035 143.279 171.827 143.038 172.6 141.841C172.822 141.472 172.946 141.051 172.958 140.621C172.969 140.19 172.87 139.763 172.668 139.383L167.841 141.715Z" fill="#FF7F8E"/>
<path d="M192.823 145.365L192.3 146.197C191.759 145.631 191.101 145.19 190.373 144.905L190.221 144.869C189.244 144.691 190.744 144.037 190.744 144.037C190.744 144.037 192.619 144.816 192.823 145.365Z" fill="#94CC79"/>
<path d="M188.283 139.361L187.76 140.198C187.22 139.63 186.562 139.188 185.832 138.901L185.681 138.865C184.709 138.692 186.203 138.033 186.203 138.033C186.203 138.033 188.079 138.812 188.283 139.361Z" fill="#94CC79"/>
<path d="M185.452 141.584L184.929 142.416C184.388 141.85 183.73 141.409 183.002 141.124L182.85 141.087C181.873 140.91 183.373 140.256 183.373 140.256C183.373 140.256 185.243 141.025 185.452 141.584Z" fill="#94CC79"/>
<path d="M179.407 143.676L178.884 144.513C178.344 143.945 177.686 143.502 176.957 143.216L176.805 143.179C175.828 143.007 177.328 142.348 177.328 142.348C177.328 142.348 179.198 143.106 179.407 143.676Z" fill="#94CC79"/>
<path d="M170.652 143.363L170.13 144.2C169.587 143.633 168.927 143.19 168.197 142.903L168.045 142.867C167.074 142.694 168.568 142.035 168.568 142.035C168.568 142.035 170.438 142.809 170.652 143.363Z" fill="#94CC79"/>
<path d="M177.836 140.226L177.313 141.058C176.773 140.49 176.115 140.047 175.385 139.761L175.234 139.724C174.257 139.551 175.756 138.893 175.756 138.893C175.756 138.893 177.627 139.672 177.836 140.226Z" fill="#94CC79"/>
<path d="M199.384 149.518C199.384 149.518 202.744 149.152 201.03 146.94C199.21 146.495 197.307 146.528 195.503 147.034C195.503 147.034 181.204 147.672 179.35 146.647C179.35 146.647 166.394 144.555 165.872 143.896C165.872 143.896 164.827 144.127 168.003 145.538C171.179 146.95 181.34 148.425 181.34 148.425L192.118 149.283L195.994 148.802L199.384 149.518Z" fill="#E7C4C3"/>
<path opacity="0.2" d="M199.384 149.518C199.384 149.518 202.744 149.152 201.03 146.94C199.21 146.495 197.307 146.528 195.503 147.034C195.503 147.034 181.204 147.672 179.35 146.647C179.35 146.647 166.394 144.555 165.872 143.896C165.872 143.896 164.827 144.127 168.003 145.538C171.179 146.95 181.34 148.425 181.34 148.425L192.118 149.283L195.994 148.802L199.384 149.518Z" fill="white"/>
<path d="M189.197 144.387C189.04 144.876 189.002 145.396 189.087 145.902C189.171 146.409 189.376 146.888 189.683 147.3C190.665 148.686 192.415 149.135 193.596 148.304C194.776 147.472 194.928 145.689 193.941 144.277C193.873 144.183 193.8 144.089 193.726 144L193.413 144.105L189.197 144.387Z" fill="#FF7F8E"/>
<path d="M189.072 168.736L227.882 134.41L229.073 141.987L190.101 178.331L189.072 168.736Z" fill="#CCCAD6"/>
<path d="M232.918 136.366L227.882 134.41L247.446 78.7598L251.176 81.3954L232.918 136.366Z" fill="#CCCAD6"/>
<g opacity="0.1">
<path opacity="0.1" d="M201.422 217.479C201.461 216.133 201.655 214.796 202.001 213.494L201.745 213.583C201.495 214.866 201.386 216.172 201.422 217.479Z" fill="white"/>
<path opacity="0.1" d="M204.018 236.237C199.954 236.477 187.353 230.673 184.83 227.64C184.497 227.231 184.293 226.732 184.245 226.207C184.17 226.633 184.184 227.07 184.284 227.491C184.385 227.912 184.571 228.308 184.83 228.654C187.353 231.687 199.954 237.487 204.018 237.246C208.312 236.995 222.705 237.769 223.212 231.18C223.247 231.003 223.223 230.819 223.144 230.657C221.984 236.713 208.203 236.002 204.018 236.237Z" fill="white"/>
</g>
<path d="M218.776 113.545C218.776 113.545 219.675 112.499 218.86 111.746C218.468 111.38 215.396 109.979 212.303 108.609C210.783 107.939 209.252 107.28 208.035 106.757L205.502 105.675L204.681 105.466L199.745 104.206L195.1 103.018L193.011 102.961L192.311 111.009L196.694 118.895L198.167 118.142L198.423 118.011L202.043 117.195L212.272 114.915L216.864 113.869L217.386 113.749L218.776 113.545Z" fill="#FFE09C"/>
<path d="M189.563 102.715C189.563 102.715 188.68 111.458 191.183 115.187C191.183 115.187 193.189 118.471 194.631 119.6C194.631 119.6 195.78 120.897 197.833 118.272C197.833 118.272 193.372 113.859 193.419 108.634L193.46 103.405L189.563 102.715Z" fill="#E7C4C3"/>
<path d="M198.879 111.138C199.785 110.256 199.676 108.674 198.637 107.603C197.597 106.532 196.019 106.379 195.113 107.261C194.207 108.143 194.316 109.725 195.355 110.796C196.395 111.867 197.972 112.02 198.879 111.138Z" fill="#FF7F8E"/>
<path d="M206.585 114.892C207.491 114.01 207.382 112.427 206.343 111.357C205.303 110.286 203.726 110.133 202.819 111.015C201.913 111.897 202.022 113.479 203.061 114.55C204.101 115.621 205.679 115.774 206.585 114.892Z" fill="#FF7F8E"/>
<path d="M202.065 117.2C202.134 116.755 202.097 116.3 201.955 115.873C201.813 115.445 201.572 115.058 201.25 114.742C200.205 113.697 198.638 113.519 197.724 114.403C196.81 115.286 196.93 116.866 197.969 117.938C198.039 118.011 198.112 118.081 198.189 118.147L198.445 118.016L202.065 117.2Z" fill="#FF7F8E"/>
<path d="M204.087 107.071C204.296 106.862 204.459 106.611 204.564 106.334C204.67 106.057 204.715 105.761 204.698 105.465L199.761 104.205C199.676 104.659 199.704 105.128 199.844 105.568C199.983 106.009 200.229 106.408 200.56 106.731C201.584 107.808 203.162 107.96 204.087 107.071Z" fill="#FF7F8E"/>
<path d="M211.745 110.689C212.009 110.418 212.2 110.083 212.298 109.716C212.395 109.35 212.398 108.965 212.304 108.597C210.784 107.928 209.253 107.269 208.036 106.746L207.978 106.793C207.075 107.677 207.184 109.261 208.224 110.333C209.263 111.405 210.841 111.573 211.745 110.689Z" fill="#FF7F8E"/>
<path d="M216.864 113.869C216.726 113.609 216.55 113.371 216.342 113.163C215.297 112.091 213.73 111.939 212.821 112.823C212.555 113.094 212.364 113.429 212.267 113.796C212.17 114.162 212.17 114.548 212.267 114.915L216.864 113.869Z" fill="#FF7F8E"/>
<path d="M196.25 105.711L196.872 105.109C197.222 105.701 197.696 106.209 198.261 106.6L198.381 106.662C199.181 107.008 197.76 107.264 197.76 107.264C197.76 107.264 196.339 106.223 196.25 105.711Z" fill="#94CC79"/>
<path d="M198.945 111.777L199.562 111.17C199.911 111.763 200.385 112.274 200.951 112.666L201.072 112.723C201.871 113.073 200.45 113.33 200.45 113.33C200.45 113.33 199.008 112.258 198.945 111.777Z" fill="#94CC79"/>
<path d="M201.804 110.433L202.425 109.826C202.775 110.42 203.249 110.93 203.815 111.322L203.935 111.379C204.734 111.73 203.313 111.986 203.313 111.986C203.313 111.986 201.872 110.945 201.804 110.433Z" fill="#94CC79"/>
<path d="M207.383 109.868L208.004 109.262C208.353 109.854 208.826 110.364 209.389 110.757L209.514 110.82C210.308 111.165 208.893 111.421 208.893 111.421C208.893 111.421 207.451 110.381 207.383 109.868Z" fill="#94CC79"/>
<path d="M214.807 111.886L215.428 111.279C215.775 111.873 216.248 112.384 216.813 112.775L216.938 112.832C217.732 113.183 216.316 113.439 216.316 113.439C216.316 113.439 214.875 112.393 214.807 111.886Z" fill="#94CC79"/>
<path d="M208.036 113.115L208.658 112.514C209.008 113.105 209.482 113.613 210.047 114.004C210.085 114.03 210.125 114.051 210.168 114.067C210.967 114.412 209.546 114.673 209.546 114.673C209.546 114.673 208.104 113.628 208.036 113.115Z" fill="#94CC79"/>
<path d="M191.486 100.842C191.486 100.842 188.544 100.481 189.563 102.714C191.027 103.462 192.659 103.823 194.301 103.76C194.301 103.76 206.636 106.092 208.015 107.337C208.015 107.337 218.656 111.719 218.985 112.399C218.985 112.399 219.921 112.399 217.497 110.563C215.073 108.728 206.698 105.407 206.698 105.407L197.671 102.505L194.265 102.133L191.486 100.842Z" fill="#E7C4C3"/>
<path opacity="0.2" d="M191.486 100.842C191.486 100.842 188.544 100.481 189.563 102.714C191.027 103.462 192.659 103.823 194.301 103.76C194.301 103.76 206.636 106.092 208.015 107.337C208.015 107.337 218.656 111.719 218.985 112.399C218.985 112.399 219.921 112.399 217.497 110.563C215.073 108.728 206.698 105.407 206.698 105.407L197.671 102.505L194.265 102.133L191.486 100.842Z" fill="white"/>
<path d="M176.445 113.021C177.945 112.233 179.303 111.199 180.462 109.962C180.985 109.345 181.424 108.649 181.962 108.043C183.318 106.592 185.081 105.586 187.019 105.156C188.941 104.734 190.907 104.542 192.875 104.586C194.192 104.502 195.513 104.662 196.772 105.057C197.402 105.263 197.969 105.626 198.421 106.112C198.872 106.597 199.193 107.19 199.353 107.834C199.64 109.402 198.616 110.924 197.389 111.933C196.245 112.867 194.9 113.521 193.46 113.842C192.286 114.045 191.102 114.183 189.913 114.255C182.923 114.987 176.685 118.794 170.584 122.261C165.203 125.31 162.152 125.169 156.567 127.815C156.348 126.142 153.819 127.438 153.856 125.749C153.887 124.489 153.95 122.565 155.141 121.822C156.525 120.959 158.798 120.776 160.365 120.253C163.966 119.072 167.483 117.648 170.892 115.991C172.776 115.068 174.627 114.077 176.445 113.021Z" fill="#A0616A"/>
<path opacity="0.1" d="M130.285 108.342L157.07 132.606C157.07 132.606 162.121 122.498 163.636 122.498C165.151 122.498 145.456 92.6909 145.456 92.6909C145.456 92.6909 140.405 86.6248 137.375 89.6578C134.345 92.6909 125.234 90.6462 130.285 108.342Z" fill="black"/>
<path d="M129.778 107.333L156.546 131.597C156.546 131.597 161.598 121.483 163.113 121.483C164.628 121.483 144.928 91.676 144.928 91.676C144.928 91.676 139.876 85.6047 136.846 88.6378C133.816 91.6708 124.726 89.6366 129.778 107.333Z" fill="#39B6FB"/>
<path d="M173.849 64.562C174.434 63.9112 174.908 63.1693 175.254 62.3657C177.564 57.1363 173.901 50.5682 167.648 48.7693C164.514 47.8542 161.003 48.0372 157.874 47.0646C155.356 46.2854 153.235 44.8107 150.926 43.6603C146.586 41.5202 141.785 40.489 136.951 40.6586C132.223 40.826 127.083 42.4889 125.145 46.1442C122.313 51.4677 127.522 58.1717 124.366 63.354C122.047 67.161 116.42 68.2853 111.755 69.9377C106.925 71.6098 102.528 74.3376 98.8828 77.923C95.2259 81.5835 92.6138 86.6037 94.4527 91.1427C95.5237 93.8045 97.9424 95.8858 99.8649 98.1814C103.072 101.948 104.949 106.669 105.203 111.612C105.457 116.555 104.074 121.444 101.27 125.52C100.372 126.812 99.3216 128.072 98.9507 129.537C98.0626 133.03 101.646 136.544 105.789 137.224C109.932 137.904 114.231 136.356 117.455 134.07C120.43 132.017 122.826 129.228 124.408 125.975C128.237 117.849 125.547 108.719 125.165 99.9699C125.118 98.9502 125.165 97.8415 125.881 97.0415C126.989 95.8439 129.078 95.8753 130.865 95.7184C135.488 95.3105 139.746 92.7168 141.705 89.1399C145.451 82.2581 141.089 72.6413 147.634 67.4643C155.873 60.9485 167.732 71.2503 173.849 64.562Z" fill="#3F3D56"/>
<path opacity="0.1" d="M167.648 48.748H167.596C170.04 51.5824 170.96 55.4102 169.508 58.7152C169.161 59.5189 168.687 60.2607 168.102 60.9115C161.985 67.5998 150.126 57.298 141.888 63.8138C135.342 68.9908 139.704 78.6076 135.958 85.4894C134.015 89.0663 129.741 91.6601 125.118 92.068C123.331 92.2248 121.242 92.1935 120.134 93.391C119.398 94.1911 119.372 95.2997 119.419 96.3194C119.8 105.068 122.49 114.199 118.661 122.325C117.079 125.578 114.684 128.366 111.708 130.42C108.484 132.695 104.19 134.264 100.042 133.584L99.7549 133.521C100.463 134.512 101.362 135.351 102.398 135.99C103.434 136.63 104.586 137.056 105.789 137.244C109.937 137.919 114.205 136.35 117.454 134.07C120.43 132.017 122.825 129.228 124.408 125.975C128.237 117.849 125.546 108.718 125.165 99.9695C125.118 98.9498 125.165 97.8412 125.881 97.0411C126.988 95.8435 129.078 95.8749 130.865 95.718C135.488 95.3102 139.746 92.7164 141.705 89.1395C145.45 82.2577 141.088 72.6409 147.634 67.4639C155.873 60.9481 167.731 71.2499 173.849 64.5616C174.433 63.9108 174.908 63.169 175.254 62.3653C177.563 57.1202 173.901 50.594 167.648 48.748Z" fill="black"/>
</svg>
