<svg width="497" height="350" viewBox="0 0 497 350" fill="none" xmlns="http://www.w3.org/2000/svg">
<path d="M253.828 349.258C268.776 349.258 280.894 337.149 280.894 322.211C280.894 307.273 268.776 295.164 253.828 295.164C238.88 295.164 226.762 307.273 226.762 322.211C226.762 337.149 238.88 349.258 253.828 349.258Z" fill="#39B6FB"/>
<path d="M415.522 347.739C430.664 343.195 446.762 338.456 458.77 327.653C469.501 318 476.746 303.259 472.3 288.781C467.864 274.334 454.575 264.7 440.856 259.908C433.074 257.191 424.933 255.683 416.795 254.499C407.949 253.211 399.064 252.157 390.182 251.141C354.221 247.031 318.124 244.52 281.892 243.609C264.014 243.159 246.14 243.17 228.259 243.429C212.29 243.661 195.473 243.655 180.659 236.873C169.139 231.599 158.683 222.004 155.474 209.395C151.768 194.839 158.603 180.017 168.406 169.476C173.574 163.919 179.614 159.243 185.844 154.942C192.603 150.277 199.598 145.943 206.744 141.896C220.819 133.931 235.534 127.152 250.736 121.63C258.236 118.905 265.847 116.554 273.523 114.385C280.006 112.554 286.508 110.72 292.773 108.224C304.884 103.401 316.404 95.2302 319.483 81.8352C322.402 69.1399 317.481 55.3582 308.854 45.9271C298.873 35.016 283.824 30.2329 269.396 29.4591C253.199 28.5902 237.374 32.6412 222.15 37.7824C205.912 43.2658 190.025 49.5709 173.444 54.0124C157.002 58.4125 140.242 61.5258 123.316 63.324C115.03 64.2056 106.493 65.2012 98.1582 64.5262C91.1725 63.9605 84.2225 61.9075 79.0742 56.9533C74.6598 52.7053 72.0301 46.8671 72.9342 40.7061C73.0984 39.587 74.7995 40.0628 74.6363 41.175C73.5358 48.6747 78.6373 55.5855 84.9238 59.1255C92.1894 63.2169 101.031 63.2224 109.12 62.7545C126.659 61.6959 144.079 59.1794 161.201 55.231C178.024 51.3912 194.247 45.902 210.451 40.0382C225.841 34.4692 241.575 29.0338 258.017 27.8275C272.283 26.7809 287.291 28.8578 299.719 36.308C310.642 42.8557 318.674 53.7752 321.233 66.3055C323.734 78.5499 320.27 90.8741 310.995 99.4187C301.392 108.266 288.224 112.048 275.953 115.531C260.388 119.95 245.158 125.114 230.415 131.82C215.472 138.598 201.141 146.65 187.581 155.885C174.491 164.824 161.573 176.071 157.433 192.017C155.505 199.445 155.861 207.323 159.088 214.339C161.957 220.578 166.682 225.825 172.186 229.873C185.32 239.53 201.872 241.513 217.736 241.71C235.553 241.931 253.371 241.331 271.195 241.623C307.517 242.219 343.766 244.428 379.94 248.251C389.005 249.21 398.058 250.269 407.099 251.43C415.232 252.474 423.391 253.512 431.387 255.366C445.604 258.664 459.438 265.004 468.274 277.05C472.196 282.271 474.626 288.458 475.304 294.951C475.922 301.727 474.262 308.516 471.197 314.543C464.411 327.885 451.701 336.371 438.204 341.946C430.974 344.932 423.475 347.194 415.991 349.44C414.901 349.767 414.435 348.065 415.522 347.739L415.522 347.739Z" fill="#F2F2F2"/>
<path d="M74.0745 54.9768C81.8736 54.9768 88.1959 48.6589 88.1959 40.8653C88.1959 33.0718 81.8736 26.7539 74.0745 26.7539C66.2755 26.7539 59.9531 33.0718 59.9531 40.8653C59.9531 48.6589 66.2755 54.9768 74.0745 54.9768Z" fill="#F2F2F2"/>
<path d="M172.041 81.7288C179.84 81.7288 186.163 75.4108 186.163 67.6173C186.163 59.8238 179.84 53.5059 172.041 53.5059C164.242 53.5059 157.92 59.8238 157.92 67.6173C157.92 75.4108 164.242 81.7288 172.041 81.7288Z" fill="#F2F2F2"/>
<path d="M255.005 28.2229C262.804 28.2229 269.127 21.905 269.127 14.1114C269.127 6.31791 262.804 0 255.005 0C247.206 0 240.884 6.31791 240.884 14.1114C240.884 21.905 247.206 28.2229 255.005 28.2229Z" fill="#F2F2F2"/>
<path d="M306.784 88.1975C314.583 88.1975 320.905 81.8796 320.905 74.0861C320.905 66.2925 314.583 59.9746 306.784 59.9746C298.984 59.9746 292.662 66.2925 292.662 74.0861C292.662 81.8796 298.984 88.1975 306.784 88.1975Z" fill="#F2F2F2"/>
<path d="M236.765 157.578C244.564 157.578 250.886 151.26 250.886 143.467C250.886 135.673 244.564 129.355 236.765 129.355C228.966 129.355 222.644 135.673 222.644 143.467C222.644 151.26 228.966 157.578 236.765 157.578Z" fill="#F2F2F2"/>
<path d="M147.917 191.092C155.716 191.092 162.039 184.774 162.039 176.981C162.039 169.187 155.716 162.869 147.917 162.869C140.118 162.869 133.796 169.187 133.796 176.981C133.796 184.774 140.118 191.092 147.917 191.092Z" fill="#F2F2F2"/>
<path d="M242.06 243.422C249.859 243.422 256.181 237.104 256.181 229.311C256.181 221.517 249.859 215.199 242.06 215.199C234.261 215.199 227.938 221.517 227.938 229.311C227.938 237.104 234.261 243.422 242.06 243.422Z" fill="#F2F2F2"/>
<path d="M343.264 272.821C351.063 272.821 357.385 266.503 357.385 258.709C357.385 250.916 351.063 244.598 343.264 244.598C335.465 244.598 329.143 250.916 329.143 258.709C329.143 266.503 335.465 272.821 343.264 272.821Z" fill="#F2F2F2"/>
<path d="M461.531 266.354C469.33 266.354 475.652 260.036 475.652 252.242C475.652 244.449 469.33 238.131 461.531 238.131C453.732 238.131 447.409 244.449 447.409 252.242C447.409 260.036 453.732 266.354 461.531 266.354Z" fill="#F2F2F2"/>
<path d="M250.928 39.9845C208.628 40.283 173.993 74.6339 173.392 116.901C173.386 117.292 173.383 120.036 173.384 123.624C173.384 128.887 175.476 133.933 179.199 137.654C182.923 141.375 187.973 143.466 193.238 143.466H193.238C195.849 143.466 198.433 142.951 200.845 141.952C203.256 140.953 205.447 139.489 207.291 137.643C209.136 135.798 210.599 133.607 211.596 131.197C212.593 128.786 213.105 126.203 213.103 123.594C213.101 121.153 213.1 119.463 213.1 119.359C213.099 112.827 214.799 106.407 218.034 100.73C221.269 95.0536 225.926 90.3163 231.549 86.9843C237.172 83.6522 243.566 81.8402 250.102 81.7264C256.638 81.6127 263.091 83.2011 268.826 86.3355C274.561 89.4699 279.381 94.0422 282.812 99.6028C286.243 105.163 288.166 111.52 288.392 118.049C288.618 124.577 287.14 131.052 284.103 136.837C281.065 142.621 276.573 147.516 271.069 151.039L271.075 151.048C271.075 151.048 242.816 169.227 234.2 194.167L234.208 194.169C232.693 199.278 231.925 204.579 231.929 209.908C231.929 212.098 232.058 231.264 232.307 246.82C232.394 252.187 234.589 257.305 238.418 261.069C242.248 264.834 247.405 266.943 252.777 266.941H252.777C255.476 266.941 258.149 266.408 260.641 265.372C263.133 264.336 265.395 262.817 267.298 260.904C269.201 258.991 270.706 256.721 271.727 254.224C272.749 251.727 273.266 249.053 273.249 246.356C273.163 232.11 273.116 215.522 273.116 214.318C273.116 199.004 287.899 183.746 300.043 173.796C314.027 162.338 324.089 146.724 328.131 129.11C329.025 125.484 329.518 121.77 329.602 118.036C329.602 107.739 327.562 97.5429 323.602 88.0362C319.641 78.5296 313.837 69.9001 306.524 62.6449C299.211 55.3897 290.534 49.6523 280.992 45.7632C271.45 41.874 261.233 39.9101 250.928 39.9845Z" fill="#39B6FB"/>
<path d="M496.299 350H0.700516C0.51506 349.999 0.337387 349.925 0.206439 349.794C0.0754917 349.663 0.00195312 349.485 0.00195312 349.3C0.00195312 349.114 0.0754917 348.937 0.206439 348.805C0.337387 348.674 0.51506 348.6 0.700516 348.6H496.299C496.485 348.6 496.663 348.673 496.795 348.805C496.926 348.936 497 349.114 497 349.3C497 349.485 496.926 349.663 496.795 349.795C496.663 349.926 496.485 350 496.299 350Z" fill="#3F3D56"/>
<path d="M369.774 160.515C379.523 160.515 387.426 152.618 387.426 142.876C387.426 133.134 379.523 125.236 369.774 125.236C360.025 125.236 352.122 133.134 352.122 142.876C352.122 152.618 360.025 160.515 369.774 160.515Z" fill="#2F2E41"/>
<path d="M337.156 342.279H329.943L326.511 314.475H337.158L337.156 342.279Z" fill="#A0616A"/>
<path d="M324.79 340.219H338.701V348.972H316.03C316.03 347.822 316.257 346.684 316.697 345.622C317.137 344.56 317.782 343.595 318.596 342.782C319.409 341.97 320.375 341.325 321.438 340.885C322.5 340.445 323.639 340.219 324.79 340.219Z" fill="#2F2E41"/>
<path d="M393.052 342.279H385.839L382.407 314.475H393.054L393.052 342.279Z" fill="#A0616A"/>
<path d="M380.687 340.219H394.599V348.972H371.928C371.928 347.822 372.154 346.684 372.594 345.622C373.035 344.56 373.68 343.595 374.493 342.782C375.307 341.97 376.272 341.325 377.335 340.885C378.398 340.445 379.537 340.219 380.687 340.219Z" fill="#2F2E41"/>
<path d="M367.091 160.619C375.073 160.619 381.543 154.153 381.543 146.178C381.543 138.202 375.073 131.736 367.091 131.736C359.11 131.736 352.64 138.202 352.64 146.178C352.64 154.153 359.11 160.619 367.091 160.619Z" fill="#A0616A"/>
<path d="M375.705 207.205L382.171 192.359C383.742 188.876 384.192 184.992 383.459 181.243C382.727 177.494 380.848 174.064 378.082 171.427C377.514 170.866 376.911 170.341 376.275 169.857C373.085 167.363 369.153 166.003 365.102 165.994C362.378 166.005 359.689 166.602 357.218 167.746C357.006 167.84 356.8 167.94 356.588 168.04C356.182 168.234 355.782 168.446 355.394 168.664C352.861 170.117 350.705 172.145 349.1 174.584C347.496 177.023 346.487 179.804 346.156 182.704L343.302 206.6C342.584 208.475 316.978 276.21 325.933 327.923C326.028 328.475 326.298 328.983 326.702 329.371C327.106 329.759 327.625 330.008 328.181 330.081L337.26 331.316C337.922 331.406 338.595 331.242 339.142 330.857C339.689 330.472 340.07 329.894 340.207 329.24L355.441 256.678C355.536 256.227 355.779 255.821 356.132 255.525C356.485 255.228 356.927 255.059 357.388 255.043C357.849 255.028 358.302 255.167 358.674 255.439C359.046 255.711 359.317 256.099 359.442 256.543L380.965 332.85C381.118 333.405 381.45 333.894 381.908 334.242C382.366 334.59 382.925 334.779 383.501 334.779C383.673 334.778 383.844 334.762 384.013 334.732L395.104 332.597C395.749 332.477 396.325 332.12 396.721 331.597C397.116 331.074 397.301 330.422 397.24 329.769C395.61 311.607 386.949 220.629 375.705 207.205Z" fill="#2F2E41"/>
<path d="M310.93 158.196C310.829 159.054 310.919 159.925 311.191 160.745C311.464 161.565 311.913 162.316 312.507 162.944C313.102 163.572 313.827 164.062 314.631 164.38C315.435 164.698 316.3 164.835 317.163 164.783L325.241 184.182L331.352 175.131L322.744 158.097C322.56 156.653 321.853 155.327 320.756 154.37C319.659 153.412 318.249 152.89 316.793 152.903C315.336 152.915 313.935 153.46 312.855 154.436C311.774 155.412 311.089 156.749 310.93 158.196L310.93 158.196Z" fill="#A0616A"/>
<path d="M366.291 226.739C367.15 226.636 367.975 226.347 368.71 225.891C369.445 225.435 370.071 224.823 370.544 224.099C371.016 223.376 371.324 222.557 371.446 221.701C371.568 220.845 371.501 219.973 371.249 219.146L388.245 206.776L378.012 202.947L363.441 215.281C362.079 215.796 360.954 216.792 360.278 218.081C359.601 219.37 359.422 220.862 359.773 222.275C360.124 223.687 360.982 224.922 362.183 225.744C363.384 226.567 364.846 226.921 366.291 226.739Z" fill="#A0616A"/>
<path d="M338.584 197.114C337.932 197.113 337.282 197.049 336.643 196.923C335.097 196.629 333.647 195.959 332.421 194.973C331.195 193.987 330.231 192.715 329.613 191.269L318.296 177.479C318.057 177.187 317.882 176.848 317.785 176.484C317.688 176.119 317.669 175.739 317.731 175.367C317.793 174.995 317.934 174.64 318.144 174.327C318.354 174.014 318.629 173.749 318.95 173.551L327.001 168.57C327.299 168.386 327.629 168.263 327.975 168.207C328.32 168.152 328.673 168.165 329.013 168.247C329.353 168.328 329.673 168.476 329.955 168.682C330.238 168.888 330.477 169.148 330.658 169.446L338.635 182.578L353.91 171.297C355.127 170.66 356.532 170.481 357.869 170.793C359.206 171.106 360.386 171.889 361.193 172.999C362.001 174.109 362.382 175.472 362.266 176.84C362.151 178.207 361.547 179.488 360.565 180.447L345.319 194.345C343.527 196.119 341.106 197.115 338.584 197.114Z" fill="#2F2E41"/>
<path d="M379.86 217.854C379.839 217.854 379.818 217.854 379.798 217.853C379.427 217.844 379.061 217.758 378.726 217.599C378.39 217.439 378.092 217.212 377.85 216.93L370.691 208.585C370.447 208.301 370.267 207.968 370.161 207.609C370.055 207.25 370.027 206.872 370.079 206.501C370.13 206.13 370.259 205.775 370.458 205.458C370.657 205.14 370.921 204.869 371.233 204.661L384.637 195.731L372.494 181.142C371.787 179.965 371.528 178.574 371.764 177.222C371.999 175.87 372.714 174.648 373.776 173.779C374.839 172.91 376.179 172.452 377.552 172.488C378.925 172.525 380.239 173.054 381.253 173.979L396.012 188.392C397.174 189.452 398.06 190.779 398.596 192.257C399.132 193.735 399.301 195.321 399.088 196.879C398.875 198.437 398.288 199.92 397.375 201.2C396.463 202.481 395.253 203.522 393.85 204.232L381.787 217.023C381.539 217.285 381.241 217.494 380.909 217.637C380.578 217.78 380.221 217.854 379.86 217.854Z" fill="#2F2E41"/>
<path d="M363.417 187.103C363.302 187.103 363.187 187.096 363.073 187.081C362.575 187.02 362.104 186.818 361.717 186.498C361.33 186.179 361.043 185.755 360.89 185.277L355.511 168.796C355.376 168.379 355.397 167.928 355.569 167.525C355.742 167.123 356.054 166.796 356.449 166.606L356.623 166.524C356.781 166.448 356.938 166.374 357.098 166.303C359.607 165.14 362.337 164.534 365.102 164.525C368.692 164.532 372.201 165.586 375.2 167.557C375.602 167.825 375.883 168.239 375.982 168.712C376.081 169.184 375.991 169.676 375.73 170.082L365.639 185.88C365.403 186.255 365.075 186.564 364.686 186.778C364.297 186.992 363.861 187.104 363.417 187.103Z" fill="#E6E6E6"/>
<path d="M383.691 135.001C386.881 135.001 389.467 132.417 389.467 129.229C389.467 126.041 386.881 123.457 383.691 123.457C380.501 123.457 377.915 126.041 377.915 129.229C377.915 132.417 380.501 135.001 383.691 135.001Z" fill="#2F2E41"/>
<path d="M363.89 122.885C359.833 122.885 355.941 124.495 353.073 127.362C350.204 130.229 348.592 134.118 348.592 138.172V144.64H356.552L360.36 138.172L361.502 144.64H385.66L379.188 138.172C379.188 134.118 377.576 130.229 374.707 127.362C371.838 124.495 367.947 122.885 363.89 122.885Z" fill="#2F2E41"/>
<path d="M386.659 125.274C387.298 123.279 388.62 121.572 390.394 120.454C392.168 119.336 394.279 118.878 396.356 119.162C400.037 119.777 402.948 122.734 404.682 126.036C406.416 129.339 407.217 133.035 408.382 136.577C409.548 140.12 411.201 143.682 414.145 145.976C417.088 148.269 421.604 148.891 424.494 146.532C424.164 148.991 423.069 151.283 421.363 153.086C419.657 154.888 417.428 156.109 414.99 156.576C412.552 157.043 410.028 156.732 407.777 155.687C405.525 154.642 403.659 152.917 402.443 150.754C400.918 148.043 400.524 144.865 400.072 141.787C399.619 138.709 399.032 135.525 397.211 133.002C395.39 130.48 391.981 128.832 389.089 129.981L386.659 125.274Z" fill="#2F2E41"/>
<path d="M198.845 134.081C193.579 134.08 188.529 131.99 184.806 128.269C181.083 124.548 178.991 119.501 178.99 114.239C178.99 110.65 178.993 107.906 178.998 107.516C179.165 95.2234 182.263 83.1478 188.035 72.291C178.552 85.2635 173.338 100.86 173.114 116.924C173.109 117.314 173.106 120.058 173.106 123.647C173.107 128.909 175.199 133.955 178.922 137.676C182.645 141.397 187.695 143.488 192.961 143.489C197.288 143.487 201.497 142.074 204.947 139.464C208.397 136.855 210.9 133.191 212.077 129.03C208.441 132.288 203.728 134.087 198.845 134.081Z" fill="#3F3D56"/>
<path d="M252.274 81.7927C258.362 82.0832 264.288 83.8458 269.544 86.9292C274.8 90.0126 279.228 94.3245 282.449 99.4949C285.67 104.665 287.587 110.539 288.035 116.613C288.484 122.687 287.45 128.779 285.024 134.365C288.534 130.246 291.113 125.42 292.587 120.214C294.061 115.009 294.394 109.547 293.564 104.201C292.734 98.8548 290.76 93.7506 287.777 89.2362C284.794 84.7217 280.871 80.9031 276.278 78.0407C271.684 75.1782 266.526 73.3393 261.157 72.6492C255.787 71.9591 250.332 72.4341 245.163 74.0418C239.994 75.6496 235.233 78.3522 231.203 81.9654C227.174 85.5787 223.972 90.0177 221.815 94.9797C225.543 90.5977 230.228 87.1298 235.509 84.8434C240.79 82.5571 246.526 81.5133 252.274 81.7927Z" fill="#3F3D56"/>
<path d="M258.383 257.557C253.011 257.558 247.854 255.449 244.024 251.684C240.195 247.92 238 242.802 237.912 237.435C237.663 221.879 237.534 202.713 237.534 200.523C237.531 195.194 238.299 189.893 239.813 184.784L239.806 184.782C240.701 182.218 241.781 179.722 243.039 177.314C239.178 182.456 236.106 188.143 233.922 194.19L233.93 194.192C232.415 199.301 231.647 204.602 231.65 209.931C231.65 212.121 231.779 231.287 232.028 246.842C232.116 252.21 234.311 257.328 238.14 261.092C241.97 264.856 247.127 266.966 252.499 266.964C256.928 266.964 261.237 265.528 264.781 262.872C268.324 260.217 270.911 256.485 272.152 252.236C268.388 255.666 263.476 257.564 258.383 257.557Z" fill="#3F3D56"/>
<path d="M74.4559 342.547L81.669 342.546L85.101 314.742L74.4541 314.743L74.4559 342.547Z" fill="#FFB8B8"/>
<path d="M95.5811 349.24L72.9099 349.241L72.9095 340.488L86.8214 340.488C89.1445 340.487 91.3725 341.41 93.0152 343.051C94.658 344.692 95.5809 346.919 95.5811 349.24L95.5811 349.24Z" fill="#2F2E41"/>
<path d="M48.5662 342.547L55.7793 342.546L59.2114 314.742L48.5645 314.743L48.5662 342.547Z" fill="#FFB8B8"/>
<path d="M69.6924 349.24L47.0212 349.241L47.0208 340.488L60.9327 340.488C63.2558 340.487 65.4838 341.41 67.1266 343.051C68.7693 344.692 69.6923 346.919 69.6924 349.24L69.6924 349.24Z" fill="#2F2E41"/>
<path d="M54.8702 333.994L47.8242 333.624C47.4609 333.605 47.105 333.514 46.7771 333.357C46.4492 333.199 46.1558 332.978 45.914 332.706C45.6722 332.435 45.4868 332.118 45.3684 331.774C45.25 331.43 45.2011 331.066 45.2244 330.704L53.6459 237.529L92.4274 247.987L96.1638 246.968L84.4793 329.452C84.3798 330.073 84.0714 330.641 83.6052 331.063C83.139 331.484 82.5428 331.734 81.915 331.772L74.3195 332.125C73.9397 332.146 73.5597 332.089 73.2034 331.955C72.8472 331.822 72.5224 331.617 72.2497 331.352C71.977 331.087 71.7623 330.768 71.6191 330.416C71.4759 330.064 71.4074 329.686 71.4179 329.306L72.7941 279.8C72.8006 279.571 72.721 279.348 72.571 279.175C72.4211 279.002 72.2117 278.891 71.984 278.864C71.7564 278.838 71.5271 278.898 71.3412 279.032C71.1554 279.166 71.0265 279.364 70.98 279.588L57.7077 331.808C57.5824 332.428 57.246 332.985 56.7557 333.384C56.2655 333.784 55.6518 334.001 55.0192 333.999C54.9699 333.999 54.9202 333.997 54.8702 333.994Z" fill="#2F2E41"/>
<path d="M75.7503 161.295C83.7317 161.295 90.2019 154.829 90.2019 146.853C90.2019 138.878 83.7317 132.412 75.7503 132.412C67.769 132.412 61.2988 138.878 61.2988 146.853C61.2988 154.829 67.769 161.295 75.7503 161.295Z" fill="#FFB8B8"/>
<path d="M51.6904 189.281L53.2794 223.54L53.8538 236.005C53.8767 236.547 54.061 237.071 54.3833 237.508C54.7055 237.945 55.151 238.277 55.6627 238.46L92.9291 251.95C93.2301 252.062 93.5491 252.118 93.8702 252.115C94.2373 252.117 94.6009 252.044 94.9395 251.903C95.278 251.761 95.5845 251.552 95.8406 251.29C96.0968 251.027 96.2973 250.715 96.4302 250.373C96.5631 250.031 96.6257 249.666 96.6143 249.299L95.0865 187.699C94.9861 182.645 93.1244 177.784 89.8222 173.955C86.5201 170.125 81.9844 167.567 76.9971 166.722C76.6367 166.667 76.2699 166.612 75.9032 166.563C72.8107 166.179 69.6716 166.477 66.7069 167.436C63.7421 168.395 61.0236 169.992 58.7428 172.114C56.381 174.285 54.5251 176.947 53.3065 179.914C52.0879 182.88 51.5362 186.078 51.6904 189.281L51.6904 189.281Z" fill="#CCCCCC"/>
<path d="M110.731 245.113C109.85 244.84 109.044 244.365 108.379 243.725C107.715 243.085 107.208 242.299 106.902 241.43C106.595 240.56 106.495 239.63 106.612 238.716C106.728 237.801 107.057 236.926 107.572 236.16L94.9346 219.368L105.84 218.693L116.169 234.743C117.275 235.598 118.044 236.814 118.342 238.178C118.64 239.543 118.448 240.969 117.8 242.206C117.151 243.443 116.087 244.413 114.794 244.944C113.502 245.476 112.063 245.536 110.731 245.113H110.731Z" fill="#FFB8B8"/>
<path d="M101.845 233.121C101.511 232.985 101.206 232.784 100.949 232.53C100.693 232.276 100.489 231.973 100.35 231.64L81.311 186.31C80.9374 185.423 80.7425 184.47 80.7374 183.507C80.7323 182.545 80.9172 181.59 81.2814 180.699C81.6456 179.807 82.182 178.997 82.8599 178.312C83.5379 177.628 84.3442 177.084 85.2326 176.712C86.121 176.339 87.0742 176.145 88.0377 176.141C89.0012 176.136 89.9561 176.322 90.8479 176.686C91.7396 177.051 92.5507 177.588 93.2348 178.266C93.9189 178.944 94.4626 179.75 94.8348 180.638L113.874 225.968C114.155 226.64 114.159 227.397 113.883 228.071C113.607 228.745 113.075 229.283 112.403 229.566L103.95 233.111C103.618 233.251 103.26 233.325 102.899 233.326C102.538 233.328 102.179 233.258 101.845 233.121L101.845 233.121Z" fill="#CCCCCC"/>
<path d="M71.1049 231.522L89.3916 196.532C89.7443 195.859 90.3496 195.353 91.0749 195.126C91.8002 194.898 92.5861 194.968 93.2603 195.319L119.804 209.171C120.477 209.524 120.983 210.129 121.211 210.853C121.438 211.578 121.369 212.364 121.018 213.037L102.731 248.027C102.378 248.7 101.773 249.206 101.048 249.433C100.322 249.66 99.5364 249.591 98.8622 249.24L72.319 235.387C71.6456 235.035 71.1396 234.43 70.912 233.705C70.6844 232.981 70.7537 232.195 71.1049 231.522Z" fill="#3F3D56"/>
<path d="M83.3688 215.536C83.0437 214.673 82.5212 213.898 81.843 213.272C81.1648 212.647 80.3497 212.189 79.4628 211.934C78.5758 211.679 77.6416 211.635 76.7345 211.805C75.8275 211.975 74.9728 212.355 74.2387 212.914L56.7173 201.299L56.6875 212.217L73.3307 221.573C74.2494 222.626 75.5097 223.322 76.8904 223.538C78.2712 223.755 79.6843 223.479 80.8818 222.759C82.0794 222.039 82.985 220.92 83.4397 219.6C83.8945 218.279 83.8693 216.84 83.3688 215.536Z" fill="#FFB8B8"/>
<path d="M61.2154 217.992L46.8959 206.657C45.3468 206.137 43.9471 205.25 42.8168 204.07C41.6866 202.891 40.8597 201.455 40.407 199.886C39.9543 198.317 39.8894 196.662 40.2178 195.062C40.5463 193.463 41.2582 191.966 42.2926 190.702L55.2944 173.675C56.1979 172.572 57.4686 171.83 58.8742 171.586C60.2798 171.342 61.7263 171.611 62.9495 172.345C64.1726 173.079 65.0906 174.228 65.5357 175.582C65.9807 176.937 65.9231 178.406 65.3733 179.722L55.086 196.538L70.2041 203.704C70.5557 203.87 70.8679 204.109 71.12 204.406C71.3722 204.702 71.5586 205.048 71.6669 205.421C71.7753 205.795 71.8031 206.187 71.7485 206.572C71.694 206.957 71.5583 207.326 71.3504 207.654L65.2478 217.306C65.0415 217.631 64.769 217.91 64.448 218.124C64.127 218.338 63.7647 218.482 63.3845 218.547C63.3694 218.549 63.3542 218.552 63.339 218.554C62.9654 218.611 62.5842 218.59 62.2189 218.493C61.8537 218.396 61.5121 218.226 61.2154 217.992Z" fill="#CCCCCC"/>
<path d="M64.8305 156.523C64.7685 156.342 64.7489 156.149 64.773 155.959C64.7972 155.769 64.8646 155.587 64.97 155.427C65.0755 155.267 65.2161 155.133 65.3813 155.036C65.5464 154.939 65.7317 154.881 65.9228 154.866C66.3142 154.887 66.6972 154.987 67.0488 155.161C67.4003 155.334 67.713 155.577 67.9681 155.874C68.4911 156.477 69.1 156.999 69.7752 157.425C70.4742 157.777 71.4224 157.727 71.8209 157.055C72.1951 156.425 71.9387 155.581 71.7122 154.848C71.1356 152.985 70.813 151.053 70.7531 149.104C70.6879 146.928 70.995 144.658 72.2004 142.961C73.756 140.771 76.5377 139.939 79.1702 139.999C81.8026 140.06 84.3924 140.872 87 141.385C87.9001 141.562 88.9583 141.653 89.5604 140.956C90.2006 140.214 89.9654 139.015 89.6931 138.014C88.9865 135.416 88.2369 132.731 86.5951 130.633C84.8199 128.454 82.2842 127.027 79.4986 126.641C76.8243 126.31 74.1095 126.618 71.5775 127.539C67.4522 128.839 63.8222 131.366 61.173 134.782C58.4421 138.416 57.2621 142.982 57.8909 147.483C58.5053 151.403 60.5839 154.944 63.7077 157.393L64.8305 156.523Z" fill="#2F2E41"/>
<path d="M247.865 342.661C244.02 340.987 240.617 338.444 237.924 335.231C235.231 332.018 233.323 328.224 232.349 324.148C231.375 320.072 231.362 315.825 232.312 311.743C233.261 307.661 235.147 303.856 237.821 300.627C234.721 302.889 232.138 305.783 230.244 309.119C228.349 312.454 227.186 316.154 226.831 319.973C226.477 323.792 226.94 327.642 228.188 331.269C229.437 334.896 231.443 338.215 234.074 341.008C236.705 343.8 239.9 346.002 243.447 347.466C246.994 348.931 250.813 349.624 254.649 349.501C258.485 349.378 262.251 348.441 265.697 346.752C269.143 345.064 272.19 342.662 274.636 339.706C270.821 342.493 266.342 344.232 261.645 344.75C256.948 345.269 252.197 344.548 247.865 342.661Z" fill="#3F3D56"/>
</svg>
